<?xml version="1.0" standalone="no"?>
<!DOCTYPE svg PUBLIC "-//W3C//DTD SVG 1.1//EN" "http://www.w3.org/Graphics/SVG/1.1/DTD/svg11.dtd" >
<svg>
<metadata>
Created by FontForge 20090914 at Sat Sep 12 15:05:55 2020
 By www-data
&#194;&#169; 2012 Microsoft Corporation. All Rights Reserved.
</metadata>
<defs>
<font id="SegoeUISymbol" horiz-adv-x="2048" >
  <font-face 
    font-family="Segoe UI Symbol"
    font-weight="400"
    font-stretch="normal"
    units-per-em="2048"
    panose-1="2 11 5 2 4 2 4 2 2 3"
    ascent="1638"
    descent="-410"
    x-height="1024"
    cap-height="1434"
    bbox="-795 -514 3196.01 2246"
    underline-thickness="119"
    underline-position="-119"
    unicode-range="U+000D-U+1F6C0"
  />
<missing-glyph horiz-adv-x="1322" 
d="M166 0v1398h990v-1398h-990zM314 148h694v1102h-694v-1102z" />
    <glyph glyph-name=".notdef" horiz-adv-x="1322" 
d="M166 0v1398h990v-1398h-990zM314 148h694v1102h-694v-1102z" />
    <glyph glyph-name="null" unicode="&#xd;" horiz-adv-x="0" 
 />
    <glyph glyph-name="space" unicode=" " horiz-adv-x="561" 
 />
    <glyph glyph-name="exclam" unicode="!" horiz-adv-x="582" 
d="M375 1434l-19 -1030h-135l-18 1030h172zM291 -18c-30.667 0 -56.834 10.667 -78.501 32s-32.5 47.333 -32.5 78s10.833 56.834 32.5 78.501s47.834 32.5 78.501 32.5c30 0 56 -10.833 78 -32.5s33 -47.834 33 -78.501s-11 -56.667 -33 -78s-48 -32 -78 -32z" />
    <glyph glyph-name="quotedbl" unicode="&#x22;" horiz-adv-x="803" 
d="M323 1434l-30 -447h-115l-30 447h175zM655 1434l-30 -447h-115l-30 447h175z" />
    <glyph glyph-name="numbersign" unicode="#" horiz-adv-x="1210" 
d="M1166 1032l-23 -106h-261l-63 -300h281l-27 -106h-275l-88 -397h-126l86 397h-250l-84 -397h-125l84 397h-262l20 106h265l61 300h-277l21 106h277l84 402h126l-84 -402h252l86 402h123l-84 -402h263zM758 926h-252l-66 -300h254z" />
    <glyph glyph-name="dollar" unicode="$" horiz-adv-x="1104" 
d="M616 8v-217h-104v209c-142 0 -257.333 28.667 -346 86v174c38.667 -34 91.5 -62.5 158.5 -85.5s129.5 -34.5 187.5 -34.5v512c-146.667 70.667 -241.667 135.834 -285 195.501s-65 130.167 -65 211.5c0 96.667 33 180.167 99 250.5s149.667 112.5 251 126.5v180h104v-176
c130.667 -4 221 -22.667 271 -56v-170c-68 53.333 -158.333 82 -271 86v-528c138.667 -66 233.5 -129.833 284.5 -191.5s76.5 -131.834 76.5 -210.501c0 -94.667 -31.833 -174.167 -95.5 -238.5s-152.167 -105.5 -265.5 -123.5zM512 828v465.999
c-56 -11.333 -100.333 -36.166 -133 -74.499s-49 -84.833 -49 -139.5c0 -57.333 13.333 -104.333 40 -141s74 -73.667 142 -111zM616 599.999v-452c128.667 28 193 97.333 193 208c0 92 -64.333 173.333 -193 244z" />
    <glyph glyph-name="percent" unicode="%" horiz-adv-x="1676" 
d="M404 715c-98.667 0 -177.333 32.5 -236 97.5s-88 151.833 -88 260.5c0 118.667 31 212.167 93 280.5s145.667 102.5 251 102.5c102 0 181.167 -31.667 237.5 -95s84.5 -152.333 84.5 -267s-31.5 -206.5 -94.5 -275.5s-145.5 -103.5 -247.5 -103.5zM418.001 1346
c-63.333 0 -113.333 -23.501 -150 -70.501s-55 -111.5 -55 -193.5c0 -80.667 18 -143.5 54 -188.5s85 -67.5 147 -67.5c62.667 0 111.667 23.333 147 70s53 111.334 53 194.001c0 80.667 -17.5 143.5 -52.5 188.5s-82.833 67.5 -143.5 67.5zM1364 1434l-920 -1444h-143
l919 1444h144zM1258 -22.001c-98.667 0 -177.333 32.667 -236 98s-88 152 -88 260c0 118.667 31.333 212.5 94 281.5s146 103.5 250 103.5c101.333 0 180.333 -32 237 -96s85 -153.667 85 -269c0 -114 -31.5 -205.5 -94.5 -274.5s-145.5 -103.5 -247.5 -103.5zM1272 607.999
c-64 0 -114.167 -23.332 -150.5 -69.999s-54.5 -111.334 -54.5 -194.001c0 -79.333 18 -141.5 54 -186.5s85 -67.5 147 -67.5c62.667 0 111.667 23.5 147 70.5s53 111.5 53 193.5c0 81.333 -17.5 144 -52.5 188s-82.833 66 -143.5 66z" />
    <glyph glyph-name="ampersand" unicode="&#x26;" horiz-adv-x="1639" 
d="M1445 -23c-38 0 -71.498 5.16797 -100.498 15.501s-55.833 25 -80.5 44s-48.5 42.167 -71.5 69.5s-47.167 58.333 -72.5 93c-26.667 -28.667 -57.5 -56.334 -92.5 -83.001s-73.833 -50.334 -116.5 -71.001s-89.334 -37.167 -140.001 -49.5s-105.667 -18.5 -165 -18.5
c-72 0 -138 9 -198 27s-111.333 44.5 -154 79.5s-75.834 78.167 -99.501 129.5s-35.5 110.333 -35.5 177c0 102 29 189.167 87 261.5s140 131.5 246 177.5c-20 14.667 -40 31.834 -60 51.501s-37.833 42 -53.5 67s-28.334 52.667 -38.001 83s-14.5 63.5 -14.5 99.5
c0 52.667 9.5 99.334 28.5 140.001s45.167 75 78.5 103s72.666 49.167 117.999 63.5s94.333 21.5 147 21.5c52 0 99.5 -7.16699 142.5 -21.5s80 -34.833 111 -61.5s55.167 -58.667 72.5 -96s26 -79 26 -125c0 -80 -22.833 -146.5 -68.5 -199.5
s-114.167 -98.167 -205.5 -135.5c46 -18 87.667 -40 125 -66s71.833 -55 103.5 -87s61.167 -66.333 88.5 -103l81 -114c54 75.333 94.667 158.333 122 249s41 185.667 41 285c0 25.333 -1.5 49.166 -4.5 71.499s-7.16699 44.5 -12.5 66.5h159
c5.33301 -22 8.5 -42.833 9.5 -62.5l3.5 -70.5c0 -60.667 -6.33301 -121.667 -19 -183s-29.667 -120.833 -51 -178.5s-46.166 -112.5 -74.499 -164.5s-58.166 -99.667 -89.499 -143c23.333 -32 44.666 -59.833 63.999 -83.5s38.833 -43.5 58.5 -59.5s40 -27.833 61 -35.5
s44.833 -11.5 71.5 -11.5c20 0 40.333 2.66699 61 8s42 12 64 20v-152c-24 -9.33301 -49.167 -16.333 -75.5 -21s-52.166 -7 -77.499 -7zM606.002 119.001c50.667 0 97.333 5.50195 140 16.502s82 25.667 118 44s68.667 39.666 98 63.999s56 49.833 80 76.5
c-40.667 63.333 -78.167 117.5 -112.5 162.5s-69 83.833 -104 116.5s-72.333 60.667 -112 84s-85.5 45 -137.5 65c-42 -16.667 -80.667 -35.167 -116 -55.5s-65.833 -44.333 -91.5 -72s-45.834 -59.834 -60.501 -96.501s-22 -79.667 -22 -129
c0 -45.333 8.33301 -85.333 25 -120s39.5 -63.5 68.5 -86.5s62.833 -40.333 101.5 -52s80.334 -17.5 125.001 -17.5zM856.001 1140c0 33.333 -6.16699 61.668 -18.5 85.001s-28 42.666 -47 57.999s-40.167 26.5 -63.5 33.5s-46.333 10.5 -69 10.5
c-65.333 0 -117.5 -17.667 -156.5 -53s-58.833 -83.333 -59.5 -144c0 -27.333 4.16699 -53 12.5 -77s20 -46.333 35 -67s32.5 -39 52.5 -55s41.333 -29.667 64 -41c84 29.333 146.667 63.5 188 102.5s62 88.167 62 147.5z" />
    <glyph glyph-name="quotesingle" unicode="'" horiz-adv-x="471" 
d="M323 1434l-30 -447h-115l-30 447h175z" />
    <glyph glyph-name="parenleft" unicode="(" horiz-adv-x="618" 
d="M596 -326h-146c-206.667 236 -310 527 -310 873c0 347.333 103.333 643 310 887h148c-209.333 -253.333 -314 -548.333 -314 -885c0 -334 104 -625.667 312 -875z" />
    <glyph glyph-name="parenright" unicode=")" horiz-adv-x="618" 
d="M170 -326h-146c208 249.333 312 541 312 875c0 336.667 -104.667 631.667 -314 885h148c208 -244 312 -539.667 312 -887c0 -346 -104 -637 -312 -873z" />
    <glyph glyph-name="asterisk" unicode="*" horiz-adv-x="854" 
d="M780 1104l-274 -56l190 -243l-110 -76l-156 265l-158 -265l-110 76l190 243l-276 56l45 125l262 -99l-23 304h138l-23 -304l263 99z" />
    <glyph glyph-name="plus" unicode="+" horiz-adv-x="1401" 
d="M1172 530h-404v-403h-133v403h-403v134h403v403h133v-403h404v-134z" />
    <glyph glyph-name="comma" unicode="," horiz-adv-x="444" 
d="M316 228l-160 -492h-117l117 492h160z" />
    <glyph glyph-name="hyphen" unicode="-" horiz-adv-x="819" 
d="M690 506h-546v129h546v-129z" />
    <glyph glyph-name="period" unicode="." horiz-adv-x="444" 
d="M223 -22c-30.667 0 -56.834 11 -78.501 33s-32.5 48.333 -32.5 79s10.833 57.167 32.5 79.5s47.834 33.5 78.501 33.5c31.333 0 58 -11.167 80 -33.5s33 -48.833 33 -79.5s-11 -57 -33 -79s-48.667 -33 -80 -33z" />
    <glyph glyph-name="slash" unicode="/" horiz-adv-x="798" 
d="M813 1434l-688 -1672h-153l686 1672h155z" />
    <glyph glyph-name="zero" unicode="0" horiz-adv-x="1104" 
d="M538 -24c-142 0 -252.833 61.001 -332.5 183.001s-119.5 298.333 -119.5 529c0 253.333 41.5 445 124.5 575s202.833 195 359.5 195c300 0 450 -245 450 -735c0 -242.667 -42.333 -427.834 -127 -555.501s-203 -191.5 -355 -191.5zM561 1319
c-204.667 0 -307 -207.667 -307 -623c0 -388 100.333 -582 301 -582c198 0 297 197.333 297 592c0 408.667 -97 613 -291 613z" />
    <glyph glyph-name="one" unicode="1" horiz-adv-x="1104" 
d="M987 0h-811v144h324v1114l-332 -99v156l496 151v-1322h323v-144z" />
    <glyph glyph-name="two" unicode="2" horiz-adv-x="1104" 
d="M960 0h-864.002v146l418 419c106.667 106.667 182.834 195.5 228.501 266.5s68.5 146.833 68.5 227.5c0 82.667 -23.667 146.667 -71 192s-114.666 68 -201.999 68c-128 0 -250.667 -54.667 -368 -164v172c112 87.333 242.333 131 391 131
c128 0 228.667 -34.667 302 -104s110 -162.333 110 -279c0 -92 -25.333 -181.833 -76 -269.5s-141.667 -196.5 -273 -326.5l-331 -327v-4h667v-148z" />
    <glyph glyph-name="three" unicode="3" horiz-adv-x="1104" 
d="M131 53l-0.000976562 176.999c98 -77.333 208.667 -116 332 -116c100 0 179.833 25 239.5 75s89.5 117.333 89.5 202c0 187.333 -133 281 -399 281h-119v139h113c236.667 0 355 88 355 264c0 162.667 -90.333 244 -271 244c-100.667 0 -195.667 -34.333 -285 -103v160
c92 54.667 200.667 82 326 82c120.667 0 217.167 -32 289.5 -96s108.5 -146 108.5 -246c0 -188.667 -96 -310 -288 -364v-4c103.333 -10 185.5 -46.167 246.5 -108.5s91.5 -140.166 91.5 -233.499c0 -128.667 -46.167 -232.5 -138.5 -311.5s-214.166 -118.5 -365.499 -118.5
c-136 0 -244.333 25.667 -325 77z" />
    <glyph glyph-name="four" unicode="4" horiz-adv-x="1104" 
d="M1034 381h-184v-381h-162v381h-674v107l638 946h198v-920h184v-133zM688 514l-0.000976562 620c0 44 1.33301 93.333 4 148h-4c-9.33301 -24 -27.666 -60.667 -54.999 -110l-441 -658h496z" />
    <glyph glyph-name="five" unicode="5" horiz-adv-x="1104" 
d="M164 35l-0.000976562 174.001c98 -63.333 197.667 -95 299 -95s183 28.667 245 86s93 133.333 93 228c0 94 -31.667 167.333 -95 220s-154 79 -272 79c-40 0 -115 -4 -225 -12v719h694v-148h-539v-420c44 2.66699 84.667 4 122 4c153.333 0 272 -38.5 356 -115.5
s126 -182.5 126 -316.5c0 -138.667 -45.167 -250.334 -135.5 -335.001s-214.166 -127 -371.499 -127c-132.667 0 -231.667 19.667 -297 59z" />
    <glyph glyph-name="six" unicode="6" horiz-adv-x="1104" 
d="M934 1417v-155c-74 38 -152 57 -234 57c-127.333 0 -229.166 -56.667 -305.499 -170s-114.5 -265 -114.5 -455h4c66.667 135.333 176 203 328 203c125.333 0 225 -40.167 299 -120.5s111 -187.833 111 -322.5c0 -140.667 -42.333 -255.5 -127 -344.5
s-192.334 -133.5 -323.001 -133.5c-144 0 -257 57.333 -339 172s-123 275.667 -123 483c0 251.333 53.667 452 161 602s249 225 425 225c100 0 179.333 -13.667 238 -41zM576 758c-84.667 0 -153.334 -28.666 -206.001 -85.999s-79 -125 -79 -203
c0 -98 26.167 -181.667 78.5 -251s121.833 -104 208.5 -104c82.667 0 149.334 30.167 200.001 90.5s76 136.833 76 229.5c0 101.333 -24.333 180.666 -73 237.999s-117 86 -205 86z" />
    <glyph glyph-name="seven" unicode="7" horiz-adv-x="1104" 
d="M1010 1382l-568 -1382h-170l537 1286h-723v148h924v-52z" />
    <glyph glyph-name="eight" unicode="8" horiz-adv-x="1104" 
d="M410 752v4.00098c-172 80 -258 196 -258 348c0 103.333 39.333 188.166 118 254.499s180 99.5 304 99.5c112 0 204 -31 276 -93s108 -141.667 108 -239c0 -158.667 -88.667 -282 -266 -370v-4c209.333 -74.667 314 -204 314 -388c0 -118.667 -42.667 -213 -128 -283
s-204 -105 -356 -105c-122.667 0 -223.667 34.667 -303 104s-119 159.333 -119 270c0 184 103.333 318 310 402zM790 1106c0 66 -20.668 118.001 -62.001 156.001s-97.666 57 -168.999 57c-66.667 0 -123.167 -19.833 -169.5 -59.5s-69.5 -90.167 -69.5 -151.5
c0 -124.667 77.667 -218.667 233 -282c158 65.333 237 158.666 237 279.999zM541.999 674.002c-182.667 -72.667 -274 -178 -274 -316c0 -71.333 26.5 -129.833 79.5 -175.5s122.833 -68.5 209.5 -68.5c82.667 0 150.167 22.5 202.5 67.5s78.5 101.833 78.5 170.5
c0 144 -98.667 251.333 -296 322z" />
    <glyph glyph-name="nine" unicode="9" horiz-adv-x="1104" 
d="M172 24l0.000976562 158c80 -45.333 164.667 -68 254 -68c130 0 231.167 52.333 303.5 157s108.5 253.334 108.5 446.001c-1.33301 -0.666992 -2.66602 -0.666992 -3.99902 0c-61.333 -123.333 -168 -185 -320 -185c-122.667 0 -223.334 41.667 -302.001 125
s-118 190.666 -118 321.999c0 140 43.167 254.833 129.5 344.5s196.833 134.5 331.5 134.5c141.333 0 251.5 -55.833 330.5 -167.5s118.5 -274.167 118.5 -487.5c0 -264.667 -51.333 -468.667 -154 -612s-245.334 -215 -428.001 -215c-96 0 -179.333 16 -250 48z
M540.001 1319c-79.333 0 -145.501 -29.833 -198.501 -89.5s-79.5 -135.5 -79.5 -227.5c0 -100.667 26 -179.834 78 -237.501s122.333 -86.5 211 -86.5c77.333 0 142.833 26.333 196.5 79s80.5 117 80.5 193c0 108.667 -26.667 197.334 -80 266.001
s-122.666 103 -207.999 103z" />
    <glyph glyph-name="colon" unicode=":" horiz-adv-x="444" 
d="M223 824c-30.667 0 -56.834 11 -78.501 33s-32.5 48.333 -32.5 79s10.833 56.667 32.5 78s47.834 32 78.501 32c31.333 0 58 -10.667 80 -32s33 -47.333 33 -78s-11 -57 -33 -79s-48.667 -33 -80 -33zM223 -22c-30.667 0 -56.834 11 -78.501 33s-32.5 48.333 -32.5 79
s10.833 57.167 32.5 79.5s47.834 33.5 78.501 33.5c31.333 0 58 -11.167 80 -33.5s33 -48.833 33 -79.5s-11 -57 -33 -79s-48.667 -33 -80 -33z" />
    <glyph glyph-name="semicolon" unicode=";" horiz-adv-x="444" 
d="M226 824c-31.333 0 -57.833 11 -79.5 33s-32.5 48.333 -32.5 79s10.833 56.667 32.5 78s48.167 32 79.5 32c30.667 0 57 -10.667 79 -32s33 -47.333 33 -78s-11 -57 -33 -79s-48.333 -33 -79 -33zM316 228l-160 -492h-117l117 492h160z" />
    <glyph glyph-name="less" unicode="&#x3c;" horiz-adv-x="1401" 
d="M1132 127l-860 432v59l860 482v-150l-642 -356v-4l642 -314v-149z" />
    <glyph glyph-name="equal" unicode="=" horiz-adv-x="1401" 
d="M1172 744h-940v132h940v-132zM1172 318h-940v132h940v-132z" />
    <glyph glyph-name="greater" unicode="&#x3e;" horiz-adv-x="1401" 
d="M1132 559l-860 -432v149l644 312v6l-644 356v150l860 -482v-59z" />
    <glyph glyph-name="question" unicode="?" horiz-adv-x="918" 
d="M335 398c-6 17.333 -11.3359 39.8301 -16.0029 67.4971s-7 55.167 -7 82.5c0 42.667 8.5 81.167 25.5 115.5s38.167 66.5 63.5 96.5s53 58.833 83 86.5s57.667 55.667 83 84s46.5 58 63.5 89s25.5 65.167 25.5 102.5c0 32 -6.16699 60.333 -18.5 85
s-29.166 45.334 -50.499 62.001s-46 29.167 -74 37.5s-57.667 12.5 -89 12.5c-112.667 0 -210.334 -44.333 -293.001 -133v176c102 64 207.667 96 317 96c50.667 0 98.334 -6.66699 143.001 -20s83.834 -33.166 117.501 -59.499s60.167 -59.166 79.5 -98.499s29 -85 29 -137
c0 -49.333 -8.66699 -93.333 -26 -132s-39.166 -74.167 -65.499 -106.5s-54.833 -62.5 -85.5 -90.5s-59.167 -55.833 -85.5 -83.5s-48.166 -56.5 -65.499 -86.5s-26 -63 -26 -99c0 -30.667 3.66699 -58.5 11 -83.5s14.666 -46.167 21.999 -63.5h-161zM424.997 -18.0029
c-29.333 0 -55.333 10.667 -78 32c-22 21.333 -33 47.333 -33 78c0 31.333 11 57.333 33 78c22 22 48 33 78 33s56 -11 78 -33c22 -20.667 33 -46.667 33 -78c0 -30.667 -11 -56.667 -33 -78c-22.667 -21.333 -48.667 -32 -78 -32z" />
    <glyph glyph-name="at" unicode="@" horiz-adv-x="1956" 
d="M1164 420l-5.00098 0.00195312c-48.667 -158.667 -144.334 -238 -287.001 -238c-91.333 0 -164.833 33.667 -220.5 101s-83.5 158 -83.5 272c0 150.667 38.5 275.834 115.5 375.501s178.167 149.5 303.5 149.5c48 0 90.833 -12.333 128.5 -37s61.834 -55.667 72.501 -93
h4c1.33301 18.667 4.66602 57 9.99902 115h125c-31.333 -367.333 -47 -554.333 -47 -561c0 -138 39.667 -207 119 -207c72 0 131.833 39 179.5 117s71.5 179 71.5 303c0 183.333 -58 333 -174 449s-276.667 174 -482 174c-198 0 -361.667 -69.333 -491 -208
s-194 -312 -194 -520c0 -204.667 61.5 -369.834 184.5 -495.501s288.833 -188.5 497.5 -188.5c164.667 0 305.334 27.333 422.001 82v-124c-115.333 -49.333 -259.333 -74 -432 -74c-242.667 0 -438.167 73.167 -586.5 219.5s-222.5 337.833 -222.5 574.5
c0 244 77.833 446.333 233.5 607s354.5 241 596.5 241c226.667 0 414.334 -67.333 563.001 -202s223 -310.334 223 -527.001c0 -158.667 -39.167 -288.834 -117.5 -390.501s-173.833 -152.5 -286.5 -152.5c-146 0 -219.333 79.333 -220 238zM984.999 964.002
c-82.667 0 -149.499 -39.332 -200.499 -117.999s-76.5 -176.334 -76.5 -293.001c0 -78.667 17.167 -140.667 51.5 -186s80.166 -68 137.499 -68c82.667 0 148.167 41.167 196.5 123.5s72.5 191.5 72.5 327.5c0 142.667 -60.333 214 -181 214z" />
    <glyph glyph-name="A" unicode="A" horiz-adv-x="1321" 
d="M1298 0h-186l-152 402h-608l-143 -402h-187l550 1434h174zM905 553l-225 611c-7.33301 20 -14.666 52 -21.999 96h-4c-6.66699 -40.667 -14.334 -72.667 -23.001 -96l-223 -611h497z" />
    <glyph glyph-name="B" unicode="B" horiz-adv-x="1174" 
d="M188 0v1434h408c124 0 222.333 -30.333 295 -91s109 -139.667 109 -237c0 -81.333 -22 -152 -66 -212s-104.667 -102.667 -182 -128v-4c96.667 -11.333 174 -47.833 232 -109.5s87 -141.834 87 -240.501c0 -122.667 -44 -222 -132 -298s-199 -114 -333 -114h-418z
M356 1282v-463h172c92 0 164.333 22.167 217 66.5s79 106.833 79 187.5c0 139.333 -91.667 209 -275 209h-193zM356 668.001v-516h228c98.667 0 175.167 23.333 229.5 70s81.5 110.667 81.5 192c0 169.333 -115.333 254 -346 254h-193z" />
    <glyph glyph-name="C" unicode="C" horiz-adv-x="1268" 
d="M1164 60c-106 -56 -238 -83.9971 -396 -83.9971c-204 0 -367.333 65.667 -490 197s-184 303.666 -184 516.999c0 229.333 69 414.666 207 555.999s313 212 525 212c136 0 248.667 -19.667 338 -59v-179c-102.667 57.333 -216 86 -340 86
c-164.667 0 -298.167 -55 -400.5 -165s-153.5 -257 -153.5 -441c0 -174.667 47.833 -313.834 143.5 -417.501s221.167 -155.5 376.5 -155.5c144 0 268.667 32 374 96v-163z" />
    <glyph glyph-name="D" unicode="D" horiz-adv-x="1436" 
d="M188 0l-0.000976562 1434h396c505.333 0 758 -233 758 -699c0 -221.333 -70.167 -399.166 -210.5 -533.499s-328.166 -201.5 -563.499 -201.5h-380zM355.999 1282v-1130h214c188 0 334.333 50.333 439 151s157 243.334 157 428.001c0 367.333 -195.333 551 -586 551h-224
z" />
    <glyph glyph-name="E" unicode="E" horiz-adv-x="1036" 
d="M948 0h-760v1434h728v-152h-560v-477h518v-151h-518v-502h592v-152z" />
    <glyph glyph-name="F" unicode="F" horiz-adv-x="1000" 
d="M916 1282h-560v-496h518v-151h-518v-635h-168v1434h728v-152z" />
    <glyph glyph-name="G" unicode="G" horiz-adv-x="1405" 
d="M1260 98c-144 -81.333 -303.997 -122 -479.997 -122c-204.667 0 -370.167 66 -496.5 198s-189.5 306.667 -189.5 524c0 222 70.167 404.167 210.5 546.5s318.166 213.5 533.499 213.5c156 0 287 -25.333 393 -76v-186c-116 73.333 -253.333 110 -412 110
c-160.667 0 -292.334 -55.333 -395.001 -166s-154 -254 -154 -430c0 -181.333 47.667 -323.833 143 -427.5s224.666 -155.5 387.999 -155.5c112 0 209 22.333 291 67v402h-314v152h482v-650z" />
    <glyph glyph-name="H" unicode="H" horiz-adv-x="1454" 
d="M1266 0h-168v654h-742v-654h-168v1434h168v-629h742v629h168v-1434z" />
    <glyph glyph-name="I" unicode="I" horiz-adv-x="545" 
d="M496 1434v-144h-140v-1146h140v-144h-448v144h140v1146h-140v144h448z" />
    <glyph glyph-name="J" unicode="J" horiz-adv-x="731" 
d="M555 514c0 -170 -36 -302.167 -108 -396.5s-168.333 -141.5 -289 -141.5c-56 0 -102 8 -138 24v166c36 -26 82.667 -39 140 -39c151.333 0 227 128.333 227 385v922h168v-920z" />
    <glyph glyph-name="K" unicode="K" horiz-adv-x="1188" 
d="M1186 0l-233.999 -0.000976562l-554 656c-20.667 24.667 -33.334 41.334 -38.001 50.001h-4v-706h-168v1434h168v-674h4c9.33301 14.667 22 31 38 49l536 625h209l-615 -688z" />
    <glyph glyph-name="L" unicode="L" horiz-adv-x="964" 
d="M932 0h-744v1434h168v-1282h576v-152z" />
    <glyph glyph-name="M" unicode="M" horiz-adv-x="1839" 
d="M1650 0l-167 -0.000976562v962c0 76 4.66699 169 14 279h-4c-16 -64.667 -30.333 -111 -43 -139l-490 -1102h-82l-489 1094c-14 32 -28.333 81 -43 147h-4c5.33301 -57.333 8 -151 8 -281v-960h-162v1434h222l440 -1000c34 -76.667 56 -134 66 -172h6
c28.667 78.667 51.667 137.334 69 176.001l449 996h210v-1434z" />
    <glyph glyph-name="N" unicode="N" horiz-adv-x="1532" 
d="M1344 0l-206 0.00195312l-738 1143c-18.667 28.667 -34 58.667 -46 90h-6c5.33301 -30.667 8 -96.334 8 -197.001v-1036h-168v1434h218l718 -1125c30 -46.667 49.333 -78.667 58 -96h4c-6.66699 41.333 -10 111.666 -10 210.999v1010h168v-1434z" />
    <glyph glyph-name="O" unicode="O" horiz-adv-x="1544" 
d="M766 -24c-203.333 0 -366.168 66.999 -488.501 200.999s-183.5 308.333 -183.5 523c0 230.667 62.333 414.667 187 552s294.334 206 509.001 206c198 0 357.5 -66.667 478.5 -200s181.5 -307.666 181.5 -522.999c0 -234 -62 -419 -186 -555s-290 -204 -498 -204z
M777.998 1306c-150.667 0 -273 -54.3311 -367 -162.998s-141 -251.334 -141 -428.001s45.833 -318.834 137.5 -426.501s211.167 -161.5 358.5 -161.5c157.333 0 281.333 51.333 372 154s136 246.334 136 431.001c0 189.333 -44 335.666 -132 438.999s-209.333 155 -364 155z
" />
    <glyph glyph-name="P" unicode="P" horiz-adv-x="1147" 
d="M356 542l0.000976562 -542h-168v1434h394c153.333 0 272.166 -37.333 356.499 -112s126.5 -180 126.5 -316s-46.833 -247.333 -140.5 -334s-220.167 -130 -379.5 -130h-189zM356.001 1282v-588h176c116 0 204.5 26.5 265.5 79.5s91.5 127.833 91.5 224.5
c0 189.333 -112 284 -336 284h-197z" />
    <glyph glyph-name="Q" unicode="Q" horiz-adv-x="1544" 
d="M756 -24c-42.667 0 -86.001 4.16699 -130.001 12.5s-86.667 21 -128 38s-80.833 38 -118.5 63s-71.834 54.167 -102.501 87.5c-122 133.333 -183 307.666 -183 522.999c0 231.333 62 415.333 186 552c125.333 137.333 296.666 206 513.999 206
c194.667 0 352.667 -66.667 474 -200s182 -307.666 182 -522.999c0 -90.667 -10.167 -176.167 -30.5 -256.5s-51.166 -152.833 -92.499 -217.5s-93.333 -119.5 -156 -164.5s-136.667 -77.167 -222 -96.5c34.667 -37.333 67.167 -70.333 97.5 -99
s60.666 -52.834 90.999 -72.501s61.833 -34.5 94.5 -44.5s68.667 -15 108 -15c10.667 0 22.334 0.5 35.001 1.5s25.5 2.66699 38.5 5s25.5 5 37.5 8s23 6.5 33 10.5v-162c-10.667 -3.33301 -22.667 -6.16602 -36 -8.49902s-26.833 -4.33301 -40.5 -6s-27.167 -3 -40.5 -4
s-25.666 -1.5 -36.999 -1.5c-64 0 -121.5 9.5 -172.5 28.5s-98.667 45 -143 78s-87.166 71.5 -128.499 115.5zM777.999 1306c-150.667 0 -273 -54.333 -367 -163s-141 -251.334 -141 -428.001c0 -176 45.667 -318.333 137 -427c92 -107.333 211.667 -161 359 -161
c157.333 0 281.333 51.333 372 154s136 246.334 136 431.001c0 190 -44 336.333 -132 439c-88 103.333 -209.333 155 -364 155z" />
    <glyph glyph-name="R" unicode="R" horiz-adv-x="1225" 
d="M1216 0l-199.999 0.00390625l-240 402c-22 37.333 -43.333 69.166 -64 95.499s-41.834 47.833 -63.501 64.5s-45 28.834 -70 36.501s-53.167 11.5 -84.5 11.5h-138v-610h-168v1434h428c62.667 0 120.5 -7.83301 173.5 -23.5s99 -39.5 138 -71.5s69.5 -71.833 91.5 -119.5
s33 -103.5 33 -167.5c0 -50 -7.5 -95.833 -22.5 -137.5s-36.333 -78.834 -64 -111.501s-61 -60.5 -100 -83.5s-82.833 -40.833 -131.5 -53.5v-4c24 -10.667 44.833 -22.834 62.5 -36.501s34.5 -29.834 50.5 -48.501s31.833 -39.834 47.5 -63.501l52.5 -82.5zM356.001 1282
v-520.001h228c42 0 80.833 6.33301 116.5 19s66.5 30.834 92.5 54.501s46.333 52.667 61 87s22 72.833 22 115.5c0 76.667 -24.833 136.5 -74.5 179.5s-121.5 64.5 -215.5 64.5h-230z" />
    <glyph glyph-name="S" unicode="S" horiz-adv-x="1088" 
d="M121 58l-0.000976562 198c22.667 -20 49.834 -38 81.501 -54s65 -29.5 100 -40.5s70.167 -19.5 105.5 -25.5s68 -9 98 -9c103.333 0 180.5 19.167 231.5 57.5s76.5 93.5 76.5 165.5c0 38.667 -8.5 72.334 -25.5 101.001s-40.5 54.834 -70.5 78.501
s-65.5 46.334 -106.5 68.001l-132.5 68.5c-50 25.333 -96.667 51 -140 77s-81 54.667 -113 86s-57.167 66.833 -75.5 106.5s-27.5 86.167 -27.5 139.5c0 65.333 14.333 122.166 43 170.499s66.334 88.166 113.001 119.499s99.834 54.666 159.501 69.999s120.5 23 182.5 23
c141.333 0 244.333 -17 309 -51v-189c-84.667 58.667 -193.334 88 -326.001 88c-36.667 0 -73.334 -3.83301 -110.001 -11.5s-69.334 -20.167 -98.001 -37.5s-52 -39.666 -70 -66.999s-27 -60.666 -27 -99.999c0 -36.667 6.83301 -68.334 20.5 -95.001
s33.834 -51 60.501 -73s59.167 -43.333 97.5 -64s82.5 -43.334 132.5 -68.001c51.333 -25.333 100 -52 146 -80s86.333 -59 121 -93s62.167 -71.667 82.5 -113s30.5 -88.666 30.5 -141.999c0 -70.667 -13.833 -130.5 -41.5 -179.5s-65 -88.833 -112 -119.5
s-101.167 -52.834 -162.5 -66.501s-126 -20.5 -194 -20.5c-22.667 0 -50.667 1.83301 -84 5.5s-67.333 9 -102 16s-67.5 15.667 -98.5 26s-55.833 21.833 -74.5 34.5z" />
    <glyph glyph-name="T" unicode="T" horiz-adv-x="1073" 
d="M1036 1282h-414v-1282h-168v1282h-413v152h995v-152z" />
    <glyph glyph-name="U" unicode="U" horiz-adv-x="1407" 
d="M1237 580c0 -402.667 -181.667 -604 -545 -604c-348 0 -522 193.667 -522 581v877h168v-866c0 -294 124 -441 372 -441c239.333 0 359 142 359 426v881h168v-854z" />
    <glyph glyph-name="V" unicode="V" horiz-adv-x="1272" 
d="M1254 1434l-531.001 -1434h-185l-520 1434h187l397 -1137c12.667 -36.667 22.334 -79 29.001 -127h4c5.33301 40 16.333 83 33 129l405 1135h181z" />
    <glyph glyph-name="W" unicode="W" horiz-adv-x="1913" 
d="M1888 1434l-404.998 -1434h-197l-295 1048c-12.667 44.667 -20.334 93.334 -23.001 146.001h-4c-4 -49.333 -12.667 -97.333 -26 -144l-297 -1050h-195l-420 1434h185l305 -1100c12.667 -46 20.667 -94 24 -144h5c3.33301 35.333 13.666 83.333 30.999 144l317 1100h161
l304 -1108c10.667 -38 18.667 -82.667 24 -134h4c2.66699 34.667 11.667 80.667 27 138l293 1104h182z" />
    <glyph glyph-name="X" unicode="X" horiz-adv-x="1208" 
d="M1178 0l-205 -0.00195312l-330 549c-10 16.667 -21 40.334 -33 71.001h-4c-6.66699 -15.333 -18 -39 -34 -71l-340 -549h-206l480 721l-442 713h206l293 -504c19.333 -33.333 36.333 -66.666 51 -99.999h4c21.333 44 40 78.667 56 104l305 500h193l-451 -711z" />
    <glyph glyph-name="Y" unicode="Y" horiz-adv-x="1132" 
d="M1120 1434l-473.001 -904v-530h-168v526l-461 908h191l321 -648c4 -8 15.667 -37.333 35 -88h3c6.66699 22.667 19.334 52 38.001 88l336 648h178z" />
    <glyph glyph-name="Z" unicode="Z" horiz-adv-x="1168" 
d="M1124 1394l-840 -1242h820v-152h-1071v47l833 1235h-766v152h1024v-40z" />
    <glyph glyph-name="bracketleft" unicode="[" horiz-adv-x="618" 
d="M568 -326h-368v1760h368v-119h-222v-1522h222v-119z" />
    <glyph glyph-name="backslash" unicode="\" horiz-adv-x="776" 
d="M798 -240h-151l-673 1674h155z" />
    <glyph glyph-name="bracketright" unicode="]" horiz-adv-x="618" 
d="M420 -326h-367v119h221v1522h-221v119h367v-1760z" />
    <glyph glyph-name="asciicircum" unicode="^" horiz-adv-x="1401" 
d="M1174 624h-150l-332 619h-6l-309 -619h-147l422 834h65z" />
    <glyph glyph-name="underscore" unicode="_" horiz-adv-x="850" 
d="M850 -297h-850v119h850v-119z" />
    <glyph glyph-name="grave" unicode="`" horiz-adv-x="549" 
d="M471 1218h-127l-262 328h168z" />
    <glyph glyph-name="a" unicode="a" horiz-adv-x="1042" 
d="M899 0l-164.001 0.000976562v160h-4c-71.333 -122.667 -176.333 -184 -315 -184c-102 0 -181.833 27 -239.5 81s-86.5 125.667 -86.5 215c0 191.333 112.667 302.666 338 333.999l307 43c0 174 -70.333 261 -211 261c-123.333 0 -234.666 -42 -333.999 -126v168
c100.667 64 216.667 96 348 96c240.667 0 361 -127.333 361 -382v-666zM734.999 518.001l-247 -34c-76 -10.667 -133.333 -29.5 -172 -56.5s-58 -74.833 -58 -143.5c0 -50 17.833 -90.833 53.5 -122.5s83.167 -47.5 142.5 -47.5c81.333 0 148.5 28.5 201.5 85.5
s79.5 129.167 79.5 216.5v102z" />
    <glyph glyph-name="b" unicode="b" horiz-adv-x="1204" 
d="M334 148h-4v-148h-164v1516h164v-672h4c80.667 136 198.667 204 354 204c131.333 0 234.166 -45.833 308.499 -137.5s111.5 -214.5 111.5 -368.5c0 -171.333 -41.667 -308.5 -125 -411.5s-197.333 -154.5 -342 -154.5c-135.333 0 -237.666 57.333 -306.999 172zM330 561
l0.000976562 -143c0 -84.667 27.5 -156.5 82.5 -215.5s124.833 -88.5 209.5 -88.5c99.333 0 177.166 38 233.499 114s84.5 181.667 84.5 317c0 114 -26.333 203.333 -79 268s-124 97 -214 97c-95.333 0 -172 -33.167 -230 -99.5s-87 -149.5 -87 -249.5z" />
    <glyph glyph-name="c" unicode="c" horiz-adv-x="946" 
d="M864 47c-78.667 -47.333 -172 -71 -280 -71c-146 0 -263.833 47.5 -353.5 142.5s-134.5 218.167 -134.5 369.5c0 168.667 48.333 304.167 145 406.5s225.667 153.5 387 153.5c90 0 169.333 -16.667 238 -50v-168c-76 53.333 -157.333 80 -244 80
c-104.667 0 -190.5 -37.5 -257.5 -112.5s-100.5 -173.5 -100.5 -295.5c0 -120 31.5 -214.667 94.5 -284s147.5 -104 253.5 -104c89.333 0 173.333 29.667 252 89v-156z" />
    <glyph glyph-name="d" unicode="d" horiz-adv-x="1206" 
d="M1040 0h-164v174h-4c-76 -132 -193.333 -198 -352 -198c-128.667 0 -231.5 45.833 -308.5 137.5s-115.5 216.5 -115.5 374.5c0 169.333 42.667 305 128 407s199 153 341 153c140.667 0 243 -55.333 307 -166h4v634h164v-1516zM876 463v150.999
c0 82.667 -27.333 152.667 -82 210s-124 86 -208 86c-100 0 -178.667 -36.667 -236 -110s-86 -174.666 -86 -303.999c0 -118 27.5 -211.167 82.5 -279.5s128.833 -102.5 221.5 -102.5c91.333 0 165.5 33 222.5 99s85.5 149.333 85.5 250z" />
    <glyph glyph-name="e" unicode="e" horiz-adv-x="1071" 
d="M989 471l-723.001 0.000976562c2.66699 -114 33.334 -202 92.001 -264s139.334 -93 242.001 -93c115.333 0 221.333 38 318 114v-154c-90 -65.333 -209 -98 -357 -98c-144.667 0 -258.334 46.5 -341.001 139.5s-124 223.833 -124 392.5
c0 159.333 45.167 289.166 135.5 389.499s202.5 150.5 336.5 150.5s237.667 -43.333 311 -130s110 -207 110 -361v-86zM820.999 610.001c-0.666992 94.667 -23.5 168.332 -68.5 220.999s-107.5 79 -187.5 79c-77.333 0 -143 -27.667 -197 -83
s-87.333 -127.666 -100 -216.999h553z" />
    <glyph glyph-name="f" unicode="f" horiz-adv-x="641" 
d="M672 1372c-32 18 -68.333 27.001 -109 27.001c-114.667 0 -172 -72.333 -172 -217v-158h240v-140h-240v-884h-163v884h-175v140h175v166c0 107.333 31 192.166 93 254.499s139.333 93.5 232 93.5c50 0 89.667 -6 119 -18v-148z" />
    <glyph glyph-name="g" unicode="g" horiz-adv-x="1206" 
d="M1040 82c0 -376 -179.999 -564 -539.999 -564c-126.667 0 -237.334 24 -332.001 72v164c115.333 -64 225.333 -96 330 -96c252 0 378 134 378 402v112h-4c-78 -130.667 -195.333 -196 -352 -196c-127.333 0 -229.833 45.5 -307.5 136.5s-116.5 213.167 -116.5 366.5
c0 174 41.833 312.333 125.5 415s198.167 154 343.5 154c138 0 240.333 -55.333 307 -166h4v142h164v-942zM876.001 463l-0.000976562 151.001c0 81.333 -27.5 151 -82.5 209s-123.5 87 -205.5 87c-101.333 0 -180.666 -36.833 -237.999 -110.5s-86 -176.834 -86 -309.501
c0 -114 27.5 -205.167 82.5 -273.5s127.833 -102.5 218.5 -102.5c92 0 166.833 32.667 224.5 98s86.5 149 86.5 251z" />
    <glyph glyph-name="h" unicode="h" horiz-adv-x="1159" 
d="M1016 0l-164 0.000976562v590c0 213.333 -79.333 320 -238 320c-80 0 -147.333 -30.833 -202 -92.5s-82 -140.834 -82 -237.501v-580h-164v1516h164v-662h4c78.667 129.333 190.667 194 336 194c230.667 0 346 -139 346 -417v-631z" />
    <glyph glyph-name="i" unicode="i" horiz-adv-x="496" 
d="M250 1284c-29.333 0 -54.333 10 -75 30s-31 45.333 -31 76s10.333 56.167 31 76.5s45.667 30.5 75 30.5c30 0 55.5 -10.167 76.5 -30.5s31.5 -45.833 31.5 -76.5c0 -29.333 -10.5 -54.333 -31.5 -75s-46.5 -31 -76.5 -31zM330 0h-164v1024h164v-1024z" />
    <glyph glyph-name="j" unicode="j" horiz-adv-x="496" 
d="M330 43c0 -168 -33.833 -297.5 -101.5 -388.5s-164.5 -136.5 -290.5 -136.5c-46.667 0 -92 10.667 -136 32v153c49.333 -30 96 -45 140 -45c149.333 0 224 119.333 224 358v1008h164v-981zM250 1284c-29.333 0 -54.333 10 -75 30s-31 45.333 -31 76
s10.333 56.167 31 76.5s45.667 30.5 75 30.5c30 0 55.5 -10.167 76.5 -30.5s31.5 -45.833 31.5 -76.5c0 -29.333 -10.5 -54.333 -31.5 -75s-46.5 -31 -76.5 -31z" />
    <glyph glyph-name="k" unicode="k" horiz-adv-x="1018" 
d="M1016 0h-230l-452 492h-4v-492h-164v1516h164v-961h4l430 469h215l-475 -494z" />
    <glyph glyph-name="l" unicode="l" horiz-adv-x="496" 
d="M330 0h-164v1516h164v-1516z" />
    <glyph glyph-name="m" unicode="m" horiz-adv-x="1764" 
d="M1620 0h-164v588c0 113.333 -17.5 195.333 -52.5 246s-93.833 76 -176.5 76c-70 0 -129.5 -32 -178.5 -96s-73.5 -140.667 -73.5 -230v-584h-164v608c0 201.333 -77.667 302 -233 302c-72 0 -131.333 -30.167 -178 -90.5s-70 -138.833 -70 -235.5v-584h-164v1024h164
v-162h4c72.667 124 178.667 186 318 186c70 0 131 -19.5 183 -58.5s87.667 -90.167 107 -153.5c76 141.333 189.333 212 340 212c225.333 0 338 -139 338 -417v-631z" />
    <glyph glyph-name="n" unicode="n" horiz-adv-x="1159" 
d="M1016 0h-164v584c0 217.333 -79.333 326 -238 326c-82 0 -149.833 -30.833 -203.5 -92.5s-80.5 -139.5 -80.5 -233.5v-584h-164v1024h164v-170h4c77.333 129.333 189.333 194 336 194c112 0 197.667 -36.167 257 -108.5s89 -176.833 89 -313.5v-626z" />
    <glyph glyph-name="o" unicode="o" horiz-adv-x="1200" 
d="M594 -24c-151.333 0 -272.169 47.832 -362.502 143.499s-135.5 222.5 -135.5 380.5c0 172 47 306.333 141 403s221 145 381 145c152.667 0 271.834 -47 357.501 -141s128.5 -224.333 128.5 -391c0 -163.333 -46.167 -294.166 -138.5 -392.499
s-216.166 -147.5 -371.499 -147.5zM605.997 909.999c-105.333 0 -188.667 -35.834 -250 -107.501s-92 -170.5 -92 -296.5c0 -121.333 31 -217 93 -287s145 -105 249 -105c106 0 187.5 34.333 244.5 103s85.5 166.334 85.5 293.001c0 128 -28.5 226.667 -85.5 296
s-138.5 104 -244.5 104z" />
    <glyph glyph-name="p" unicode="p" horiz-adv-x="1204" 
d="M334 148h-4v-619h-164v1495h164v-180h4c80.667 136 198.667 204 354 204c132 0 235 -45.833 309 -137.5s111 -214.5 111 -368.5c0 -171.333 -41.667 -308.5 -125 -411.5s-197.333 -154.5 -342 -154.5c-132.667 0 -235 57.333 -307 172zM330 561l0.000976562 -143
c0 -84.667 27.5 -156.5 82.5 -215.5s124.833 -88.5 209.5 -88.5c99.333 0 177.166 38 233.499 114s84.5 181.667 84.5 317c0 114 -26.333 203.333 -79 268s-124 97 -214 97c-95.333 0 -172 -33.167 -230 -99.5s-87 -149.5 -87 -249.5z" />
    <glyph glyph-name="q" unicode="q" horiz-adv-x="1206" 
d="M1040 -471h-163.999v647h-4c-71.333 -133.333 -188 -200 -350 -200c-128.667 0 -231.834 45.833 -309.501 137.5s-116.5 216.5 -116.5 374.5c0 170 42.667 305.833 128 407.5s200 152.5 344 152.5c140 0 241.333 -55.333 304 -166h4v142h164v-1495zM876.001 461
l0.000976562 149c0 84 -27.5 155 -82.5 213s-124.833 87 -209.5 87c-98.667 0 -176.667 -36.5 -234 -109.5s-86 -175.833 -86 -308.5c0 -118 27.667 -210.5 83 -277.5s126.666 -100.5 213.999 -100.5c96 0 172.5 32.833 229.5 98.5s85.5 148.5 85.5 248.5z" />
    <glyph glyph-name="r" unicode="r" horiz-adv-x="712" 
d="M700 858c-28.667 22 -70.001 33 -124.001 33c-70 0 -128.5 -33 -175.5 -99s-70.5 -156 -70.5 -270v-522h-164v1024h164v-211h4c23.333 72 59 128.167 107 168.5s101.667 60.5 161 60.5c42.667 0 75.334 -4.66699 98.001 -14v-170z" />
    <glyph glyph-name="s" unicode="s" horiz-adv-x="869" 
d="M104 37l-0.000976562 176c89.333 -66 187.666 -99 294.999 -99c144 0 216 48 216 144c0 27.333 -6.16699 50.5 -18.5 69.5s-29 35.833 -50 50.5s-45.667 27.834 -74 39.501l-91.5 36.5c-45.333 18 -85.166 36.167 -119.499 54.5s-63 39 -86 62s-40.333 49.167 -52 78.5
s-17.5 63.666 -17.5 102.999c0 48 11 90.5 33 127.5s51.333 68 88 93s78.5 43.833 125.5 56.5s95.5 19 145.5 19c88.667 0 168 -15.333 238 -46v-166c-75.333 49.333 -162 74 -260 74c-30.667 0 -58.334 -3.5 -83.001 -10.5s-45.834 -16.833 -63.501 -29.5
s-31.334 -27.834 -41.001 -45.501s-14.5 -37.167 -14.5 -58.5c0 -26.667 4.83301 -49 14.5 -67s23.834 -34 42.501 -48s41.334 -26.667 68.001 -38l91 -37c45.333 -17.333 86 -35.166 122 -53.499s66.667 -39 92 -62s44.833 -49.5 58.5 -79.5s20.5 -65.667 20.5 -107
c0 -50.667 -11.167 -94.667 -33.5 -132s-52.166 -68.333 -89.499 -93s-80.333 -43 -129 -55s-99.667 -18 -153 -18c-105.333 0 -196.666 20.333 -273.999 61z" />
    <glyph glyph-name="t" unicode="t" horiz-adv-x="694" 
d="M641 10c-38.667 -21.333 -89.667 -32 -153 -32c-179.333 0 -269 100 -269 300v606h-176v140h176v250l164 53v-303h258v-140h-258v-577c0 -68.667 11.667 -117.667 35 -147s62 -44 116 -44c41.333 0 77 11.333 107 34v-140z" />
    <glyph glyph-name="u" unicode="u" horiz-adv-x="1159" 
d="M994 0h-164v162h-4c-68 -124 -173.333 -186 -316 -186c-244 0 -366 145.333 -366 436v612h163v-586c0 -216 82.667 -324 248 -324c80 0 145.833 29.5 197.5 88.5s77.5 136.167 77.5 231.5v590h164v-1024z" />
    <glyph glyph-name="v" unicode="v" horiz-adv-x="981" 
d="M971 1024l-408.001 -1024h-161l-388 1024h180l260 -744c19.333 -54.667 31.333 -102.334 36 -143.001h4c6.66699 51.333 17.334 97.666 32.001 138.999l272 748h173z" />
    <glyph glyph-name="w" unicode="w" horiz-adv-x="1480" 
d="M1456 1024l-307.001 -1024h-170l-211 733c-8 28 -13.333 59.667 -16 95h-4c-2 -24 -9 -55 -21 -93l-229 -735h-164l-310 1024h172l212 -770c6.66699 -23.333 11.334 -54 14.001 -92h8c2 29.333 8 60.666 18 93.999l236 768h150l212 -772
c6.66699 -24.667 11.667 -55.334 15 -92.001h8c1.33301 26 7 56.667 17 92l208 772h162z" />
    <glyph glyph-name="x" unicode="x" horiz-adv-x="940" 
d="M914 1024l-344 -518l338 -506h-191l-201 332c-12.667 20.667 -27.667 46.667 -45 78h-4c-3.33301 -6 -19 -32 -47 -78l-205 -332h-189l349 502l-334 522h191l198 -350l43 -80h4l256 430h181z" />
    <glyph glyph-name="y" unicode="y" horiz-adv-x="991" 
d="M981 1024l-470.998 -1188c-84 -212 -202 -318 -354 -318c-42.667 0 -78.334 4.33301 -107.001 13v147c35.333 -12 67.666 -18 96.999 -18c82.667 0 144.667 49.333 186 148l82 194l-400 1022h182l277 -788c3.33301 -10 10.333 -36 21 -78h6c3.33301 16 10 41.333 20 76
l291 790h170z" />
    <glyph glyph-name="z" unicode="z" horiz-adv-x="926" 
d="M880 977l-606 -837h600v-140h-841v51l606 833h-549v140h790v-47z" />
    <glyph glyph-name="braceleft" unicode="{" horiz-adv-x="618" 
d="M555 -326c-204.667 2.66699 -307.001 105.998 -307.001 309.998v300c0 134.667 -52 205.334 -156 212.001v116c104 6.66699 156 78.667 156 216v292c0 206.667 102.333 311.334 307 314.001v-128c-106 -2.66699 -159 -68.667 -159 -198v-293c0 -140 -50 -226 -150 -258
v-4c100 -30 150 -115.333 150 -256v-289c0 -74 11.833 -126.833 35.5 -158.5s64.834 -48.167 123.501 -49.5v-126z" />
    <glyph glyph-name="bar" unicode="|" horiz-adv-x="490" 
d="M320 -482h-148v2048h148v-2048z" />
    <glyph glyph-name="braceright" unicode="}" horiz-adv-x="618" 
d="M528 496c-104 -6.66699 -156 -77.332 -156 -211.999v-300c0 -204 -102 -307.333 -306 -310v126c58 1.33301 99.167 18 123.5 50s36.5 84.667 36.5 158v289c0 140.667 49.667 226 149 256v4c-99.333 32 -149 118 -149 258v293c0 129.333 -53.333 195.333 -160 198v128
c204 -2.66699 306 -107.334 306 -314.001v-292c0 -137.333 52 -209.333 156 -216v-116z" />
    <glyph glyph-name="asciitilde" unicode="~" horiz-adv-x="1401" 
d="M1194 750c-4.66699 -98.667 -31.502 -175 -80.502 -229s-115.5 -81 -199.5 -81c-72.667 0 -161 36.333 -265 109c-64.667 44.667 -117.667 67 -159 67c-93.333 0 -142 -58.667 -146 -176h-135c3.33301 95.333 29.833 170.833 79.5 226.5s116.834 83.5 201.501 83.5
c70.667 0 149 -29.333 235 -88c88 -60 153.667 -90 197 -90c40.667 0 73.334 16.333 98.001 49s37.667 75.667 39 129h135z" />
    <glyph glyph-name="nonbreakingspace" unicode="&#xa0;" horiz-adv-x="561" 
 />
    <glyph glyph-name="exclamdown" unicode="&#xa1;" horiz-adv-x="582" 
d="M291 826c-30.667 0 -56.834 10.667 -78.501 32s-32.5 47.333 -32.5 78s10.833 56.667 32.5 78s47.834 32 78.501 32c30 0 56 -10.667 78 -32s33 -47.333 33 -78s-11 -56.667 -33 -78s-48 -32 -78 -32zM379 -406h-172l19 1030h134z" />
    <glyph glyph-name="cent" unicode="&#xa2;" horiz-adv-x="1104" 
d="M952 209c-64 -39.333 -137.667 -62.334 -221 -69.001v-189h-125v191c-128.667 14.667 -231.167 68.334 -307.5 161.001s-114.5 208 -114.5 346c0 146 38.167 268.167 114.5 366.5s178.833 159.833 307.5 184.5v213h125v-203c82 -1.33301 155.667 -18.333 221 -51v-172
c-67.333 47.333 -141 73.333 -221 78v-785c81.333 8 155 36.667 221 86v-157zM606 290.999v761c-79.333 -20.667 -141.5 -65.167 -186.5 -133.5s-67.5 -152.5 -67.5 -252.5s22.667 -183 68 -249s107.333 -108 186 -126z" />
    <glyph glyph-name="sterling" unicode="&#xa3;" horiz-adv-x="1104" 
d="M1006 0h-900v135c145.333 46 218 150.333 218 313v187h-197v141h197v254c0 125.333 36.333 228 109 308s166.667 120 282 120c78 0 149 -13.667 213 -41v-155c-66.667 38 -137 57 -211 57c-152.667 0 -229 -102.333 -229 -307v-236h296v-141h-296v-156
c0 -161.333 -64.333 -274.333 -193 -339h711v-140z" />
    <glyph glyph-name="currency" unicode="&#xa4;" horiz-adv-x="1138" 
d="M1038 354l-92 -96l-137 138c-70 -50.667 -149.667 -76 -239 -76c-90.667 0 -170.667 25.333 -240 76l-138 -138l-92 96l138 134c-50.667 75.333 -76 154.333 -76 237c0 86 25.333 165 76 237l-138 136l92 96l138 -137c73.333 51.333 153.333 77 240 77
c86 0 165 -25.667 237 -77l139 137l92 -96l-137 -136c52 -74.667 78 -153.667 78 -237c0 -80.667 -26 -159.667 -78 -237zM570 1002c-77.333 0 -142.5 -27 -195.5 -81s-79.5 -118.667 -79.5 -194s26.833 -140 80.5 -194s118.5 -81 194.5 -81c75.333 0 140.166 27 194.499 81
s81.5 118.667 81.5 194s-27.667 140 -83 194s-119.666 81 -192.999 81z" />
    <glyph glyph-name="yen" unicode="&#xa5;" horiz-adv-x="1104" 
d="M1042 1434l-356.001 -656h285v-139h-334v-207h334v-139h-334v-293h-164v293h-344v139h344v207h-344v139h291l-352 656h192l250 -514c18.667 -38.667 34.334 -75.667 47.001 -111h4c8.66699 28 25 67 49 117l252 508h180z" />
    <glyph glyph-name="brokenbar" unicode="&#xa6;" horiz-adv-x="490" 
d="M320 715h-148v851h148v-851zM320 -482h-148v852h148v-852z" />
    <glyph glyph-name="section" unicode="&#xa7;" horiz-adv-x="918" 
d="M658 416c60 -49.333 90 -111.331 90 -185.998c0 -88 -33.333 -159.333 -100 -214s-151.667 -82 -255 -82c-87.333 0 -167 18.667 -239 56v158c86.667 -49.333 170 -74 250 -74c56 0 99.333 13.167 130 39.5s46 59.5 46 99.5c0 35.333 -11.833 65.166 -35.5 89.499
s-83.834 62.166 -180.501 113.499c-155.333 81.333 -233 187 -233 317c0 108.667 49 190 147 244c-70.667 55.333 -106 129.666 -106 222.999c0 84.667 31.167 154.334 93.5 209.001s144.5 82 246.5 82c86.667 0 159.667 -14.333 219 -43v-158
c-67.333 41.333 -141.666 62 -222.999 62c-112 0 -168 -48 -168 -144c0 -36.667 13.5 -70 40.5 -100s94.833 -71 203.5 -123c148.667 -71.333 223 -169 223 -293c0 -113.333 -49.667 -205.333 -149 -276zM398 905.002c-67.333 -34 -101 -87 -101 -159
c0 -48 18.833 -90.167 56.5 -126.5s103.5 -75.5 197.5 -117.5c58.667 45.333 88 102.666 88 171.999c0 48 -17.5 88.833 -52.5 122.5s-97.833 69.834 -188.5 108.501z" />
    <glyph glyph-name="dieresis" unicode="&#xa8;" horiz-adv-x="848" 
d="M610 1218c-26.667 0 -49.668 9.33105 -69.001 27.998s-29 42.334 -29 71.001c0 28 9.33301 51.333 28 70s41.334 28 68.001 28c28 0 51.667 -9.5 71 -28.5s29 -42.167 29 -69.5s-9.33301 -50.666 -28 -69.999s-42 -29 -70 -29zM225.999 1218
c-28 0 -51.833 9.83105 -71.5 29.498s-29.5 42.834 -29.5 69.501c0 28 9.5 51.333 28.5 70s42.167 28 69.5 28s51 -9.5 71 -28.5s30 -42.167 30 -69.5s-9.66699 -50.666 -29 -69.999s-42.333 -29 -69 -29z" />
    <glyph glyph-name="copyright" unicode="&#xa9;" horiz-adv-x="1823" 
d="M912 -33c-207.333 0 -384.166 73.167 -530.499 219.5s-219.5 323.166 -219.5 530.499s73.167 384.166 219.5 530.499s323.166 219.5 530.499 219.5c206.667 0 383.167 -73.167 529.5 -219.5s219.5 -323.166 219.5 -530.499s-73.167 -384.166 -219.5 -530.499
s-322.833 -219.5 -529.5 -219.5zM912 1379c-182.667 0 -338.667 -64.667 -468 -194s-194 -285.333 -194 -468s64.667 -338.5 194 -467.5s285.333 -193.5 468 -193.5s338.5 64.5 467.5 193.5s193.5 284.833 193.5 467.5s-64.5 338.667 -193.5 468s-284.833 194 -467.5 194z
M1213 266c-76 -46 -165.666 -68.999 -268.999 -68.999c-139.333 0 -256 47.167 -350 141.5s-141 212.166 -141 353.499c0 164.667 48.167 296 144.5 394s221.5 147 375.5 147c88 0 166.667 -17.667 236 -53v-150c-63.333 48 -148 72 -254 72
c-104 0 -189.833 -35.5 -257.5 -106.5s-101.5 -166.5 -101.5 -286.5c0 -116 34.5 -209.167 103.5 -279.5s156.833 -105.5 263.5 -105.5c97.333 0 180.666 26 249.999 78v-136z" />
    <glyph glyph-name="ordfeminine" unicode="&#xaa;" horiz-adv-x="803" 
d="M688 717h-128.999v100h-4c-52.667 -79.333 -129.667 -119 -231 -119c-72.667 0 -131.167 19.833 -175.5 59.5s-66.5 90.5 -66.5 152.5c0 134.667 82.667 213 248 235l229 31c0 112 -50.333 168 -151 168c-90.667 0 -175.334 -28.667 -254.001 -86v128
c74 46.667 162.667 70 266 70c84 0 149.667 -24 197 -72s71 -115.333 71 -202v-465zM559.001 1075l-180.002 -25.001c-112 -15.333 -168 -60 -168 -134c0 -34 12.833 -61.667 38.5 -83s59.834 -32 102.501 -32c54.667 0 102.834 20.333 144.501 61s62.5 89.334 62.5 146.001
v67z" />
    <glyph glyph-name="guillemotleft" unicode="&#xab;" horiz-adv-x="1036" 
d="M946 200h-168l-299 336l299 344h170l-307 -344zM557 200h-166l-299 336l299 344h166l-303 -344z" />
    <glyph glyph-name="logicalnot" unicode="&#xac;" horiz-adv-x="1401" 
d="M1172 254h-132v430h-808v133h940v-563z" />
    <glyph glyph-name="sfthyphen" unicode="&#xad;" horiz-adv-x="819" 
d="M690 506h-546v129h546v-129z" />
    <glyph glyph-name="registered" unicode="&#xae;" horiz-adv-x="1823" 
d="M912 -33c-207.333 0 -384.166 73.167 -530.499 219.5s-219.5 323.166 -219.5 530.499s73.167 384.166 219.5 530.499s323.166 219.5 530.499 219.5c206.667 0 383.167 -73.167 529.5 -219.5s219.5 -323.166 219.5 -530.499s-73.167 -384.166 -219.5 -530.499
s-322.833 -219.5 -529.5 -219.5zM912 1379c-182.667 0 -338.667 -64.667 -468 -194s-194 -285.333 -194 -468s64.667 -338.5 194 -467.5s285.333 -193.5 468 -193.5s338.5 64.5 467.5 193.5s193.5 284.833 193.5 467.5s-64.5 338.667 -193.5 468s-284.833 194 -467.5 194z
M1276 248h-161.998l-104 229c-52.667 114.667 -109.334 172 -170.001 172h-88v-401h-133v954h268c111.333 0 197.166 -23.333 257.499 -70s90.5 -110 90.5 -190c0 -65.333 -21.167 -121 -63.5 -167s-101.5 -77 -177.5 -93v-4c52.667 -11.333 105 -70 157 -176zM752.002 1088
v-326.001h143c131.333 0 197 54.667 197 164c0 58.667 -17.667 100.334 -53 125.001s-91.333 37 -168 37h-119z" />
    <glyph glyph-name="uni00AF" unicode="&#xaf;" horiz-adv-x="850" 
d="M850 1396h-850v120h850v-120z" />
    <glyph glyph-name="degree" unicode="&#xb0;" horiz-adv-x="772" 
d="M385 897c-76.667 0 -141.999 27.167 -195.999 81.5s-81 120.166 -81 197.499c0 76.667 26.667 141.5 80 194.5s118.333 79.5 195 79.5c77.333 0 143.166 -26.667 197.499 -80s81.5 -118 81.5 -194c0 -77.333 -27 -143.166 -81 -197.499s-119.333 -81.5 -196 -81.5z
M385.001 1333c-43.333 0 -80.332 -15.332 -110.999 -45.999s-46 -67.667 -46 -111c0 -44.667 15 -82.834 45 -114.501s66.667 -47.5 110 -47.5s80.666 16 111.999 48s47 70 47 114s-15.333 81.167 -46 111.5s-67.667 45.5 -111 45.5z" />
    <glyph glyph-name="plusminus" unicode="&#xb1;" horiz-adv-x="1401" 
d="M1172 652h-404v-404h-131v404h-405v132h405v404h131v-404h404v-132zM1172 0h-940v133h940v-133z" />
    <glyph glyph-name="twosuperior" unicode="&#xb2;" horiz-adv-x="750" 
d="M658 884h-554.001v114l240 236c69.333 68 113.333 120.167 132 156.5s28 72.833 28 109.5c0 38.667 -12.667 70.167 -38 94.5s-58.666 36.5 -99.999 36.5c-78.667 0 -150.667 -34 -216 -102v149c56 50.667 134.333 76 235 76c78.667 0 141 -22 187 -66s69 -102 69 -174
c0 -102 -68.333 -218 -205 -348l-164 -156v-4h386v-122z" />
    <glyph glyph-name="threesuperior" unicode="&#xb3;" horiz-adv-x="750" 
d="M129 916l0.000976562 142c68.667 -50.667 141 -76 217 -76c53.333 0 95.333 12.5 126 37.5s46 58.833 46 101.5c0 94 -73 141 -219 141h-84v118h80c131.333 0 197 44.667 197 134c0 79.333 -48 119 -144 119c-62.667 0 -124.667 -23 -186 -69v139c58 34 129 51 213 51
c75.333 0 135.333 -19.833 180 -59.5s67 -91.5 67 -155.5c0 -100.667 -48.333 -169 -145 -205v-4c118 -28 177 -95.333 177 -202c0 -78 -28.333 -141.667 -85 -191s-132.334 -74 -227.001 -74c-91.333 0 -162.333 17.667 -213 53z" />
    <glyph glyph-name="acute" unicode="&#xb4;" horiz-adv-x="578" 
d="M524 1546l-262 -328h-127l223 328h166z" />
    <glyph glyph-name="mu1" unicode="&#xb5;" horiz-adv-x="1182" 
d="M1048 0l-170.001 -0.000976562c-15.333 48 -23 104 -23 168h-5c-56 -127.333 -149 -191 -279 -191c-111.333 0 -190.666 41 -237.999 123h-4v-496h-163v1420h163v-626c0 -84.667 23 -152 69 -202s106 -75 180 -75c80.667 0 146.167 28.667 196.5 86
s75.5 134.333 75.5 231v586h166v-759c0 -125.333 10.667 -213.666 32 -264.999z" />
    <glyph glyph-name="paragraph" unicode="&#xb6;" horiz-adv-x="938" 
d="M834 1331l-128 -0.000976562v-1331h-106v1331h-158v-1331h-108v903c-72 0 -131.667 25.333 -179 76s-71 114.334 -71 191.001c0 78 24.833 141.5 74.5 190.5s110.167 73.5 181.5 73.5h494v-103z" />
    <glyph glyph-name="periodcentered" unicode="&#xb7;" horiz-adv-x="444" 
d="M223 510c-30.667 0 -56.834 11 -78.501 33s-32.5 48.333 -32.5 79c0 31.333 10.833 58 32.5 80s47.834 33 78.501 33c31.333 0 58 -11 80 -33s33 -48.667 33 -80c0 -30.667 -11 -57 -33 -79s-48.667 -33 -80 -33z" />
    <glyph glyph-name="cedilla" unicode="&#xb8;" horiz-adv-x="420" 
d="M391 -256c0 -117.333 -91.666 -176 -274.999 -176c-25.333 0 -47 0.666992 -65 2v90c28.667 -4 52 -6 70 -6c94 0 141 30 141 90c0 52 -43 78 -129 78c-6.66699 0 -20.334 -1.33301 -41.001 -4v182h108v-104c58.667 0 105.167 -13.333 139.5 -40s51.5 -64 51.5 -112z" />
    <glyph glyph-name="onesuperior" unicode="&#xb9;" horiz-adv-x="719" 
d="M639 884h-504v112h185v594l-193 -55v125l323 96v-760h189v-112z" />
    <glyph glyph-name="ordmasculine" unicode="&#xba;" horiz-adv-x="882" 
d="M436 696c-111.333 0 -198.834 33.5 -262.501 100.5s-95.5 157.833 -95.5 272.5c0 120.667 34.167 215 102.5 283s158.833 102 271.5 102c108.667 0 194.334 -33.167 257.001 -99.5s94 -156.5 94 -270.5c0 -118.667 -33.167 -213 -99.5 -283s-155.5 -105 -267.5 -105z
M443.999 1344c-70.667 0 -126.833 -23.999 -168.5 -71.999s-62.5 -114.333 -62.5 -199c0 -82.667 19.833 -147.334 59.5 -194.001s96.167 -70 169.5 -70c70 0 125.5 23.833 166.5 71.5s61.5 112.5 61.5 194.5c0 84 -20.167 149.833 -60.5 197.5s-95.5 71.5 -165.5 71.5z" />
    <glyph glyph-name="guillemotright" unicode="&#xbb;" horiz-adv-x="1036" 
d="M948 538l-301 -338h-165l302 338l-302 342h165zM559 538l-299 -338h-170l308 338l-308 342h170z" />
    <glyph glyph-name="onequarter" unicode="&#xbc;" horiz-adv-x="1856" 
d="M639 584h-504v112h185v594l-193 -55v125l323 96v-760h189v-112zM1393 1434l-858 -1434h-144l859 1434h143zM1706 204h-110v-204h-132v204h-393v92l369 554h156v-537h110v-109zM1468 724l-4 0.000976562c-8 -20.667 -20.667 -45 -38 -73l-218 -338h256v323
c0 21.333 1.33301 50.666 4 87.999z" />
    <glyph glyph-name="onehalf" unicode="&#xbd;" horiz-adv-x="1906" 
d="M639 584h-504v112h185v594l-193 -55v125l323 96v-760h189v-112zM1393 1434l-858 -1434h-144l859 1434h143zM1748 1h-554.001v114l240 236c69.333 68 113.333 120.167 132 156.5s28 72.833 28 109.5c0 38.667 -12.667 70.167 -38 94.5s-58.666 36.5 -99.999 36.5
c-78.667 0 -150.667 -34 -216 -102v149c56 50.667 134.333 76 235 76c78.667 0 141 -22 187 -66s69 -102 69 -174c0 -102 -68.333 -218 -205 -348l-164 -156v-4h386v-122z" />
    <glyph glyph-name="threequarters" unicode="&#xbe;" horiz-adv-x="1950" 
d="M129 616l0.000976562 142c68.667 -50.667 141 -76 217 -76c53.333 0 95.333 12.5 126 37.5s46 58.833 46 101.5c0 94 -73 141 -219 141h-84v118h80c131.333 0 197 44.667 197 134c0 79.333 -48 119 -144 119c-62.667 0 -124.667 -23 -186 -69v139c58 34 129 51 213 51
c75.333 0 135.333 -19.833 180 -59.5s67 -91.5 67 -155.5c0 -100.667 -48.333 -169 -145 -205v-4c118 -28 177 -95.333 177 -202c0 -78 -28.333 -141.667 -85 -191s-132.334 -74 -227.001 -74c-91.333 0 -162.333 17.667 -213 53zM1464 1434l-858 -1434h-144l859 1434h143z
M1771 204h-110v-204h-132v204h-393v92l369 554h156v-537h110v-109zM1533 724l-4 0.000976562c-8 -20.667 -20.667 -45 -38 -73l-218 -338h256v323c0 21.333 1.33301 50.666 4 87.999z" />
    <glyph glyph-name="questiondown" unicode="&#xbf;" horiz-adv-x="918" 
d="M625 630c6 -17.333 11.335 -39.8301 16.002 -67.4971s7 -55.167 7 -82.5c0 -42.667 -8.5 -81.167 -25.5 -115.5s-38.167 -66.5 -63.5 -96.5s-53 -58.833 -83 -86.5s-57.667 -55.667 -83 -84s-46.5 -58 -63.5 -89s-25.5 -65.167 -25.5 -102.5
c0 -32 6.16699 -60.333 18.5 -85s29.166 -45.334 50.499 -62.001s46 -29.167 74 -37.5s57.667 -12.5 89 -12.5c112.667 0 210.334 44.333 293.001 133v-176c-102 -64 -207.667 -96 -317 -96c-50.667 0 -98.334 6.66699 -143.001 20s-83.667 33.166 -117 59.499
s-59.833 59.166 -79.5 98.499s-29.5 85 -29.5 137c0 49.333 8.66699 93.333 26 132s39.166 74.167 65.499 106.5s54.833 62.5 85.5 90.5s59.167 55.833 85.5 83.5s48.166 56.5 65.499 86.5s26 63 26 99c0 30.667 -3.66699 58.5 -11 83.5s-14.666 46.167 -21.999 63.5h161z
M535.002 1046c29.333 0 55.333 -10.667 78 -32c22 -20.667 33 -46.667 33 -78c0 -30.667 -11 -56.667 -33 -78c-22 -22 -48 -33 -78 -33s-56 11 -78 33c-22 21.333 -33 47.333 -33 78c0 31.333 11 57.333 33 78c22.667 21.333 48.667 32 78 32z" />
    <glyph glyph-name="Agrave" unicode="&#xc0;" horiz-adv-x="1321" 
d="M1298 0h-186l-152 402h-608l-143 -402h-187l550 1434h174zM905 553l-225 611c-7.33301 20 -14.666 52 -21.999 96h-4c-6.66699 -40.667 -14.334 -72.667 -23.001 -96l-223 -611h497zM758 1566h-127l-262 328h168z" />
    <glyph glyph-name="Aacute" unicode="&#xc1;" horiz-adv-x="1321" 
d="M1298 0h-186l-152 402h-608l-143 -402h-187l550 1434h174zM905 553l-225 611c-7.33301 20 -14.666 52 -21.999 96h-4c-6.66699 -40.667 -14.334 -72.667 -23.001 -96l-223 -611h497zM867 1894l-262 -328h-127l223 328h166z" />
    <glyph glyph-name="Acircumflex" unicode="&#xc2;" horiz-adv-x="1321" 
d="M1298 0h-186l-152 402h-608l-143 -402h-187l550 1434h174zM905 553l-225 611c-7.33301 20 -14.666 52 -21.999 96h-4c-6.66699 -40.667 -14.334 -72.667 -23.001 -96l-223 -611h497zM927 1565h-122l-164 230l-165 -230h-113l215 332h133z" />
    <glyph glyph-name="Atilde" unicode="&#xc3;" horiz-adv-x="1321" 
d="M1298 0h-186l-152 402h-608l-143 -402h-187l550 1434h174zM905 553l-225 611c-7.33301 20 -14.666 52 -21.999 96h-4c-6.66699 -40.667 -14.334 -72.667 -23.001 -96l-223 -611h497zM977 1803c0 -70 -16 -127.167 -48 -171.5s-75.333 -66.5 -130 -66.5
c-47.333 0 -101.333 17.333 -162 52c-51.333 28.667 -91 43 -119 43c-58.667 0 -88 -37.667 -88 -113h-94c0 71.333 16 128.5 48 171.5s76.667 64.5 134 64.5c43.333 0 93 -17.333 149 -52c49.333 -29.333 92 -44 128 -44c56 0 84 38.667 84 116h98z" />
    <glyph glyph-name="Adieresis" unicode="&#xc4;" horiz-adv-x="1321" 
d="M1298 0h-186l-152 402h-608l-143 -402h-187l550 1434h174zM905 553l-225 611c-7.33301 20 -14.666 52 -21.999 96h-4c-6.66699 -40.667 -14.334 -72.667 -23.001 -96l-223 -611h497zM840 1565c-26.667 0 -49.668 9.33105 -69.001 27.998s-29 42.334 -29 71.001
c0 28 9.33301 51.333 28 70s41.334 28 68.001 28c28 0 51.667 -9.5 71 -28.5s29 -42.167 29 -69.5s-9.33301 -50.666 -28 -69.999s-42 -29 -70 -29zM455.999 1565c-28 0 -51.833 9.83105 -71.5 29.498s-29.5 42.834 -29.5 69.501c0 28 9.5 51.333 28.5 70s42.167 28 69.5 28
s51 -9.5 71 -28.5s30 -42.167 30 -69.5s-9.66699 -50.666 -29 -69.999s-42.333 -29 -69 -29z" />
    <glyph glyph-name="Aring" unicode="&#xc5;" horiz-adv-x="1321" 
d="M1298 0l-186 -0.000976562l-152 402h-608l-143 -402h-187l529 1378c-67.333 34.667 -101 89.334 -101 164.001c0 59.333 20 107.333 60 144s90.667 55 152 55c58.667 0 106.667 -18.167 144 -54.5s56 -82.5 56 -138.5c0 -74.667 -32 -130 -96 -166zM656 1659
c-33.333 0 -60.667 -10.501 -82 -31.501s-32 -47.5 -32 -79.5c0 -76 38 -114 114 -114c32 0 59 11 81 33s33 49 33 81c0 32.667 -11 59.334 -33 80.001s-49 31 -81 31zM904.999 552.998l-225 611c-7.33301 20 -14.666 52 -21.999 96h-4
c-6.66699 -40.667 -14.334 -72.667 -23.001 -96l-223 -611h497z" />
    <glyph glyph-name="AE" unicode="&#xc6;" horiz-adv-x="1762" 
d="M1667 0h-759v402h-510l-193 -402h-195l700 1434h924v-152h-559v-477h519v-151h-519v-502h592v-152zM908 553v729h-95l-346 -729h441z" />
    <glyph glyph-name="Ccedilla" unicode="&#xc7;" horiz-adv-x="1268" 
d="M1164 60c-106 -56 -238 -83.9971 -396 -83.9971c-204 0 -367.333 65.667 -490 197s-184 303.666 -184 516.999c0 229.333 69 414.666 207 555.999s313 212 525 212c136 0 248.667 -19.667 338 -59v-179c-102.667 57.333 -216 86 -340 86
c-164.667 0 -298.167 -55 -400.5 -165s-153.5 -257 -153.5 -441c0 -174.667 47.833 -313.834 143.5 -417.501s221.167 -155.5 376.5 -155.5c144 0 268.667 32 374 96v-163zM960 -255.997c0 -117.333 -91.666 -176 -274.999 -176c-25.333 0 -47 0.666992 -65 2v90
c28.667 -4 52 -6 70 -6c94 0 141 30 141 90c0 52 -43 78 -129 78c-6.66699 0 -20.334 -1.33301 -41.001 -4v182h108v-104c58.667 0 105.167 -13.333 139.5 -40s51.5 -64 51.5 -112z" />
    <glyph glyph-name="Egrave" unicode="&#xc8;" horiz-adv-x="1036" 
d="M948 0h-760v1434h728v-152h-560v-477h518v-151h-518v-502h592v-152zM703 1566h-127l-262 328h168z" />
    <glyph glyph-name="Eacute" unicode="&#xc9;" horiz-adv-x="1036" 
d="M948 0h-760v1434h728v-152h-560v-477h518v-151h-518v-502h592v-152zM803 1893l-262 -328h-127l223 328h166z" />
    <glyph glyph-name="Ecircumflex" unicode="&#xca;" horiz-adv-x="1036" 
d="M948 0h-760v1434h728v-152h-560v-477h518v-151h-518v-502h592v-152zM827 1567h-122l-164 230l-165 -230h-113l215 332h133z" />
    <glyph glyph-name="Edieresis" unicode="&#xcb;" horiz-adv-x="1036" 
d="M948 0h-760v1434h728v-152h-560v-477h518v-151h-518v-502h592v-152zM749 1566c-26.667 0 -49.668 9.33105 -69.001 27.998s-29 42.334 -29 71.001c0 28 9.33301 51.333 28 70s41.334 28 68.001 28c28 0 51.667 -9.5 71 -28.5s29 -42.167 29 -69.5
s-9.33301 -50.666 -28 -69.999s-42 -29 -70 -29zM364.999 1566c-28 0 -51.833 9.83105 -71.5 29.498s-29.5 42.834 -29.5 69.501c0 28 9.5 51.333 28.5 70s42.167 28 69.5 28s51 -9.5 71 -28.5s30 -42.167 30 -69.5s-9.66699 -50.666 -29 -69.999s-42.333 -29 -69 -29z" />
    <glyph glyph-name="Igrave" unicode="&#xcc;" horiz-adv-x="545" 
d="M496 1434v-144h-140v-1146h140v-144h-448v144h140v1146h-140v144h448zM416 1566h-127l-262 328h168z" />
    <glyph glyph-name="Iacute" unicode="&#xcd;" horiz-adv-x="545" 
d="M496 1434v-144h-140v-1146h140v-144h-448v144h140v1146h-140v144h448zM509 1894l-262 -328h-127l223 328h166z" />
    <glyph glyph-name="Icircumflex" unicode="&#xce;" horiz-adv-x="545" 
d="M496 1434v-144h-140v-1146h140v-144h-448v144h140v1146h-140v144h448zM560 1567h-122l-164 230l-165 -230h-113l215 332h133z" />
    <glyph glyph-name="Idieresis" unicode="&#xcf;" horiz-adv-x="545" 
d="M496 1434v-144h-140v-1146h140v-144h-448v144h140v1146h-140v144h448zM470 1566c-26.667 0 -49.668 9.33105 -69.001 27.998s-29 42.334 -29 71.001c0 28 9.33301 51.333 28 70s41.334 28 68.001 28c28 0 51.667 -9.5 71 -28.5s29 -42.167 29 -69.5
s-9.33301 -50.666 -28 -69.999s-42 -29 -70 -29zM85.999 1566c-28 0 -51.833 9.83105 -71.5 29.498s-29.5 42.834 -29.5 69.501c0 28 9.5 51.333 28.5 70s42.167 28 69.5 28s51 -9.5 71 -28.5s30 -42.167 30 -69.5s-9.66699 -50.666 -29 -69.999s-42.333 -29 -69 -29z" />
    <glyph glyph-name="Eth" unicode="&#xd0;" horiz-adv-x="1436" 
d="M188 0l-0.000976562 641.001h-160v155h160v638h396c505.333 0 758 -233 758 -699c0 -222.667 -70.167 -400.834 -210.5 -534.501s-328.166 -200.5 -563.499 -200.5h-380zM355.999 1282v-486.001h336v-155h-336v-489h214c188 0 334.333 50.333 439 151
s157 243.334 157 428.001c0 367.333 -195.333 551 -586 551h-224z" />
    <glyph glyph-name="Ntilde" unicode="&#xd1;" horiz-adv-x="1532" 
d="M1344 0l-206 0.00195312l-738 1143c-18.667 28.667 -34 58.667 -46 90h-6c5.33301 -30.667 8 -96.334 8 -197.001v-1036h-168v1434h218l718 -1125c30 -46.667 49.333 -78.667 58 -96h4c-6.66699 41.333 -10 111.666 -10 210.999v1010h168v-1434zM1113 1803
c0 -70 -16 -127.167 -48 -171.5s-75.333 -66.5 -130 -66.5c-47.333 0 -101.333 17.333 -162 52c-51.333 28.667 -91 43 -119 43c-58.667 0 -88 -37.667 -88 -113h-94c0 71.333 16 128.5 48 171.5s76.667 64.5 134 64.5c43.333 0 93 -17.333 149 -52
c49.333 -29.333 92 -44 128 -44c56 0 84 38.667 84 116h98z" />
    <glyph glyph-name="Ograve" unicode="&#xd2;" horiz-adv-x="1544" 
d="M766 -24c-203.333 0 -366.168 66.999 -488.501 200.999s-183.5 308.333 -183.5 523c0 230.667 62.333 414.667 187 552s294.334 206 509.001 206c198 0 357.5 -66.667 478.5 -200s181.5 -307.666 181.5 -522.999c0 -234 -62 -419 -186 -555s-290 -204 -498 -204z
M777.998 1306c-150.667 0 -273 -54.3311 -367 -162.998s-141 -251.334 -141 -428.001s45.833 -318.834 137.5 -426.501s211.167 -161.5 358.5 -161.5c157.333 0 281.333 51.333 372 154s136 246.334 136 431.001c0 189.333 -44 335.666 -132 438.999s-209.333 155 -364 155z
M879.998 1566h-127l-262 328h168z" />
    <glyph glyph-name="Oacute" unicode="&#xd3;" horiz-adv-x="1544" 
d="M766 -24c-203.333 0 -366.168 66.999 -488.501 200.999s-183.5 308.333 -183.5 523c0 230.667 62.333 414.667 187 552s294.334 206 509.001 206c198 0 357.5 -66.667 478.5 -200s181.5 -307.666 181.5 -522.999c0 -234 -62 -419 -186 -555s-290 -204 -498 -204z
M777.998 1306c-150.667 0 -273 -54.3311 -367 -162.998s-141 -251.334 -141 -428.001s45.833 -318.834 137.5 -426.501s211.167 -161.5 358.5 -161.5c157.333 0 281.333 51.333 372 154s136 246.334 136 431.001c0 189.333 -44 335.666 -132 438.999s-209.333 155 -364 155z
M1028 1894l-262 -328h-127l223 328h166z" />
    <glyph glyph-name="Ocircumflex" unicode="&#xd4;" horiz-adv-x="1544" 
d="M766 -24c-203.333 0 -366.168 66.999 -488.501 200.999s-183.5 308.333 -183.5 523c0 230.667 62.333 414.667 187 552s294.334 206 509.001 206c198 0 357.5 -66.667 478.5 -200s181.5 -307.666 181.5 -522.999c0 -234 -62 -419 -186 -555s-290 -204 -498 -204z
M777.998 1306c-150.667 0 -273 -54.3311 -367 -162.998s-141 -251.334 -141 -428.001s45.833 -318.834 137.5 -426.501s211.167 -161.5 358.5 -161.5c157.333 0 281.333 51.333 372 154s136 246.334 136 431.001c0 189.333 -44 335.666 -132 438.999s-209.333 155 -364 155z
M1063 1566h-122l-164 230l-165 -230h-113l215 332h133z" />
    <glyph glyph-name="Otilde" unicode="&#xd5;" horiz-adv-x="1544" 
d="M766 -24c-203.333 0 -366.168 66.999 -488.501 200.999s-183.5 308.333 -183.5 523c0 230.667 62.333 414.667 187 552s294.334 206 509.001 206c198 0 357.5 -66.667 478.5 -200s181.5 -307.666 181.5 -522.999c0 -234 -62 -419 -186 -555s-290 -204 -498 -204z
M777.998 1306c-150.667 0 -273 -54.3311 -367 -162.998s-141 -251.334 -141 -428.001s45.833 -318.834 137.5 -426.501s211.167 -161.5 358.5 -161.5c157.333 0 281.333 51.333 372 154s136 246.334 136 431.001c0 189.333 -44 335.666 -132 438.999s-209.333 155 -364 155z
M1103 1802c0 -70 -16 -127.167 -48 -171.5s-75.333 -66.5 -130 -66.5c-47.333 0 -101.333 17.333 -162 52c-51.333 28.667 -91 43 -119 43c-58.667 0 -88 -37.667 -88 -113h-94c0 71.333 16 128.5 48 171.5s76.667 64.5 134 64.5c43.333 0 93 -17.333 149 -52
c49.333 -29.333 92 -44 128 -44c56 0 84 38.667 84 116h98z" />
    <glyph glyph-name="Odieresis" unicode="&#xd6;" horiz-adv-x="1544" 
d="M766 -24c-203.333 0 -366.168 66.999 -488.501 200.999s-183.5 308.333 -183.5 523c0 230.667 62.333 414.667 187 552s294.334 206 509.001 206c198 0 357.5 -66.667 478.5 -200s181.5 -307.666 181.5 -522.999c0 -234 -62 -419 -186 -555s-290 -204 -498 -204z
M777.998 1306c-150.667 0 -273 -54.3311 -367 -162.998s-141 -251.334 -141 -428.001s45.833 -318.834 137.5 -426.501s211.167 -161.5 358.5 -161.5c157.333 0 281.333 51.333 372 154s136 246.334 136 431.001c0 189.333 -44 335.666 -132 438.999s-209.333 155 -364 155z
M967.998 1563c-26.667 0 -49.668 9.33105 -69.001 27.998s-29 42.334 -29 71.001c0 28 9.33301 51.333 28 70s41.334 28 68.001 28c28 0 51.667 -9.5 71 -28.5s29 -42.167 29 -69.5s-9.33301 -50.666 -28 -69.999s-42 -29 -70 -29zM583.997 1563
c-28 0 -51.833 9.83105 -71.5 29.498s-29.5 42.834 -29.5 69.501c0 28 9.5 51.333 28.5 70s42.167 28 69.5 28s51 -9.5 71 -28.5s30 -42.167 30 -69.5s-9.66699 -50.666 -29 -69.999s-42.333 -29 -69 -29z" />
    <glyph glyph-name="multiply" unicode="&#xd7;" horiz-adv-x="1401" 
d="M1134 258l-94 -94l-340 340l-338 -340l-94 94l340 338l-340 340l94 94l338 -340l340 340l94 -94l-340 -340z" />
    <glyph glyph-name="Oslash" unicode="&#xd8;" horiz-adv-x="1544" 
d="M324 131l-152 -182l-78 65l158 191c-105.333 130 -158 295 -158 495c0 228.667 62.167 412.167 186.5 550.5s294.166 207.5 509.499 207.5c156 0 290 -43 402 -129l135 162l78 -63l-139 -166c122.667 -133.333 184 -309 184 -527c0 -234 -62 -419 -186 -555
s-290 -204 -498 -204c-177.333 0 -324.666 51.667 -441.999 155zM1090 1204c-84 68 -188 101.999 -312 101.999c-151.333 0 -273.833 -54.667 -367.5 -164s-140.5 -251.666 -140.5 -426.999c0 -148.667 32.667 -273 98 -373zM1157 1130l-724.999 -865.999
c87.333 -91.333 198.666 -137 333.999 -137c157.333 0 281.333 51.5 372 154.5s136 246.5 136 430.5c0 173.333 -39 312.666 -117 417.999z" />
    <glyph glyph-name="Ugrave" unicode="&#xd9;" horiz-adv-x="1407" 
d="M1237 580c0 -402.667 -181.667 -604 -545 -604c-348 0 -522 193.667 -522 581v877h168v-866c0 -294 124 -441 372 -441c239.333 0 359 142 359 426v881h168v-854zM830 1566h-127l-262 328h168z" />
    <glyph glyph-name="Uacute" unicode="&#xda;" horiz-adv-x="1407" 
d="M1237 580c0 -402.667 -181.667 -604 -545 -604c-348 0 -522 193.667 -522 581v877h168v-866c0 -294 124 -441 372 -441c239.333 0 359 142 359 426v881h168v-854zM960 1893l-262 -328h-127l223 328h166z" />
    <glyph glyph-name="Ucircumflex" unicode="&#xdb;" horiz-adv-x="1407" 
d="M1237 580c0 -402.667 -181.667 -604 -545 -604c-348 0 -522 193.667 -522 581v877h168v-866c0 -294 124 -441 372 -441c239.333 0 359 142 359 426v881h168v-854zM987 1567h-122l-164 230l-165 -230h-113l215 332h133z" />
    <glyph glyph-name="Udieresis" unicode="&#xdc;" horiz-adv-x="1407" 
d="M1237 580c0 -402.667 -181.667 -604 -545 -604c-348 0 -522 193.667 -522 581v877h168v-866c0 -294 124 -441 372 -441c239.333 0 359 142 359 426v881h168v-854zM895 1567c-26.667 0 -49.668 9.33105 -69.001 27.998s-29 42.334 -29 71.001c0 28 9.33301 51.333 28 70
s41.334 28 68.001 28c28 0 51.667 -9.5 71 -28.5s29 -42.167 29 -69.5s-9.33301 -50.666 -28 -69.999s-42 -29 -70 -29zM510.999 1567c-28 0 -51.833 9.83105 -71.5 29.498s-29.5 42.834 -29.5 69.501c0 28 9.5 51.333 28.5 70s42.167 28 69.5 28s51 -9.5 71 -28.5
s30 -42.167 30 -69.5s-9.66699 -50.666 -29 -69.999s-42.333 -29 -69 -29z" />
    <glyph glyph-name="Yacute" unicode="&#xdd;" horiz-adv-x="1132" 
d="M1120 1434l-473.001 -904v-530h-168v526l-461 908h191l321 -648c4 -8 15.667 -37.333 35 -88h3c6.66699 22.667 19.334 52 38.001 88l336 648h178zM830.999 1894l-262 -328h-127l223 328h166z" />
    <glyph glyph-name="Thorn" unicode="&#xde;" horiz-adv-x="1147" 
d="M356 318l-0.000976562 -318h-168v1434h168v-226h226c154.667 0 273.834 -37.167 357.501 -111.5s125.5 -179.833 125.5 -316.5c0 -136 -47.167 -247 -141.5 -333s-221.5 -129 -381.5 -129h-186zM355.999 1057l0.000976562 -588h176c115.333 0 203.666 26 264.999 78
s92 126.333 92 223c0 191.333 -112 287 -336 287h-197z" />
    <glyph glyph-name="germandbls" unicode="&#xdf;" horiz-adv-x="1114" 
d="M461 2v160.002c50 -32 106.667 -48 170 -48c72.667 0 131.667 24.5 177 73.5s68 114.833 68 197.5c0 100 -33.333 181.167 -100 243.5s-159.334 100.166 -278.001 113.499v130c78.667 13.333 143.334 47.666 194.001 102.999s76 121 76 197
c0 72 -18.333 127.833 -55 167.5s-87.334 59.5 -152.001 59.5c-154 0 -231 -103 -231 -309v-1090h-164v1114c0 128 36.667 230.667 110 308s172 116 296 116c110.667 0 199 -31.667 265 -95s99 -147 99 -251c0 -84.667 -25 -160.667 -75 -228s-115 -114 -195 -140v-5
c252 -50 378 -192 378 -426c0 -118 -37 -217 -111 -297s-172 -120 -294 -120c-67.333 0 -126.666 8.66699 -177.999 26z" />
    <glyph glyph-name="agrave" unicode="&#xe0;" horiz-adv-x="1042" 
d="M899 0l-164.001 0.000976562v160h-4c-71.333 -122.667 -176.333 -184 -315 -184c-102 0 -181.833 27 -239.5 81s-86.5 125.667 -86.5 215c0 191.333 112.667 302.666 338 333.999l307 43c0 174 -70.333 261 -211 261c-123.333 0 -234.666 -42 -333.999 -126v168
c100.667 64 216.667 96 348 96c240.667 0 361 -127.333 361 -382v-666zM734.999 518.001l-247 -34c-76 -10.667 -133.333 -29.5 -172 -56.5s-58 -74.833 -58 -143.5c0 -50 17.833 -90.833 53.5 -122.5s83.167 -47.5 142.5 -47.5c81.333 0 148.5 28.5 201.5 85.5
s79.5 129.167 79.5 216.5v102zM673.999 1218h-127l-262 328h168z" />
    <glyph glyph-name="aacute" unicode="&#xe1;" horiz-adv-x="1042" 
d="M899 0l-164.001 0.000976562v160h-4c-71.333 -122.667 -176.333 -184 -315 -184c-102 0 -181.833 27 -239.5 81s-86.5 125.667 -86.5 215c0 191.333 112.667 302.666 338 333.999l307 43c0 174 -70.333 261 -211 261c-123.333 0 -234.666 -42 -333.999 -126v168
c100.667 64 216.667 96 348 96c240.667 0 361 -127.333 361 -382v-666zM734.999 518.001l-247 -34c-76 -10.667 -133.333 -29.5 -172 -56.5s-58 -74.833 -58 -143.5c0 -50 17.833 -90.833 53.5 -122.5s83.167 -47.5 142.5 -47.5c81.333 0 148.5 28.5 201.5 85.5
s79.5 129.167 79.5 216.5v102zM756.999 1546l-262 -328h-127l223 328h166z" />
    <glyph glyph-name="acircumflex" unicode="&#xe2;" horiz-adv-x="1042" 
d="M899 0l-164.001 0.000976562v160h-4c-71.333 -122.667 -176.333 -184 -315 -184c-102 0 -181.833 27 -239.5 81s-86.5 125.667 -86.5 215c0 191.333 112.667 302.666 338 333.999l307 43c0 174 -70.333 261 -211 261c-123.333 0 -234.666 -42 -333.999 -126v168
c100.667 64 216.667 96 348 96c240.667 0 361 -127.333 361 -382v-666zM734.999 518.001l-247 -34c-76 -10.667 -133.333 -29.5 -172 -56.5s-58 -74.833 -58 -143.5c0 -50 17.833 -90.833 53.5 -122.5s83.167 -47.5 142.5 -47.5c81.333 0 148.5 28.5 201.5 85.5
s79.5 129.167 79.5 216.5v102zM805.999 1218h-122l-164 230l-165 -230h-113l215 332h133z" />
    <glyph glyph-name="atilde" unicode="&#xe3;" horiz-adv-x="1042" 
d="M899 0l-164.001 0.000976562v160h-4c-71.333 -122.667 -176.333 -184 -315 -184c-102 0 -181.833 27 -239.5 81s-86.5 125.667 -86.5 215c0 191.333 112.667 302.666 338 333.999l307 43c0 174 -70.333 261 -211 261c-123.333 0 -234.666 -42 -333.999 -126v168
c100.667 64 216.667 96 348 96c240.667 0 361 -127.333 361 -382v-666zM734.999 518.001l-247 -34c-76 -10.667 -133.333 -29.5 -172 -56.5s-58 -74.833 -58 -143.5c0 -50 17.833 -90.833 53.5 -122.5s83.167 -47.5 142.5 -47.5c81.333 0 148.5 28.5 201.5 85.5
s79.5 129.167 79.5 216.5v102zM843.999 1458c0 -70 -16 -127.167 -48 -171.5s-75.333 -66.5 -130 -66.5c-47.333 0 -101.333 17.333 -162 52c-51.333 28.667 -91 43 -119 43c-58.667 0 -88 -37.667 -88 -113h-94c0 71.333 16 128.5 48 171.5s76.667 64.5 134 64.5
c43.333 0 93 -17.333 149 -52c49.333 -29.333 92 -44 128 -44c56 0 84 38.667 84 116h98z" />
    <glyph glyph-name="adieresis" unicode="&#xe4;" horiz-adv-x="1042" 
d="M899 0l-164.001 0.000976562v160h-4c-71.333 -122.667 -176.333 -184 -315 -184c-102 0 -181.833 27 -239.5 81s-86.5 125.667 -86.5 215c0 191.333 112.667 302.666 338 333.999l307 43c0 174 -70.333 261 -211 261c-123.333 0 -234.666 -42 -333.999 -126v168
c100.667 64 216.667 96 348 96c240.667 0 361 -127.333 361 -382v-666zM734.999 518.001l-247 -34c-76 -10.667 -133.333 -29.5 -172 -56.5s-58 -74.833 -58 -143.5c0 -50 17.833 -90.833 53.5 -122.5s83.167 -47.5 142.5 -47.5c81.333 0 148.5 28.5 201.5 85.5
s79.5 129.167 79.5 216.5v102zM707.999 1218c-26.667 0 -49.668 9.33105 -69.001 27.998s-29 42.334 -29 71.001c0 28 9.33301 51.333 28 70s41.334 28 68.001 28c28 0 51.667 -9.5 71 -28.5s29 -42.167 29 -69.5s-9.33301 -50.666 -28 -69.999s-42 -29 -70 -29z
M323.998 1218c-28 0 -51.833 9.83105 -71.5 29.498s-29.5 42.834 -29.5 69.501c0 28 9.5 51.333 28.5 70s42.167 28 69.5 28s51 -9.5 71 -28.5s30 -42.167 30 -69.5s-9.66699 -50.666 -29 -69.999s-42.333 -29 -69 -29z" />
    <glyph glyph-name="aring" unicode="&#xe5;" horiz-adv-x="1042" 
d="M899 0l-164.001 0.000976562v160h-4c-71.333 -122.667 -176.333 -184 -315 -184c-102 0 -181.833 27 -239.5 81s-86.5 125.667 -86.5 215c0 191.333 112.667 302.666 338 333.999l307 43c0 174 -70.333 261 -211 261c-123.333 0 -234.666 -42 -333.999 -126v168
c100.667 64 216.667 96 348 96c240.667 0 361 -127.333 361 -382v-666zM734.999 518.001l-247 -34c-76 -10.667 -133.333 -29.5 -172 -56.5s-58 -74.833 -58 -143.5c0 -50 17.833 -90.833 53.5 -122.5s83.167 -47.5 142.5 -47.5c81.333 0 148.5 28.5 201.5 85.5
s79.5 129.167 79.5 216.5v102zM516.999 1176c-58 0 -106.166 17.5 -144.499 52.5s-57.5 80.833 -57.5 137.5c0 60 19.667 108 59 144s89.333 54 150 54c59.333 0 108 -18 146 -54s57 -82 57 -138s-20.333 -102.667 -61 -140s-90.334 -56 -149.001 -56zM517 1483
c-32 0 -58.667 -10.833 -80 -32.5s-32 -48.5 -32 -80.5c0 -74.667 37.333 -112 112 -112c33.333 0 61 10.667 83 32s33 48 33 80c0 32.667 -11 59.667 -33 81s-49.667 32 -83 32z" />
    <glyph glyph-name="ae" unicode="&#xe6;" horiz-adv-x="1704" 
d="M1622 471h-725c2 -114 32.333 -202 91 -264s139 -93 241 -93c118 0 225 38 321 114v-154c-88 -65.333 -207.333 -98 -358 -98c-180 0 -307.667 76.333 -383 229h-4c-96.667 -152.667 -225.667 -229 -387 -229c-102 0 -182.167 26.833 -240.5 80.5
s-87.5 125.5 -87.5 215.5c0 200 127.667 308 383 324l262 16c0 198.667 -71.667 298 -215 298c-116.667 0 -226.667 -40.667 -330 -122v164c98.667 64 214.667 96 348 96c154.667 0 254.667 -66.667 300 -200h4c77.333 133.333 196 200 356 200
c134.667 0 239 -43.5 313 -130.5s111 -207.833 111 -362.5v-84zM1454 610c-1.33301 96 -24.1689 170.001 -68.502 222.001s-106.166 78 -185.499 78c-77.333 0 -143.666 -27.333 -198.999 -82s-89.333 -127.334 -102 -218.001h555zM734.997 410.001l0.000976562 62.999
l-203 -12c-92.667 -5.33301 -161.834 -21.666 -207.501 -48.999s-68.5 -72.666 -68.5 -135.999c0 -48.667 17.667 -87.834 53 -117.501s83 -44.5 143 -44.5c79.333 0 146.333 28.167 201 84.5s82 126.833 82 211.5z" />
    <glyph glyph-name="ccedilla" unicode="&#xe7;" horiz-adv-x="946" 
d="M864 47c-78.667 -47.333 -172 -71 -280 -71c-146 0 -263.833 47.5 -353.5 142.5s-134.5 218.167 -134.5 369.5c0 168.667 48.333 304.167 145 406.5s225.667 153.5 387 153.5c90 0 169.333 -16.667 238 -50v-168c-76 53.333 -157.333 80 -244 80
c-104.667 0 -190.5 -37.5 -257.5 -112.5s-100.5 -173.5 -100.5 -295.5c0 -120 31.5 -214.667 94.5 -284s147.5 -104 253.5 -104c89.333 0 173.333 29.667 252 89v-156zM778 -256c0 -117.333 -91.666 -176 -274.999 -176c-25.333 0 -47 0.666992 -65 2v90
c28.667 -4 52 -6 70 -6c94 0 141 30 141 90c0 52 -43 78 -129 78c-6.66699 0 -20.334 -1.33301 -41.001 -4v182h108v-104c58.667 0 105.167 -13.333 139.5 -40s51.5 -64 51.5 -112z" />
    <glyph glyph-name="egrave" unicode="&#xe8;" horiz-adv-x="1071" 
d="M989 471l-723.001 0.000976562c2.66699 -114 33.334 -202 92.001 -264s139.334 -93 242.001 -93c115.333 0 221.333 38 318 114v-154c-90 -65.333 -209 -98 -357 -98c-144.667 0 -258.334 46.5 -341.001 139.5s-124 223.833 -124 392.5
c0 159.333 45.167 289.166 135.5 389.499s202.5 150.5 336.5 150.5s237.667 -43.333 311 -130s110 -207 110 -361v-86zM820.999 610.001c-0.666992 94.667 -23.5 168.332 -68.5 220.999s-107.5 79 -187.5 79c-77.333 0 -143 -27.667 -197 -83
s-87.333 -127.666 -100 -216.999h553zM724.999 1218h-127l-262 328h168z" />
    <glyph glyph-name="eacute" unicode="&#xe9;" horiz-adv-x="1071" 
d="M989 471l-723.001 0.000976562c2.66699 -114 33.334 -202 92.001 -264s139.334 -93 242.001 -93c115.333 0 221.333 38 318 114v-154c-90 -65.333 -209 -98 -357 -98c-144.667 0 -258.334 46.5 -341.001 139.5s-124 223.833 -124 392.5
c0 159.333 45.167 289.166 135.5 389.499s202.5 150.5 336.5 150.5s237.667 -43.333 311 -130s110 -207 110 -361v-86zM820.999 610.001c-0.666992 94.667 -23.5 168.332 -68.5 220.999s-107.5 79 -187.5 79c-77.333 0 -143 -27.667 -197 -83
s-87.333 -127.666 -100 -216.999h553zM794.999 1546l-262 -328h-127l223 328h166z" />
    <glyph glyph-name="ecircumflex" unicode="&#xea;" horiz-adv-x="1071" 
d="M989 471l-723.001 0.000976562c2.66699 -114 33.334 -202 92.001 -264s139.334 -93 242.001 -93c115.333 0 221.333 38 318 114v-154c-90 -65.333 -209 -98 -357 -98c-144.667 0 -258.334 46.5 -341.001 139.5s-124 223.833 -124 392.5
c0 159.333 45.167 289.166 135.5 389.499s202.5 150.5 336.5 150.5s237.667 -43.333 311 -130s110 -207 110 -361v-86zM820.999 610.001c-0.666992 94.667 -23.5 168.332 -68.5 220.999s-107.5 79 -187.5 79c-77.333 0 -143 -27.667 -197 -83
s-87.333 -127.666 -100 -216.999h553zM839.999 1218h-122l-164 230l-165 -230h-113l215 332h133z" />
    <glyph glyph-name="edieresis" unicode="&#xeb;" horiz-adv-x="1071" 
d="M989 471l-723.001 0.000976562c2.66699 -114 33.334 -202 92.001 -264s139.334 -93 242.001 -93c115.333 0 221.333 38 318 114v-154c-90 -65.333 -209 -98 -357 -98c-144.667 0 -258.334 46.5 -341.001 139.5s-124 223.833 -124 392.5
c0 159.333 45.167 289.166 135.5 389.499s202.5 150.5 336.5 150.5s237.667 -43.333 311 -130s110 -207 110 -361v-86zM820.999 610.001c-0.666992 94.667 -23.5 168.332 -68.5 220.999s-107.5 79 -187.5 79c-77.333 0 -143 -27.667 -197 -83
s-87.333 -127.666 -100 -216.999h553zM745.999 1218c-26.667 0 -49.668 9.33105 -69.001 27.998s-29 42.334 -29 71.001c0 28 9.33301 51.333 28 70s41.334 28 68.001 28c28 0 51.667 -9.5 71 -28.5s29 -42.167 29 -69.5s-9.33301 -50.666 -28 -69.999s-42 -29 -70 -29z
M361.998 1218c-28 0 -51.833 9.83105 -71.5 29.498s-29.5 42.834 -29.5 69.501c0 28 9.5 51.333 28.5 70s42.167 28 69.5 28s51 -9.5 71 -28.5s30 -42.167 30 -69.5s-9.66699 -50.666 -29 -69.999s-42.333 -29 -69 -29z" />
    <glyph glyph-name="igrave" unicode="&#xec;" horiz-adv-x="496" 
d="M330 0h-164v1024h164v-1024zM369 1218h-127l-262 328h168z" />
    <glyph glyph-name="iacute" unicode="&#xed;" horiz-adv-x="496" 
d="M330 0h-164v1024h164v-1024zM477 1546l-262 -328h-127l223 328h166z" />
    <glyph glyph-name="icircumflex" unicode="&#xee;" horiz-adv-x="496" 
d="M330 0h-164v1024h164v-1024zM519 1218h-122l-164 230l-165 -230h-113l215 332h133z" />
    <glyph glyph-name="idieresis" unicode="&#xef;" horiz-adv-x="496" 
d="M330 0h-164v1024h164v-1024zM430 1218c-26.667 0 -49.668 9.33105 -69.001 27.998s-29 42.334 -29 71.001c0 28 9.33301 51.333 28 70s41.334 28 68.001 28c28 0 51.667 -9.5 71 -28.5s29 -42.167 29 -69.5s-9.33301 -50.666 -28 -69.999s-42 -29 -70 -29zM45.999 1218
c-28 0 -51.833 9.83105 -71.5 29.498s-29.5 42.834 -29.5 69.501c0 28 9.5 51.333 28.5 70s42.167 28 69.5 28s51 -9.5 71 -28.5s30 -42.167 30 -69.5s-9.66699 -50.666 -29 -69.999s-42.333 -29 -69 -29z" />
    <glyph glyph-name="eth" unicode="&#xf0;" horiz-adv-x="1145" 
d="M786 968l3.99902 3.00098c-60 108 -126 196.667 -198 266l-299 -151l-51 98l270 131c-78.667 70 -166.667 137 -264 201h221c50 -34.667 107.333 -80 172 -136l289 144l55 -94l-264 -130c218 -204.667 327 -462.667 327 -774c0 -160 -43 -291.333 -129 -394
s-203 -154 -351 -154s-263.667 46.667 -347 140s-125 220.666 -125 381.999c0 162 43.333 293.5 130 394.5s203.334 151.5 350.001 151.5c82 0 152 -26 210 -78zM581.999 910.001c-98.667 0 -176.333 -36.167 -233 -108.5s-85 -170.833 -85 -295.5
c0 -120.667 27.667 -216.167 83 -286.5s132.333 -105.5 231 -105.5c92.667 0 166.167 36 220.5 108s81.5 168 81.5 288c0 266.667 -99.333 400 -298 400z" />
    <glyph glyph-name="ntilde" unicode="&#xf1;" horiz-adv-x="1159" 
d="M1016 0h-164v584c0 217.333 -79.333 326 -238 326c-82 0 -149.833 -30.833 -203.5 -92.5s-80.5 -139.5 -80.5 -233.5v-584h-164v1024h164v-170h4c77.333 129.333 189.333 194 336 194c112 0 197.667 -36.167 257 -108.5s89 -176.833 89 -313.5v-626zM908 1458
c0 -70 -16 -127.167 -48 -171.5s-75.333 -66.5 -130 -66.5c-47.333 0 -101.333 17.333 -162 52c-51.333 28.667 -91 43 -119 43c-58.667 0 -88 -37.667 -88 -113h-94c0 71.333 16 128.5 48 171.5s76.667 64.5 134 64.5c43.333 0 93 -17.333 149 -52
c49.333 -29.333 92 -44 128 -44c56 0 84 38.667 84 116h98z" />
    <glyph glyph-name="ograve" unicode="&#xf2;" horiz-adv-x="1200" 
d="M594 -24c-151.333 0 -272.169 47.832 -362.502 143.499s-135.5 222.5 -135.5 380.5c0 172 47 306.333 141 403s221 145 381 145c152.667 0 271.834 -47 357.501 -141s128.5 -224.333 128.5 -391c0 -163.333 -46.167 -294.166 -138.5 -392.499
s-216.166 -147.5 -371.499 -147.5zM605.997 909.999c-105.333 0 -188.667 -35.834 -250 -107.501s-92 -170.5 -92 -296.5c0 -121.333 31 -217 93 -287s145 -105 249 -105c106 0 187.5 34.333 244.5 103s85.5 166.334 85.5 293.001c0 128 -28.5 226.667 -85.5 296
s-138.5 104 -244.5 104zM746.996 1218h-127l-262 328h168z" />
    <glyph glyph-name="oacute" unicode="&#xf3;" horiz-adv-x="1200" 
d="M594 -24c-151.333 0 -272.169 47.832 -362.502 143.499s-135.5 222.5 -135.5 380.5c0 172 47 306.333 141 403s221 145 381 145c152.667 0 271.834 -47 357.501 -141s128.5 -224.333 128.5 -391c0 -163.333 -46.167 -294.166 -138.5 -392.499
s-216.166 -147.5 -371.499 -147.5zM605.997 909.999c-105.333 0 -188.667 -35.834 -250 -107.501s-92 -170.5 -92 -296.5c0 -121.333 31 -217 93 -287s145 -105 249 -105c106 0 187.5 34.333 244.5 103s85.5 166.334 85.5 293.001c0 128 -28.5 226.667 -85.5 296
s-138.5 104 -244.5 104zM845.996 1546l-262 -328h-127l223 328h166z" />
    <glyph glyph-name="ocircumflex" unicode="&#xf4;" horiz-adv-x="1200" 
d="M594 -24c-151.333 0 -272.169 47.832 -362.502 143.499s-135.5 222.5 -135.5 380.5c0 172 47 306.333 141 403s221 145 381 145c152.667 0 271.834 -47 357.501 -141s128.5 -224.333 128.5 -391c0 -163.333 -46.167 -294.166 -138.5 -392.499
s-216.166 -147.5 -371.499 -147.5zM605.997 909.999c-105.333 0 -188.667 -35.834 -250 -107.501s-92 -170.5 -92 -296.5c0 -121.333 31 -217 93 -287s145 -105 249 -105c106 0 187.5 34.333 244.5 103s85.5 166.334 85.5 293.001c0 128 -28.5 226.667 -85.5 296
s-138.5 104 -244.5 104zM884.996 1218h-122l-164 230l-165 -230h-113l215 332h133z" />
    <glyph glyph-name="otilde" unicode="&#xf5;" horiz-adv-x="1200" 
d="M594 -24c-151.333 0 -272.169 47.832 -362.502 143.499s-135.5 222.5 -135.5 380.5c0 172 47 306.333 141 403s221 145 381 145c152.667 0 271.834 -47 357.501 -141s128.5 -224.333 128.5 -391c0 -163.333 -46.167 -294.166 -138.5 -392.499
s-216.166 -147.5 -371.499 -147.5zM605.997 909.999c-105.333 0 -188.667 -35.834 -250 -107.501s-92 -170.5 -92 -296.5c0 -121.333 31 -217 93 -287s145 -105 249 -105c106 0 187.5 34.333 244.5 103s85.5 166.334 85.5 293.001c0 128 -28.5 226.667 -85.5 296
s-138.5 104 -244.5 104zM930.996 1458c0 -70 -16 -127.167 -48 -171.5s-75.333 -66.5 -130 -66.5c-47.333 0 -101.333 17.333 -162 52c-51.333 28.667 -91 43 -119 43c-58.667 0 -88 -37.667 -88 -113h-94c0 71.333 16 128.5 48 171.5s76.667 64.5 134 64.5
c43.333 0 93 -17.333 149 -52c49.333 -29.333 92 -44 128 -44c56 0 84 38.667 84 116h98z" />
    <glyph glyph-name="odieresis" unicode="&#xf6;" horiz-adv-x="1200" 
d="M594 -24c-151.333 0 -272.169 47.832 -362.502 143.499s-135.5 222.5 -135.5 380.5c0 172 47 306.333 141 403s221 145 381 145c152.667 0 271.834 -47 357.501 -141s128.5 -224.333 128.5 -391c0 -163.333 -46.167 -294.166 -138.5 -392.499
s-216.166 -147.5 -371.499 -147.5zM605.997 909.999c-105.333 0 -188.667 -35.834 -250 -107.501s-92 -170.5 -92 -296.5c0 -121.333 31 -217 93 -287s145 -105 249 -105c106 0 187.5 34.333 244.5 103s85.5 166.334 85.5 293.001c0 128 -28.5 226.667 -85.5 296
s-138.5 104 -244.5 104zM792.996 1218c-26.667 0 -49.668 9.33105 -69.001 27.998s-29 42.334 -29 71.001c0 28 9.33301 51.333 28 70s41.334 28 68.001 28c28 0 51.667 -9.5 71 -28.5s29 -42.167 29 -69.5s-9.33301 -50.666 -28 -69.999s-42 -29 -70 -29zM408.995 1218
c-28 0 -51.833 9.83105 -71.5 29.498s-29.5 42.834 -29.5 69.501c0 28 9.5 51.333 28.5 70s42.167 28 69.5 28s51 -9.5 71 -28.5s30 -42.167 30 -69.5s-9.66699 -50.666 -29 -69.999s-42.333 -29 -69 -29z" />
    <glyph glyph-name="divide" unicode="&#xf7;" horiz-adv-x="1401" 
d="M708 868c-29.333 0 -54 10.168 -74 30.501s-30 45.166 -30 74.499c0 30 9.66699 55.667 29 77s44.333 32 75 32c68.667 0 103 -35.667 103 -107c0 -31.333 -10.167 -57 -30.5 -77s-44.5 -30 -72.5 -30zM1172 530.001h-940v134h940v-134zM704 112.001
c-29.333 0 -54.333 10 -75 30s-31 44.333 -31 73c0 30 10 56 30 78s45.333 33 76 33c67.333 0 101 -36.333 101 -109c0 -30 -9.66699 -55 -29 -75s-43.333 -30 -72 -30z" />
    <glyph glyph-name="oslash" unicode="&#xf8;" horiz-adv-x="1200" 
d="M1174 1048l-168 -179.999c65.333 -92 98 -207.333 98 -346c0 -168 -46.333 -301 -139 -399s-216.334 -147 -371.001 -147c-128 0 -234 34 -318 102l-145 -160l-82 78l149 164c-68 91.333 -102 204.666 -102 339.999c0 172 47.333 306.333 142 403s222 145 382 145
c122.667 0 225.334 -32.667 308.001 -98l162 176zM821 836.001c-52.667 49.333 -124.333 74 -215 74c-106 0 -189.5 -35.833 -250.5 -107.5s-91.5 -170.5 -91.5 -296.5c0 -88 16.667 -162.667 50 -224zM891.001 742.001l-508 -552c58 -50.667 131.667 -76 221 -76
c108.667 0 191.5 34.667 248.5 104s85.5 167.333 85.5 294c0 89.333 -15.667 166 -47 230z" />
    <glyph glyph-name="ugrave" unicode="&#xf9;" horiz-adv-x="1159" 
d="M994 0h-164v162h-4c-68 -124 -173.333 -186 -316 -186c-244 0 -366 145.333 -366 436v612h163v-586c0 -216 82.667 -324 248 -324c80 0 145.833 29.5 197.5 88.5s77.5 136.167 77.5 231.5v590h164v-1024zM705 1218h-127l-262 328h168z" />
    <glyph glyph-name="uacute" unicode="&#xfa;" horiz-adv-x="1159" 
d="M994 0h-164v162h-4c-68 -124 -173.333 -186 -316 -186c-244 0 -366 145.333 -366 436v612h163v-586c0 -216 82.667 -324 248 -324c80 0 145.833 29.5 197.5 88.5s77.5 136.167 77.5 231.5v590h164v-1024zM840 1546l-262 -328h-127l223 328h166z" />
    <glyph glyph-name="ucircumflex" unicode="&#xfb;" horiz-adv-x="1159" 
d="M994 0h-164v162h-4c-68 -124 -173.333 -186 -316 -186c-244 0 -366 145.333 -366 436v612h163v-586c0 -216 82.667 -324 248 -324c80 0 145.833 29.5 197.5 88.5s77.5 136.167 77.5 231.5v590h164v-1024zM854 1218h-122l-164 230l-165 -230h-113l215 332h133z" />
    <glyph glyph-name="udieresis" unicode="&#xfc;" horiz-adv-x="1159" 
d="M994 0h-164v162h-4c-68 -124 -173.333 -186 -316 -186c-244 0 -366 145.333 -366 436v612h163v-586c0 -216 82.667 -324 248 -324c80 0 145.833 29.5 197.5 88.5s77.5 136.167 77.5 231.5v590h164v-1024zM770 1218c-26.667 0 -49.668 9.33105 -69.001 27.998
s-29 42.334 -29 71.001c0 28 9.33301 51.333 28 70s41.334 28 68.001 28c28 0 51.667 -9.5 71 -28.5s29 -42.167 29 -69.5s-9.33301 -50.666 -28 -69.999s-42 -29 -70 -29zM385.999 1218c-28 0 -51.833 9.83105 -71.5 29.498s-29.5 42.834 -29.5 69.501
c0 28 9.5 51.333 28.5 70s42.167 28 69.5 28s51 -9.5 71 -28.5s30 -42.167 30 -69.5s-9.66699 -50.666 -29 -69.999s-42.333 -29 -69 -29z" />
    <glyph glyph-name="yacute" unicode="&#xfd;" horiz-adv-x="991" 
d="M981 1024l-470.998 -1188c-84 -212 -202 -318 -354 -318c-42.667 0 -78.334 4.33301 -107.001 13v147c35.333 -12 67.666 -18 96.999 -18c82.667 0 144.667 49.333 186 148l82 194l-400 1022h182l277 -788c3.33301 -10 10.333 -36 21 -78h6c3.33301 16 10 41.333 20 76
l291 790h170zM762.002 1546l-262 -328h-127l223 328h166z" />
    <glyph glyph-name="thorn" unicode="&#xfe;" horiz-adv-x="1204" 
d="M334 148h-4v-619h-164v1987h164v-672h4c80.667 136 198.667 204 354 204c132 0 235 -45.833 309 -137.5s111 -214.5 111 -368.5c0 -171.333 -41.667 -308.5 -125 -411.5s-197.333 -154.5 -342 -154.5c-132.667 0 -235 57.333 -307 172zM330 561l0.000976562 -143
c0 -84.667 27.5 -156.5 82.5 -215.5s124.833 -88.5 209.5 -88.5c99.333 0 177.166 38 233.499 114s84.5 181.667 84.5 317c0 114 -26.333 203.333 -79 268s-124 97 -214 97c-95.333 0 -172 -33.167 -230 -99.5s-87 -149.5 -87 -249.5z" />
    <glyph glyph-name="ydieresis" unicode="&#xff;" horiz-adv-x="991" 
d="M981 1024l-470.998 -1188c-84 -212 -202 -318 -354 -318c-42.667 0 -78.334 4.33301 -107.001 13v147c35.333 -12 67.666 -18 96.999 -18c82.667 0 144.667 49.333 186 148l82 194l-400 1022h182l277 -788c3.33301 -10 10.333 -36 21 -78h6c3.33301 16 10 41.333 20 76
l291 790h170zM689.002 1218c-26.667 0 -49.668 9.33105 -69.001 27.998s-29 42.334 -29 71.001c0 28 9.33301 51.333 28 70s41.334 28 68.001 28c28 0 51.667 -9.5 71 -28.5s29 -42.167 29 -69.5s-9.33301 -50.666 -28 -69.999s-42 -29 -70 -29zM305.001 1218
c-28 0 -51.833 9.83105 -71.5 29.498s-29.5 42.834 -29.5 69.501c0 28 9.5 51.333 28.5 70s42.167 28 69.5 28s51 -9.5 71 -28.5s30 -42.167 30 -69.5s-9.66699 -50.666 -29 -69.999s-42.333 -29 -69 -29z" />
    <glyph glyph-name="dotlessi" unicode="&#x131;" horiz-adv-x="496" 
d="M330 0h-164v1024h164v-1024z" />
    <glyph glyph-name="OE" unicode="&#x152;" horiz-adv-x="1906" 
d="M1810 0h-720c-10.667 -0 -56.667 -4.66699 -138 -14c-65.333 -6.66699 -126 -10 -182 -10c-208 0 -372.667 67 -494 201s-182 308.333 -182 523c0 230.667 63.167 414.667 189.5 552s297.833 206 514.5 206c60 0 119.333 -3.33301 178 -10
c74.667 -9.33301 112.667 -14 114 -14h688v-152h-560v-477h518v-151h-518v-502h592v-152zM1050 160l0.000976562 1118c-106.667 18.667 -196 28 -268 28c-152.667 0 -276.167 -55.333 -370.5 -166s-141.5 -252.334 -141.5 -425.001c0 -172 46.5 -313 139.5 -423
s215.167 -165 366.5 -165c77.333 0 168.666 11 273.999 33z" />
    <glyph glyph-name="oe" unicode="&#x153;" horiz-adv-x="1900" 
d="M1825 471l-724.999 0.00195312c2 -114 32.5 -202 91.5 -264s139.833 -93 242.5 -93c116.667 0 223 38 319 114v-154c-90.667 -65.333 -209.667 -98 -357 -98c-180 0 -307.333 79 -382 237h-4c-87.333 -158 -226 -237 -416 -237c-152.667 0 -273.834 47.667 -363.501 143
s-134.5 221.666 -134.5 378.999c0 172 47.333 306.667 142 404s222 146 382 146c196 0 330 -78.333 402 -235h4c79.333 156.667 207.666 235 384.999 235c130.667 0 232.334 -43.833 305.001 -131.5s109 -206.834 109 -357.501v-88zM1657 610.002
c-1.33301 94.667 -24.332 168.333 -68.999 221s-105.667 79 -183 79c-80 0 -147.833 -28.5 -203.5 -85.5s-88.834 -128.5 -99.501 -214.5h555zM606.002 910.001c-105.333 0 -188.666 -36.167 -249.999 -108.5s-92 -172.166 -92 -299.499c0 -120 30.667 -214.667 92 -284
s144 -104 248 -104c106 0 187.833 34.167 245.5 102.5s86.5 165.5 86.5 291.5c0 129.333 -28.833 228.666 -86.5 297.999s-138.834 104 -243.501 104z" />
    <glyph glyph-name="Scaron" unicode="&#x160;" horiz-adv-x="1088" 
d="M121 58l-0.000976562 198c22.667 -20 49.834 -38 81.501 -54s65 -29.5 100 -40.5s70.167 -19.5 105.5 -25.5s68 -9 98 -9c103.333 0 180.5 19.167 231.5 57.5s76.5 93.5 76.5 165.5c0 38.667 -8.5 72.334 -25.5 101.001s-40.5 54.834 -70.5 78.501
s-65.5 46.334 -106.5 68.001l-132.5 68.5c-50 25.333 -96.667 51 -140 77s-81 54.667 -113 86s-57.167 66.833 -75.5 106.5s-27.5 86.167 -27.5 139.5c0 65.333 14.333 122.166 43 170.499s66.334 88.166 113.001 119.499s99.834 54.666 159.501 69.999s120.5 23 182.5 23
c141.333 0 244.333 -17 309 -51v-189c-84.667 58.667 -193.334 88 -326.001 88c-36.667 0 -73.334 -3.83301 -110.001 -11.5s-69.334 -20.167 -98.001 -37.5s-52 -39.666 -70 -66.999s-27 -60.666 -27 -99.999c0 -36.667 6.83301 -68.334 20.5 -95.001
s33.834 -51 60.501 -73s59.167 -43.333 97.5 -64s82.5 -43.334 132.5 -68.001c51.333 -25.333 100 -52 146 -80s86.333 -59 121 -93s62.167 -71.667 82.5 -113s30.5 -88.666 30.5 -141.999c0 -70.667 -13.833 -130.5 -41.5 -179.5s-65 -88.833 -112 -119.5
s-101.167 -52.834 -162.5 -66.501s-126 -20.5 -194 -20.5c-22.667 0 -50.667 1.83301 -84 5.5s-67.333 9 -102 16s-67.5 15.667 -98.5 26s-55.833 21.833 -74.5 34.5zM825.999 1898l-214 -330h-132l-216 330h115l164 -229l164 229h119z" />
    <glyph glyph-name="scaron" unicode="&#x161;" horiz-adv-x="869" 
d="M104 37l-0.000976562 176c89.333 -66 187.666 -99 294.999 -99c144 0 216 48 216 144c0 27.333 -6.16699 50.5 -18.5 69.5s-29 35.833 -50 50.5s-45.667 27.834 -74 39.501l-91.5 36.5c-45.333 18 -85.166 36.167 -119.499 54.5s-63 39 -86 62s-40.333 49.167 -52 78.5
s-17.5 63.666 -17.5 102.999c0 48 11 90.5 33 127.5s51.333 68 88 93s78.5 43.833 125.5 56.5s95.5 19 145.5 19c88.667 0 168 -15.333 238 -46v-166c-75.333 49.333 -162 74 -260 74c-30.667 0 -58.334 -3.5 -83.001 -10.5s-45.834 -16.833 -63.501 -29.5
s-31.334 -27.834 -41.001 -45.501s-14.5 -37.167 -14.5 -58.5c0 -26.667 4.83301 -49 14.5 -67s23.834 -34 42.501 -48s41.334 -26.667 68.001 -38l91 -37c45.333 -17.333 86 -35.166 122 -53.499s66.667 -39 92 -62s44.833 -49.5 58.5 -79.5s20.5 -65.667 20.5 -107
c0 -50.667 -11.167 -94.667 -33.5 -132s-52.166 -68.333 -89.499 -93s-80.333 -43 -129 -55s-99.667 -18 -153 -18c-105.333 0 -196.666 20.333 -273.999 61zM681.999 1548l-214 -330h-132l-216 330h115l164 -229l164 229h119z" />
    <glyph glyph-name="Ydieresis" unicode="&#x178;" horiz-adv-x="1132" 
d="M1120 1434l-473.001 -904v-530h-168v526l-461 908h191l321 -648c4 -8 15.667 -37.333 35 -88h3c6.66699 22.667 19.334 52 38.001 88l336 648h178zM758.999 1565c-26.667 0 -49.668 9.33105 -69.001 27.998s-29 42.334 -29 71.001c0 28 9.33301 51.333 28 70
s41.334 28 68.001 28c28 0 51.667 -9.5 71 -28.5s29 -42.167 29 -69.5s-9.33301 -50.666 -28 -69.999s-42 -29 -70 -29zM374.998 1565c-28 0 -51.833 9.83105 -71.5 29.498s-29.5 42.834 -29.5 69.501c0 28 9.5 51.333 28.5 70s42.167 28 69.5 28s51 -9.5 71 -28.5
s30 -42.167 30 -69.5s-9.66699 -50.666 -29 -69.999s-42.333 -29 -69 -29z" />
    <glyph glyph-name="Zcaron" unicode="&#x17d;" horiz-adv-x="1168" 
d="M1124 1394l-840 -1242h820v-152h-1071v47l833 1235h-766v152h1024v-40zM900 1895l-214 -330h-132l-216 330h115l164 -229l164 229h119z" />
    <glyph glyph-name="zcaron" unicode="&#x17e;" horiz-adv-x="926" 
d="M880 977l-606 -837h600v-140h-841v51l606 833h-549v140h790v-47zM782 1548l-214 -330h-132l-216 330h115l164 -229l164 229h119z" />
    <glyph glyph-name="florin" unicode="&#x192;" horiz-adv-x="1104" 
d="M952 1266c-32 18.667 -67.999 28 -107.999 28c-97.333 0 -154 -53.333 -170 -160l-31 -208h166v-138h-187l-90 -648c-38.667 -278.667 -154.667 -418 -348 -418c-20.667 0 -50.667 5.33301 -90 16v143c24 -14 52.667 -21 86 -21c100 0 163.333 97.333 190 292l91 636
h-103v138h124l28 219c11.333 87.333 46.166 157.333 104.499 210s132.166 79 221.499 79c42.667 0 81.334 -6.33301 116.001 -19v-149z" />
    <glyph glyph-name="circumflex" unicode="&#x2c6;" horiz-adv-x="760" 
d="M656 1218h-122l-164 230l-165 -230h-113l215 332h133z" />
    <glyph glyph-name="caron" unicode="&#x2c7;" horiz-adv-x="760" 
d="M664 1548l-214 -330h-132l-216 330h115l164 -229l164 229h119z" />
    <glyph glyph-name="ring" unicode="&#x2da;" horiz-adv-x="574" 
d="M284 1176c-58 0 -106.166 17.5 -144.499 52.5s-57.5 80.833 -57.5 137.5c0 60 19.667 108 59 144s89.333 54 150 54c59.333 0 108 -18 146 -54s57 -82 57 -138s-20.333 -102.667 -61 -140s-90.334 -56 -149.001 -56zM284.001 1483c-32 0 -58.667 -10.833 -80 -32.5
s-32 -48.5 -32 -80.5c0 -74.667 37.333 -112 112 -112c33.333 0 61 10.667 83 32s33 48 33 80c0 32.667 -11 59.667 -33 81s-49.667 32 -83 32z" />
    <glyph glyph-name="tilde" unicode="&#x2dc;" horiz-adv-x="690" 
d="M676 1458c0 -70 -16 -127.167 -48 -171.5s-75.333 -66.5 -130 -66.5c-47.333 0 -101.333 17.333 -162 52c-51.333 28.667 -91 43 -119 43c-58.667 0 -88 -37.667 -88 -113h-94c0 71.333 16 128.5 48 171.5s76.667 64.5 134 64.5c43.333 0 93 -17.333 149 -52
c49.333 -29.333 92 -44 128 -44c56 0 84 38.667 84 116h98z" />
    <glyph glyph-name="uni0305" unicode="&#x305;" horiz-adv-x="0" 
d="M425 1396h-850v120h850v-120z" />
    <glyph glyph-name="uni1680" unicode="&#x1680;" horiz-adv-x="858" 
d="M898 566h-938v60h938v-60z" />
    <glyph glyph-name="uni1681" unicode="&#x1681;" horiz-adv-x="590" 
d="M630 566h-268v-766h-134v766h-268v60h670v-60z" />
    <glyph glyph-name="uni1682" unicode="&#x1682;" horiz-adv-x="858" 
d="M898 566h-268v-766h-134v766h-134v-766h-134v766h-268v60h938v-60z" />
    <glyph glyph-name="uni1683" unicode="&#x1683;" horiz-adv-x="1126" 
d="M1166 566h-268v-766h-134v766h-134v-766h-134v766h-134v-766h-134v766h-268v60h1206v-60z" />
    <glyph glyph-name="uni1684" unicode="&#x1684;" horiz-adv-x="1394" 
d="M1434 566h-268v-766h-134v766h-134v-766h-134v766h-134v-766h-134v766h-134v-766h-134v766h-268v60h1474v-60z" />
    <glyph glyph-name="uni1685" unicode="&#x1685;" horiz-adv-x="1662" 
d="M1702 566h-268v-766h-134v766h-134v-766h-134v766h-134v-766h-134v766h-134v-766h-134v766h-134v-766h-134v766h-268v60h1742v-60z" />
    <glyph glyph-name="uni1686" unicode="&#x1686;" horiz-adv-x="590" 
d="M630 566h-670v60h268v766h134v-766h268v-60z" />
    <glyph glyph-name="uni1687" unicode="&#x1687;" horiz-adv-x="858" 
d="M898 566h-938v60h268v766h134v-766h134v766h134v-766h268v-60z" />
    <glyph glyph-name="uni1688" unicode="&#x1688;" horiz-adv-x="1126" 
d="M1166 566h-1206v60h268v766h134v-766h134v766h134v-766h134v766h134v-766h268v-60z" />
    <glyph glyph-name="uni1689" unicode="&#x1689;" horiz-adv-x="1394" 
d="M1434 566h-1474v60h268v766h134v-766h134v766h134v-766h134v766h134v-766h134v766h134v-766h268v-60z" />
    <glyph glyph-name="uni168A" unicode="&#x168a;" horiz-adv-x="1662" 
d="M1702 566h-1742v60h268v766h134v-766h134v766h134v-766h134v766h134v-766h134v766h134v-766h134v766h134v-766h268v-60z" />
    <glyph glyph-name="uni168B" unicode="&#x168b;" horiz-adv-x="590" 
d="M630 566h-276l-192 -766h-134l192 766h-260v60h276l192 766h134l-192 -766h260v-60z" />
    <glyph glyph-name="uni168C" unicode="&#x168c;" horiz-adv-x="858" 
d="M898 566h-276l-192 -766h-134l192 766h-134l-192 -766h-134l192 766h-260v60h276l192 766h134l-192 -766h134l192 766h134l-192 -766h260v-60z" />
    <glyph glyph-name="uni168D" unicode="&#x168d;" horiz-adv-x="1126" 
d="M1166 566h-276l-192 -766h-134l192 766h-134l-192 -766h-134l192 766h-134l-192 -766h-134l192 766h-260v60h276l192 766h134l-192 -766h134l192 766h134l-192 -766h134l192 766h134l-192 -766h260v-60z" />
    <glyph glyph-name="uni168E" unicode="&#x168e;" horiz-adv-x="1394" 
d="M1434 566h-276l-192 -766h-134l192 766h-134l-192 -766h-134l192 766h-134l-192 -766h-134l192 766h-134l-192 -766h-134l192 766h-260v60h276l192 766h134l-192 -766h134l192 766h134l-192 -766h134l192 766h134l-192 -766h134l192 766h134l-192 -766h260v-60z" />
    <glyph glyph-name="uni168F" unicode="&#x168f;" horiz-adv-x="1662" 
d="M1702 566h-276l-192 -766h-134l192 766h-134l-192 -766h-134l192 766h-134l-192 -766h-134l192 766h-134l-192 -766h-134l192 766h-134l-192 -766h-134l192 766h-260v60h276l192 766h134l-192 -766h134l192 766h134l-192 -766h134l192 766h134l-192 -766h134l192 766h134
l-192 -766h134l192 766h134l-192 -766h260v-60z" />
    <glyph glyph-name="uni1690" unicode="&#x1690;" horiz-adv-x="590" 
d="M630 566h-201l-134 -134l-134 134h-201v60h201l134 134l134 -134h201v-60z" />
    <glyph glyph-name="uni1691" unicode="&#x1691;" horiz-adv-x="858" 
d="M898 566h-201l-134 -134l-134 134l-134 -134l-134 134h-201v60h201l134 134l134 -134l134 134l134 -134h201v-60z" />
    <glyph glyph-name="uni1692" unicode="&#x1692;" horiz-adv-x="1126" 
d="M1166 566h-201l-134 -134l-134 134l-134 -134l-134 134l-134 -134l-134 134h-201v60h201l134 134l134 -134l134 134l134 -134l134 134l134 -134h201v-60z" />
    <glyph glyph-name="uni1693" unicode="&#x1693;" horiz-adv-x="1394" 
d="M1434 566h-201l-134 -134l-134 134l-134 -134l-134 134l-134 -134l-134 134l-134 -134l-134 134h-201v60h201l134 134l134 -134l134 134l134 -134l134 134l134 -134l134 134l134 -134h201v-60z" />
    <glyph glyph-name="uni1694" unicode="&#x1694;" horiz-adv-x="1662" 
d="M1702 566h-201l-134 -134l-134 134l-134 -134l-134 134l-134 -134l-134 134l-134 -134l-134 134l-134 -134l-134 134h-201v60h201l134 134l134 -134l134 134l134 -134l134 134l134 -134l134 134l134 -134l134 134l134 -134h201v-60z" />
    <glyph glyph-name="uni1695" unicode="&#x1695;" horiz-adv-x="590" 
d="M630 566h-260l192 -766h-134l-133 529l-133 -529h-134l192 766h-260v60h260l-192 766h134l133 -529l133 529h134l-192 -766h260v-60z" />
    <glyph glyph-name="uni1696" unicode="&#x1696;" horiz-adv-x="858" 
d="M898 566h-56l-413 -766l-413 766h-56v60h56l413 766l413 -766h56v-60zM708 626l-279 518l-279 -518h558zM708 566h-558l279 -518z" />
    <glyph glyph-name="uni1697" unicode="&#x1697;" horiz-adv-x="1126" 
d="M1166 566h-804v-632h402v264h-201v134h335v-532h-670v766h-268v60h1206v-60z" />
    <glyph glyph-name="uni1698" unicode="&#x1698;" horiz-adv-x="1126" 
d="M1166 566h-104l-278 -343l342 -423h-154l-265 328l-67 -83l198 -245h-154l-121 150l-121 -150h-154l198 245l-67 83l-265 -328h-154l342 423l-278 343h-104v60h1206v-60zM908 566h-134l-134 -165l67 -83zM620 566h-114l57 -70zM486 401l-134 165h-134l201 -248zM630 223
l-67 83l-67 -83l67 -83z" />
    <glyph glyph-name="uni1699" unicode="&#x1699;" horiz-adv-x="1394" 
d="M1434 566h-1474v60h268v134h-134v134h134v134h-134v134h134v134h-134v134h134v134h-134v134h134v134h134v-134h134v134h134v-134h134v134h134v-134h134v134h134v-134h134v-134h-134v-134h134v-134h-134v-134h134v-134h-134v-134h134v-134h-134v-134h268v-60zM1032 1430
v134h-134v-134h134zM764 1430v134h-134v-134h134zM1032 1162v134h-134v-134h134zM496 1430v134h-134v-134h134zM764 1162v134h-134v-134h134zM1032 894v134h-134v-134h134zM496 1162v134h-134v-134h134zM1032 626v134h-134v-134h134zM764 894v134h-134v-134h134zM496 894
v134h-134v-134h134zM764 626v134h-134v-134h134zM496 626v134h-134v-134h134z" />
    <glyph glyph-name="uni169A" unicode="&#x169a;" horiz-adv-x="1126" 
d="M1166 566h-1206v60h1206v-60zM961 372h-796v134h796v-134z" />
    <glyph glyph-name="uni169B" unicode="&#x169b;" horiz-adv-x="858" 
d="M898 566h-351l-413 -766h-134l429 796l-429 796h134l413 -766h351v-60z" />
    <glyph glyph-name="uni169C" unicode="&#x169c;" horiz-adv-x="858" 
d="M858 -200h-134l-413 766h-351v60h351l413 766h134l-429 -796z" />
    <glyph glyph-name="uni16A0" unicode="&#x16a0;" horiz-adv-x="1341" 
d="M356 985c52.667 10 102.501 28.002 149.501 54.002s88 58 123 96s62.667 81.333 83 130s30.5 101 30.5 157v12h165v-16c0 -72.667 -13.5 -141 -40.5 -205s-64.667 -122 -113 -174s-106.333 -96.667 -174 -134s-142.167 -66 -223.5 -86v-188
c67.333 13.333 132.166 32.833 194.499 58.5s120.833 56.834 175.5 93.501s104.667 78.167 150 124.5s84.166 96.5 116.499 150.5s57.333 111.667 75 173s26.5 125 26.5 191v12h165v-16c0 -74 -9.66699 -146.5 -29 -217.5s-47.166 -138.833 -83.499 -203.5
s-80.833 -125.334 -133.5 -182.001s-112.5 -107.834 -179.5 -153.501s-140.5 -84.834 -220.5 -117.501s-165.667 -57.667 -257 -75v-469h-168v1434h168v-449z" />
    <glyph glyph-name="uni16A1" unicode="&#x16a1;" horiz-adv-x="1341" 
d="M356 985c52.667 10 102.501 28.002 149.501 54.002s88 58 123 96s62.667 81.333 83 130s30.5 101 30.5 157v12h165v-16c0 -72.667 -13.5 -141 -40.5 -205s-64.667 -122 -113 -174s-106.333 -96.667 -174 -134s-142.167 -66 -223.5 -86v-188
c67.333 13.333 132.166 32.833 194.499 58.5s120.833 56.834 175.5 93.501s104.667 78.167 150 124.5s84.166 96.5 116.499 150.5s57.333 111.667 75 173s26.5 125 26.5 191v12h165v-16c0 -74 -9.66699 -146.5 -29 -217.5s-47.166 -138.833 -83.499 -203.5
s-80.833 -125.334 -133.5 -182.001s-112.5 -107.834 -179.5 -153.501s-140.5 -84.834 -220.5 -117.501s-165.667 -57.667 -257 -75v-469h-168v1434h168v-449zM535.001 1230c-28.667 0 -52.333 9.83301 -71 29.5s-28 43.834 -28 72.501c0 13.333 2.5 26.166 7.5 38.499
s11.833 23.166 20.5 32.499s19.167 16.833 31.5 22.5s25.5 8.5 39.5 8.5s27.167 -2.83301 39.5 -8.5s23 -13.167 32 -22.5s16.167 -20.166 21.5 -32.499s8 -25.166 8 -38.499c0 -28.667 -9.66699 -52.834 -29 -72.501s-43.333 -29.5 -72 -29.5z" />
    <glyph glyph-name="uni16A2" unicode="&#x16a2;" horiz-adv-x="1220" 
d="M874 779c0 67.333 -9.33496 131.665 -28.002 192.998s-46.667 115.333 -84 162s-84.166 83.834 -140.499 111.501s-121.833 41.5 -196.5 41.5h-69v-1287h-168v1434h241c94.667 0 179.834 -15.167 255.501 -45.5s140 -73.666 193 -129.999s93.667 -124.5 122 -204.5
s42.5 -169.667 42.5 -269v-785h-168v779z" />
    <glyph glyph-name="uni16A3" unicode="&#x16a3;" horiz-adv-x="1066" 
d="M355 1300h-9c3.33301 -44 5.83301 -90 7.5 -138s2.5 -94 2.5 -138v-1024h-168v1434h293l583 -1434h-190zM504 420h148v-420h-148v420z" />
    <glyph glyph-name="uni16A4" unicode="&#x16a4;" horiz-adv-x="1220" 
d="M874 779c0 67.333 -9.33496 131.665 -28.002 192.998s-46.667 115.333 -84 162s-84.166 83.834 -140.499 111.501s-121.833 41.5 -196.5 41.5h-69v-1287h-168v1434h241c94.667 0 179.834 -15.167 255.501 -45.5s140 -73.666 193 -129.999s93.667 -124.5 122 -204.5
s42.5 -169.667 42.5 -269v-785h-168v779zM613.998 640.999c-28.667 0 -52.333 9.83301 -71 29.5s-28 43.834 -28 72.501c0 13.333 2.5 26.166 7.5 38.499s11.833 23.166 20.5 32.499s19.167 16.833 31.5 22.5s25.5 8.5 39.5 8.5s27.167 -2.83301 39.5 -8.5
s23 -13.167 32 -22.5s16.167 -20.166 21.5 -32.499s8 -25.166 8 -38.499c0 -28.667 -9.66699 -52.834 -29 -72.501s-43.333 -29.5 -72 -29.5z" />
    <glyph glyph-name="uni16A5" unicode="&#x16a5;" horiz-adv-x="1260" 
d="M914 779c0 67.333 -9.83008 131.664 -29.4971 192.997s-48.834 115.333 -87.501 162s-86.667 83.834 -144 111.501s-123.333 41.5 -198 41.5h-99v-246c59.333 -4 111.666 -14.167 156.999 -30.5s83.166 -42.833 113.499 -79.5s53.333 -85 69 -145
s23.5 -135.333 23.5 -226v-560h-168v554c0 58 -3 107.333 -9 148s-16.5 74.334 -31.5 101.001s-35 47 -60 61s-56.5 23.333 -94.5 28v-892h-168v1434h271c94.667 0 180.334 -15.167 257.001 -45.5s142.167 -73.666 196.5 -129.999s96.166 -124.5 125.499 -204.5
s44 -169.667 44 -269v-785h-168v779z" />
    <glyph glyph-name="uni16A6" unicode="&#x16a6;" horiz-adv-x="976" 
d="M356 0l-168 0.000976562v1434h168v-176c88.667 -12.667 166.5 -33.5 233.5 -62.5s123 -65.167 168 -108.5s79 -93.666 102 -150.999s34.5 -120.333 34.5 -189c0 -69.333 -11.5 -132.5 -34.5 -189.5s-57 -107.333 -102 -151s-101 -79.834 -168 -108.501
s-144.833 -49.334 -233.5 -62.001v-236zM356 387.001c119.333 22.667 209.5 64.834 270.5 126.501s91.5 139.5 91.5 233.5c0 93.333 -30.5 170.666 -91.5 231.999s-151.167 104 -270.5 128v-720z" />
    <glyph glyph-name="uni16A7" unicode="&#x16a7;" horiz-adv-x="976" 
d="M531 645c-28.667 0 -52.333 9.83301 -71 29.5s-28 43.834 -28 72.501c0 13.333 2.5 26.166 7.5 38.499s11.833 23.166 20.5 32.499s19.167 16.833 31.5 22.5s25.5 8.5 39.5 8.5s27.167 -2.83301 39.5 -8.5s23 -13.167 32 -22.5s16.167 -20.166 21.5 -32.499
s8 -25.166 8 -38.499c0 -28.667 -9.66699 -52.834 -29 -72.501s-43.333 -29.5 -72 -29.5zM356.001 0l-168 0.000976562v1434h168v-176c88.667 -12.667 166.5 -33.5 233.5 -62.5s123 -65.167 168 -108.5s79 -93.666 102 -150.999s34.5 -120.333 34.5 -189
c0 -69.333 -11.5 -132.5 -34.5 -189.5s-57 -107.333 -102 -151s-101 -79.834 -168 -108.501s-144.833 -49.334 -233.5 -62.001v-236zM356.001 387.001c119.333 22.667 209.5 64.834 270.5 126.501s91.5 139.5 91.5 233.5c0 93.333 -30.5 170.666 -91.5 231.999
s-151.167 104 -270.5 128v-720z" />
    <glyph glyph-name="uni16A8" unicode="&#x16a8;" horiz-adv-x="760" 
d="M356 1060l322 -117v-165l-322 115v-893h-168v1434h168l322 -117v-167l-322 117v-207z" />
    <glyph glyph-name="uni16A9" unicode="&#x16a9;" horiz-adv-x="1081" 
d="M999 1433v-167l-321 -116l-322 117v-207l322 -117l321 116v-167l-321 -114l-322 115v-893h-168v1434h168l322 -117z" />
    <glyph glyph-name="uni16AA" unicode="&#x16aa;" horiz-adv-x="1081" 
d="M999 1433v-167l-321 -116l-322 117v-207l322 -117v-165l-322 115v-893h-168v1434h168l322 -117z" />
    <glyph glyph-name="uni16AB" unicode="&#x16ab;" horiz-adv-x="956" 
d="M356 1060l518 -186v-165l-518 184v-893h-168v1434h168l518 -186v-167l-518 186v-207z" />
    <glyph glyph-name="uni16AC" unicode="&#x16ac;" horiz-adv-x="976" 
d="M82 1157l322 -117v394h168v-455l322 -116v-165l-322 115v-208l322 -116v-165l-322 115v-439h-168v500l-322 116v167l322 -117v208l-322 116v167z" />
    <glyph glyph-name="uni16AD" unicode="&#x16ad;" horiz-adv-x="760" 
d="M188 1434h168v-455l322 -116v-165l-322 115v-208l322 -116v-165l-322 115v-439h-168v1434z" />
    <glyph glyph-name="uni16AE" unicode="&#x16ae;" horiz-adv-x="760" 
d="M572 0h-168v439l-322 -115v165l322 116v208l-322 -115v165l322 116v455h168v-1434z" />
    <glyph glyph-name="uni16AF" unicode="&#x16af;" horiz-adv-x="976" 
d="M894 990l-322 -116v-208l322 117v-167l-322 -116v-500h-168v440l-322 -116v165l322 116v209l-322 -116v165l322 116v455h168v-394l322 117v-167z" />
    <glyph glyph-name="uni16B0" unicode="&#x16b0;" horiz-adv-x="976" 
d="M894 990l-322 -116v-874h-168v440l-322 -116v165l322 116v209l-322 -116v165l322 116v455h168v-394l322 117v-167z" />
    <glyph glyph-name="uni16B1" unicode="&#x16b1;" horiz-adv-x="1076" 
d="M366 1262h-10v-1262h-168v1434h168l612 -315v-95l-324 -303l383 -721h-203l-347 700v53l302 294z" />
    <glyph glyph-name="uni16B2" unicode="&#x16b2;" horiz-adv-x="647" 
d="M557 344h-186l-299 336l299 344h188l-305 -344z" />
    <glyph glyph-name="uni16B3" unicode="&#x16b3;" horiz-adv-x="824" 
d="M356 724l466 -724h-192l-139 227l-43 72c-13.333 22.667 -25.833 45 -37.5 67l-33.5 65l-32 66h-4c4 -40 7.5 -82.5 10.5 -127.5s4.5 -92.5 4.5 -142.5v-227h-168v1434h168v-710z" />
    <glyph glyph-name="uni16B4" unicode="&#x16b4;" horiz-adv-x="1110" 
d="M356 807c68 16.667 132 41.333 192 74s112.5 74 157.5 124s80.667 109.167 107 177.5s39.5 146.833 39.5 235.5v16h176v-12c0 -97.333 -16.333 -189 -49 -275s-78.5 -162.833 -137.5 -230.5s-129.667 -125 -212 -172s-173.5 -80.167 -273.5 -99.5v-645h-168v1434h168
v-627z" />
    <glyph glyph-name="uni16B5" unicode="&#x16b5;" horiz-adv-x="1110" 
d="M356 807c68 16.667 132 41.333 192 74s112.5 74 157.5 124s80.667 109.167 107 177.5s39.5 146.833 39.5 235.5v16h176v-12c0 -97.333 -16.333 -189 -49 -275s-78.5 -162.833 -137.5 -230.5s-129.667 -125 -212 -172s-173.5 -80.167 -273.5 -99.5v-645h-168v1434h168
v-627zM577 1108c-28.667 0 -52.333 9.83301 -71 29.5s-28 43.834 -28 72.501c0 13.333 2.5 26.166 7.5 38.499s11.833 23.166 20.5 32.499s19.167 16.833 31.5 22.5s25.5 8.5 39.5 8.5s27.167 -2.83301 39.5 -8.5s23 -13.167 32 -22.5s16.167 -20.166 21.5 -32.499
s8 -25.166 8 -38.499c0 -28.667 -9.66699 -52.834 -29 -72.501s-43.333 -29.5 -72 -29.5z" />
    <glyph glyph-name="uni16B6" unicode="&#x16b6;" horiz-adv-x="1110" 
d="M47 728c0 48 12.999 90.665 38.999 127.998s60 64.333 102 81v497h168v-497c23.333 -9.33301 44.333 -22.166 63 -38.499s34.334 -35.166 47.001 -56.499c54.667 22 105.667 50 153 84s88.166 74.833 122.499 122.5s61.333 102.167 81 163.5s29.5 130 29.5 206v16h176
v-12c0 -86 -12.833 -167.5 -38.5 -244.5s-61.834 -147.5 -108.501 -211.5s-103 -120.167 -169 -168.5s-139.333 -86.833 -220 -115.5c-7.33301 -38 -23.166 -71.333 -47.499 -100s-53.833 -49.667 -88.5 -63v-519h-168v519c-20.667 8 -39.667 19 -57 33
s-32.166 30 -44.499 48s-22 37.833 -29 59.5s-10.5 44.5 -10.5 68.5z" />
    <glyph glyph-name="uni16B7" unicode="&#x16b7;" horiz-adv-x="988" 
d="M958 0h-190.999l-249 515c-4 8 -7.83301 18.167 -11.5 30.5s-8.16699 26.166 -13.5 41.499h-3c-2.66699 -7.33301 -5.83398 -17.166 -9.50098 -29.499s-9.5 -26.5 -17.5 -42.5l-255 -515h-181l373 721l-351 713h189l220 -472l21.5 -50c7 -16.667 13.167 -33.667 18.5 -51
h3l22.5 58.5c7 17.667 13.833 33.167 20.5 46.5l227 468h181l-359 -711z" />
    <glyph glyph-name="uni16B8" unicode="&#x16b8;" horiz-adv-x="988" 
d="M745 1024l179.001 -303l-181 -295l215 -426h-191l-249 515c-4 8 -7.83301 18.167 -11.5 30.5s-8.16699 26.166 -13.5 41.499h-3c-2.66699 -7.33301 -5.83398 -17.166 -9.50098 -29.499s-9.5 -26.5 -17.5 -42.5l-255 -515h-181l222 430l-177 291l179 303l-202 410h189
l220 -472l21.5 -50c7 -16.667 13.167 -33.667 18.5 -51h3l22.5 58.5c7 17.667 13.833 33.167 20.5 46.5l227 468h181zM682.001 546l104 175l-104 178l-99 -176zM312.001 550l98 171l-97 177l-103 -177z" />
    <glyph glyph-name="uni16B9" unicode="&#x16b9;" horiz-adv-x="1076" 
d="M188 0v1434h168l612 -315v-95l-612 -382v-642h-168zM366 1262h-10v-443h10l392 241z" />
    <glyph glyph-name="uni16BA" unicode="&#x16ba;" horiz-adv-x="1230" 
d="M1042 0h-168v563l-518 186v-749h-168v1434h168v-518l518 -186v704h168v-1434z" />
    <glyph glyph-name="uni16BB" unicode="&#x16bb;" horiz-adv-x="1230" 
d="M1042 0h-168v376l-518 186v-562h-168v1434h168v-331l518 -186v517h168v-1434zM356 729l518 -186v207l-518 186v-207z" />
    <glyph glyph-name="uni16BC" unicode="&#x16bc;" horiz-adv-x="976" 
d="M82 1157l223 -177c19.333 -15.333 38.333 -31.666 57 -48.999s36 -34.333 52 -51c-2.66699 25.333 -4.66699 50.5 -6 75.5s-2 50.167 -2 75.5v403h164v-403c0 -25.333 -0.666992 -50.5 -2 -75.5s-3.33301 -50.167 -6 -75.5c16 16.667 33.333 33.667 52 51
s37.667 33.666 57 48.999l223 177v-191l-131 -103c-34.667 -28 -68.334 -51.667 -101.001 -71s-63.334 -36 -92.001 -50v-4c28.667 -14.667 59.334 -31.667 92.001 -51s66.334 -42.666 101.001 -69.999l131 -104v-189l-223 177c-19.333 15.333 -38.333 31.5 -57 48.5
s-36 33.833 -52 50.5c2.66699 -25.333 4.66699 -50.5 6 -75.5s2 -50.167 2 -75.5v-449h-164v449c0 25.333 0.666992 50.5 2 75.5s3.33301 50.167 6 75.5c-16 -16.667 -33.333 -33.5 -52 -50.5s-37.667 -33.167 -57 -48.5l-223 -177v189l131 104
c34.667 27.333 68.334 50.666 101.001 69.999s63.334 36.333 92.001 51v4c-28.667 14 -59.334 30.667 -92.001 50s-66.334 43 -101.001 71l-131 103v191z" />
    <glyph glyph-name="uni16BD" unicode="&#x16bd;" horiz-adv-x="544" 
d="M47 728c0 48 12.998 90.667 38.998 128s60 64.333 102 81v497h168v-497c42 -16.667 76 -43.667 102 -81s39 -80 39 -128c0 -24 -3.5 -46.833 -10.5 -68.5s-16.667 -41.5 -29 -59.5s-27.166 -34 -44.499 -48s-36.333 -25 -57 -33v-519h-168v519
c-20.667 8 -39.667 19 -57 33s-32.166 30 -44.499 48s-22 37.833 -29 59.5s-10.5 44.5 -10.5 68.5z" />
    <glyph glyph-name="uni16BE" unicode="&#x16be;" horiz-adv-x="976" 
d="M82 970l322 -117v581h168v-642l322 -116v-165l-322 115v-626h-168v687l-322 116v167z" />
    <glyph glyph-name="uni16BF" unicode="&#x16bf;" horiz-adv-x="760" 
d="M188 1434h168v-642l322 -116v-165l-322 115v-626h-168v1434z" />
    <glyph glyph-name="uni16C0" unicode="&#x16c0;" horiz-adv-x="976" 
d="M82 970l241.997 -88c22.667 24.667 49.334 43 80.001 55v497h168v-497c40 -16 72.833 -41.333 98.5 -76s39.834 -74.667 42.501 -120l181 -65v-165l-227 81c-12 -16 -26 -30.333 -42 -43s-33.667 -22.667 -53 -30v-519h-168v519c-20.667 8 -39.667 19 -57 33
s-32.166 30 -44.499 48s-22 37.833 -29 59.5s-10.5 44.5 -10.5 68.5v10l-181 65v167z" />
    <glyph glyph-name="uni16C1" unicode="&#x16c1;" horiz-adv-x="544" 
d="M356 0h-168v1434h168v-1434z" />
    <glyph glyph-name="uni16C2" unicode="&#x16c2;" horiz-adv-x="544" 
d="M47 728c0 48 12.998 90.667 38.998 128s60 64.333 102 81v497h168v-497c42 -16.667 76 -43.667 102 -81s39 -80 39 -128c0 -24 -3.5 -46.833 -10.5 -68.5s-16.667 -41.5 -29 -59.5s-27.166 -34 -44.499 -48s-36.333 -25 -57 -33v-519h-168v519
c-20.667 8 -39.667 19 -57 33s-32.166 30 -44.499 48s-22 37.833 -29 59.5s-10.5 44.5 -10.5 68.5z" />
    <glyph glyph-name="uni16C3" unicode="&#x16c3;" horiz-adv-x="1033" 
d="M557 511h-186l-299 336l299 344h188l-305 -344zM961 570l-301 -338h-186l303 338l-303 342h186z" />
    <glyph glyph-name="uni16C4" unicode="&#x16c4;" horiz-adv-x="748" 
d="M456 1163l315 -442l-315 -443v-278h-164v278l-315 443l315 442v271h164v-271zM296 466l4.00098 0.00195312c-2 23.333 -3.83301 49.166 -5.5 77.499s-2.5 64.166 -2.5 107.499v147c0 20.667 0.166992 39.167 0.5 55.5s0.666016 31.333 0.999023 45s1 26.5 2 38.5
s2.16699 24 3.5 36h-4l-177 -252zM453.001 973.002l-4 -0.00292969c2 -23.333 3.66699 -48.166 5 -74.499s2 -59.833 2 -100.5v-147c0 -43.333 -0.5 -79.166 -1.5 -107.499s-2.83301 -54.166 -5.5 -77.499h3l178 255z" />
    <glyph glyph-name="uni16C5" unicode="&#x16c5;" horiz-adv-x="976" 
d="M894 803l-322 -116v-687h-168v627l-322 -116v165l322 116v642h168v-581l322 117v-167z" />
    <glyph glyph-name="uni16C6" unicode="&#x16c6;" horiz-adv-x="760" 
d="M572 0h-168v627l-322 -116v165l322 116v642h168v-1434z" />
    <glyph glyph-name="uni16C7" unicode="&#x16c7;" horiz-adv-x="976" 
d="M404 1434h139l351 -126v-165l-322 115v-1258h-141l-349 126v167l322 -117v1258z" />
    <glyph glyph-name="uni16C8" unicode="&#x16c8;" horiz-adv-x="1081" 
d="M678 117l-322 -117h-168v1434h168l322 -117l321 116v-167l-321 -116l-322 117v-1100l322 117l321 -116v-167z" />
    <glyph glyph-name="uni16C9" unicode="&#x16c9;" horiz-adv-x="1104" 
d="M636 0h-167.999v710l-466 724h192l139 -227l43 -72.5c13.333 -23 25.666 -45.333 36.999 -67l33 -64.5c10.667 -21.333 21 -43.333 31 -66h5c-4 40 -7.33301 82.5 -10 127.5s-4 92.5 -4 142.5v227h168v-227c0 -50 -1.5 -97.5 -4.5 -142.5s-6.5 -87.5 -10.5 -127.5h4
l32 66l33.5 65c11.667 22 24.167 44.333 37.5 67l43 72l139 227h192l-466 -724v-710z" />
    <glyph glyph-name="uni16CA" unicode="&#x16ca;" horiz-adv-x="785" 
d="M482 1l-434 343v14l399 396l-395 327v14l428 339h237l-434 -343l373 -308v-35l-376 -376l469 -371h-267z" />
    <glyph glyph-name="uni16CB" unicode="&#x16cb;" horiz-adv-x="1170" 
d="M188 1434h168v-693l486 175h140v-916h-168v739l-486 -175h-140v870z" />
    <glyph glyph-name="uni16CC" unicode="&#x16cc;" horiz-adv-x="544" 
d="M356 717h-168v717h168v-717z" />
    <glyph glyph-name="uni16CD" unicode="&#x16cd;" horiz-adv-x="544" 
d="M47 728c0 48 12.9961 90.667 38.9961 128s60 64.333 102 81v497h168v-497c42 -16.667 76 -43.667 102 -81s39 -80 39 -128c0 -31.333 -5.83301 -60.666 -17.5 -87.999s-27.667 -51.166 -48 -71.499s-44.166 -36.333 -71.499 -48s-56.666 -17.5 -87.999 -17.5
s-60.666 5.83301 -87.999 17.5s-51.166 27.667 -71.499 48s-36.333 44.166 -48 71.499s-17.5 56.666 -17.5 87.999z" />
    <glyph glyph-name="uni16CE" unicode="&#x16ce;" horiz-adv-x="976" 
d="M572 676l322 254v-189l-406 -322l-406 322v189l322 -254v758h168v-758z" />
    <glyph glyph-name="uni16CF" unicode="&#x16cf;" horiz-adv-x="976" 
d="M572 0h-168v1208l-322 -254v189l406 322l406 -322v-189l-322 254v-1208z" />
    <glyph glyph-name="uni16D0" unicode="&#x16d0;" horiz-adv-x="760" 
d="M572 0h-168v1208l-322 -254v189l367 291h123v-1434z" />
    <glyph glyph-name="uni16D1" unicode="&#x16d1;" horiz-adv-x="760" 
d="M263 728c0 48 12.998 90.667 38.998 128s60 64.333 102 81v271l-322 -254v189l367 291h123v-497c42 -16.667 76 -43.667 102 -81s39 -80 39 -128c0 -24 -3.5 -46.833 -10.5 -68.5s-16.667 -41.5 -29 -59.5s-27.166 -34 -44.499 -48s-36.333 -25 -57 -33v-519h-168v519
c-20.667 8 -39.667 19 -57 33s-32.166 30 -44.499 48s-22 37.833 -29 59.5s-10.5 44.5 -10.5 68.5z" />
    <glyph glyph-name="uni16D2" unicode="&#x16d2;" horiz-adv-x="1076" 
d="M188 0v1434h178l592 -315v-95l-431 -274v-4l441 -286v-95l-612 -365h-168zM352 1282v-486l411 264zM352 689v-532l424 255z" />
    <glyph glyph-name="uni16D3" unicode="&#x16d3;" horiz-adv-x="760" 
d="M678 990l-322 -116v-208l322 117v-167l-322 -116v-500h-168v1434h168v-394l322 117v-167z" />
    <glyph glyph-name="uni16D4" unicode="&#x16d4;" horiz-adv-x="1089" 
d="M499 1434c70 0 133.998 -7.8291 191.998 -23.4961s107.833 -39.334 149.5 -71.001s74 -71.167 97 -118.5s34.5 -103 34.5 -167c0 -45.333 -6.83301 -86.5 -20.5 -123.5s-31.5 -69.333 -53.5 -97s-47.167 -50.334 -75.5 -68.001s-57.166 -30.167 -86.499 -37.5v-8
c30 -4.66699 59.833 -14.167 89.5 -28.5s56.334 -34 80.001 -59s43 -55.833 58 -92.5s22.5 -79.334 22.5 -128.001c0 -64 -12.333 -121.333 -37 -172s-58.834 -93.834 -102.501 -129.501s-95.167 -63 -154.5 -82s-123.666 -28.5 -192.999 -28.5h-311v1434h311z
M507.998 796.004c91.333 0 162.168 21.333 212.501 64s75.5 106.667 75.5 192c0 76.667 -24.833 134.167 -74.5 172.5s-123.834 57.5 -222.501 57.5h-147v-486h156zM352 638.004v-486h147c98.667 0 175.167 22.333 229.5 67s81.5 109.667 81.5 195
c0 42.667 -7.16699 78.334 -21.5 107.001s-34.833 51.667 -61.5 69s-58.5 29.666 -95.5 36.999s-78.167 11 -123.5 11h-156zM557 306.004c-28.667 0 -52.333 9.83301 -71 29.5s-28 43.834 -28 72.501c0 13.333 2.5 26.166 7.5 38.499s11.833 23.166 20.5 32.499
s19.167 16.833 31.5 22.5s25.5 8.5 39.5 8.5s27.167 -2.83301 39.5 -8.5s23 -13.167 32 -22.5s16.167 -20.166 21.5 -32.499s8 -25.166 8 -38.499c0 -28.667 -9.66699 -52.834 -29 -72.501s-43.333 -29.5 -72 -29.5zM557.001 947.004c-28.667 0 -52.333 9.83301 -71 29.5
s-28 43.834 -28 72.501c0 13.333 2.5 26.166 7.5 38.499s11.833 23.166 20.5 32.499s19.167 16.833 31.5 22.5s25.5 8.5 39.5 8.5s27.167 -2.83301 39.5 -8.5s23 -13.167 32 -22.5s16.167 -20.166 21.5 -32.499s8 -25.166 8 -38.499c0 -28.667 -9.66699 -52.834 -29 -72.501
s-43.333 -29.5 -72 -29.5z" />
    <glyph glyph-name="uni16D5" unicode="&#x16d5;" horiz-adv-x="1040" 
d="M1038 0h-220l-458 707h-4v-707h-168v1434h168v-674h4l445 674h195l-472 -686z" />
    <glyph glyph-name="uni16D6" unicode="&#x16d6;" horiz-adv-x="1294" 
d="M188 0l0.000976562 1434h163l298 -358l298 358h159v-1434h-168v976c0 22 0.166992 44.333 0.5 67s1 44.834 2 66.501s2.16699 42 3.5 61s2.66602 35.5 3.99902 49.5h-10l-50 -71.5c-16 -23 -34.667 -47.167 -56 -72.5l-152 -182h-62l-152 182
c-21.333 26 -40.666 51.167 -57.999 75.5l-53 74.5h-9c1.33301 -14.667 2.66602 -31.667 3.99902 -51s2.5 -40 3.5 -62s1.66699 -44.667 2 -68s0.5 -46.333 0.5 -69v-976h-168z" />
    <glyph glyph-name="uni16D7" unicode="&#x16d7;" horiz-adv-x="1294" 
d="M1106 1434v-1434h-168v509l-289 348l-293 -348v-509h-168v1434h163l298 -358l298 358h159zM466 1076c-21.333 26 -40.666 51.167 -57.999 75.5l-53 74.5h-9c3.33301 -24.667 5.83301 -49.5 7.5 -74.5s2.5 -50.167 2.5 -75.5v-219c0 -25.333 -0.833008 -50.333 -2.5 -75
s-4.16699 -49 -7.5 -73h10l52 73.5c17.333 23.667 36.666 48.5 57.999 74.5l91 109zM831 857c21.333 -26 40.333 -50.499 57 -73.499l50 -71.5h10c-3.33301 23.333 -5.83301 47 -7.5 71s-2.5 48.667 -2.5 74v219c0 24 0.833008 48.167 2.5 72.5s4.16699 48.166 7.5 71.499
h-10l-50 -71.5c-16 -23 -34.667 -47.167 -56 -72.5l-92 -110z" />
    <glyph glyph-name="uni16D8" unicode="&#x16d8;" horiz-adv-x="1154" 
d="M493 0l-0.00390625 880c-67.333 9.33301 -125.166 29.166 -173.499 59.499s-88.166 68.333 -119.499 114s-54.5 97.167 -69.5 154.5s-22.5 117.333 -22.5 180v46h168v-46c0 -206.667 72.333 -325.334 217 -356.001v402h168v-402c144.667 30.667 217 149.334 217 356.001
v46h168v-46c0 -62.667 -7.5 -122.667 -22.5 -180s-38.167 -108.833 -69.5 -154.5s-71.166 -83.667 -119.499 -114s-106.166 -50.166 -173.499 -59.499v-880h-168z" />
    <glyph glyph-name="uni16D9" unicode="&#x16d9;" horiz-adv-x="544" 
d="M47 1233c0 31.333 5.83398 60.6689 17.501 88.002s27.667 51.166 48 71.499s44.166 36.333 71.499 48s56.666 17.5 87.999 17.5h8c30 -1.33301 58.333 -8 85 -20s49.667 -28.167 69 -48.5s34.666 -43.833 45.999 -70.5s17 -55.334 17 -86.001
c0 -24 -3.5 -46.833 -10.5 -68.5s-16.667 -41.5 -29 -59.5s-27.166 -34 -44.499 -48s-36.333 -25 -57 -33v-1024h-168v1024c-20.667 8 -39.667 19 -57 33s-32.166 30 -44.499 48s-22 37.833 -29 59.5s-10.5 44.5 -10.5 68.5z" />
    <glyph glyph-name="uni16DA" unicode="&#x16da;" horiz-adv-x="760" 
d="M188 1434h123l367 -291v-189l-322 254v-1208h-168v1434z" />
    <glyph glyph-name="uni16DB" unicode="&#x16db;" horiz-adv-x="760" 
d="M47 728c0 48 12.998 90.667 38.998 128s60 64.333 102 81v497h123l367 -291v-189l-322 254v-271c42 -16.667 76 -43.667 102 -81s39 -80 39 -128c0 -24 -3.5 -46.833 -10.5 -68.5s-16.667 -41.5 -29 -59.5s-27.166 -34 -44.499 -48s-36.333 -25 -57 -33v-519h-168v519
c-20.667 8 -39.667 19 -57 33s-32.166 30 -44.499 48s-22 37.833 -29 59.5s-10.5 44.5 -10.5 68.5z" />
    <glyph glyph-name="uni16DC" unicode="&#x16dc;" horiz-adv-x="928" 
d="M27 694v46l437 463l437 -463v-46l-437 -463zM464 975l-239 -250l239 -257l239 257z" />
    <glyph glyph-name="uni16DD" unicode="&#x16dd;" horiz-adv-x="1002" 
d="M64 0l325 349l-325 345v46l329 349l-329 345h219l218 -231l218 231h219l-329 -345l329 -349v-46l-326 -345l326 -349h-219l-218 231l-218 -231h-219zM501 975l-239 -250l239 -257l239 257z" />
    <glyph glyph-name="uni16DE" unicode="&#x16de;" horiz-adv-x="1294" 
d="M1106 1434v-1434h-150l-307 573l-307 -573h-154v1434h163l298 -556l298 556h159zM485 878l-68.5 132.002l-66.5 133h-7c2.66699 -42.667 4.16699 -87 4.5 -133s0.5 -90 0.5 -132v-305c0 -42.667 -0.166992 -86.834 -0.5 -132.501s-1.83301 -89.834 -4.5 -132.501h7
l66.5 133.5l68.5 131.5l82 152zM944 1136l-65 -129.498l-66 -128.5l-82 -153l81 -152l66.5 -128.5l65.5 -129.5h7c-2.66699 41.333 -4.16699 84.166 -4.5 128.499s-0.5 87.5 -0.5 129.5v305c0 41.333 0.166992 84.166 0.5 128.499s1.83301 87.5 4.5 129.5h-7z" />
    <glyph glyph-name="uni16DF" unicode="&#x16df;" horiz-adv-x="962" 
d="M44 874l437 584l437 -584v-46l-341 -456l279 -372h-193l-182 244l-183 -244h-192l279 372l-341 456v46zM481 500l262 351l-262 351l-263 -351z" />
    <glyph glyph-name="uni16E0" unicode="&#x16e0;" horiz-adv-x="1146" 
d="M1064 1458v-195.003l-227 -218l-91 79l-45.5 41.5c-14.333 13.667 -28.833 29.834 -43.5 48.501v-1214h-168v1216c-15.333 -19.333 -30 -36.166 -44 -50.499s-29 -28.166 -45 -41.499l-91 -79l-227 218v195l234 -220l257 220l257 -220z" />
    <glyph glyph-name="uni16E1" unicode="&#x16e1;" horiz-adv-x="976" 
d="M82 1157l223 -177c19.333 -15.333 38.333 -31.666 57 -48.999s36 -34.333 52 -51c-2.66699 25.333 -4.66699 50.5 -6 75.5s-2 50.167 -2 75.5v403h164v-403c0 -25.333 -0.666992 -50.5 -2 -75.5s-3.33301 -50.167 -6 -75.5c16 16.667 33.333 33.667 52 51
s37.667 33.666 57 48.999l223 177v-191l-131 -103c-34.667 -28 -68.334 -51.667 -101.001 -71s-63.334 -36 -92.001 -50v-4c28.667 -14.667 59.334 -31.667 92.001 -51s66.334 -42.666 101.001 -69.999l131 -104v-189l-223 177c-19.333 15.333 -38.333 31.5 -57 48.5
s-36 33.833 -52 50.5c2.66699 -25.333 4.66699 -50.5 6 -75.5s2 -50.167 2 -75.5v-449h-164v449c0 25.333 0.666992 50.5 2 75.5s3.33301 50.167 6 75.5c-16 -16.667 -33.333 -33.5 -52 -50.5s-37.667 -33.167 -57 -48.5l-223 -177v189l131 104
c34.667 27.333 68.334 50.666 101.001 69.999s63.334 36.333 92.001 51v4c-28.667 14 -59.334 30.667 -92.001 50s-66.334 43 -101.001 71l-131 103v191z" />
    <glyph glyph-name="uni16E2" unicode="&#x16e2;" horiz-adv-x="1146" 
d="M82 -24v195l227 218l180 -156v1201h112l229 -196l234 220v-195l-227 -218l-180 156v-1201h-112l-229 196z" />
    <glyph glyph-name="uni16E3" unicode="&#x16e3;" horiz-adv-x="1104" 
d="M636 724l465.999 -724h-192l-139 227l-43 72c-13.333 22.667 -25.833 45 -37.5 67l-33.5 65l-32 66h-4c4 -40 7.5 -82.5 10.5 -127.5s4.5 -92.5 4.5 -142.5v-227h-168v227c0 50 1.33301 97.5 4 142.5s6 87.5 10 127.5h-5c-10 -22.667 -20.333 -44.667 -31 -66l-33 -64.5
c-11.333 -21.667 -23.666 -44 -36.999 -67l-43 -72.5l-139 -227h-192l466 724v710h168v-710z" />
    <glyph glyph-name="uni16E4" unicode="&#x16e4;" horiz-adv-x="988" 
d="M561 968l4.00098 -0.00195312c14.667 42 30.167 83.667 46.5 125s34.833 83.333 55.5 126l104 215h181l-207 -410l179 -303l-181 -295l215 -426h-191l-105 218c-21.333 44 -40.333 89.5 -57 136.5s-30 92.5 -40 136.5h-4v-491h-131v491h-4
c-13.333 -44 -29.333 -89.167 -48 -135.5s-39.334 -92.166 -62.001 -137.499l-108 -218h-181l223 431l-178 290l179 303l-202 410h189l100 -214c20 -43.333 36.833 -85.666 50.5 -126.999s26.167 -83 37.5 -125h4v466h131v-466zM682.001 545.998l104 175l-104 178l-99 -176z
M312.001 549.998l98 171l-97 177l-103 -177z" />
    <glyph glyph-name="uni16E5" unicode="&#x16e5;" horiz-adv-x="1294" 
d="M1106 1434v-1434h-158l-302 219l-301 -219h-157v1434h157l301 -220l302 220h158zM348 599l298 -211l300 212v234l-300 211l-298 -210v-236zM946 1000v259l-186 -129zM946 175v259l-186 -130zM348 433v-258l184 129zM348 1258v-257l184 129z" />
    <glyph glyph-name="uni16E6" unicode="&#x16e6;" horiz-adv-x="1154" 
d="M661 1434l0.00390625 -880c67.333 -9.33301 125.166 -29.333 173.499 -60s88.166 -68.834 119.499 -114.501s54.5 -97 69.5 -154s22.5 -116.833 22.5 -179.5v-46h-168v46c0 206 -72.333 324.333 -217 355v-401h-168v401c-144.667 -30.667 -217 -149 -217 -355v-46h-168
v46c0 62.667 7.5 122.5 22.5 179.5s38.167 108.333 69.5 154s71.166 83.834 119.499 114.501s106.166 50.667 173.499 60v880h168z" />
    <glyph glyph-name="uni16E7" unicode="&#x16e7;" horiz-adv-x="544" 
d="M356 0h-168v717h168v-717z" />
    <glyph glyph-name="uni16E8" unicode="&#x16e8;" horiz-adv-x="976" 
d="M572 232l322 254v-189l-406 -322l-406 322v189l322 -254v976l-322 -254v189l406 322l406 -322v-189l-322 254v-976z" />
    <glyph glyph-name="uni16E9" unicode="&#x16e9;" horiz-adv-x="1076" 
d="M720 0v642l-612 382v95l612 315h168v-1434h-168zM318 1060l392 -241h10v443h-10z" />
    <glyph glyph-name="uni16EA" unicode="&#x16ea;" horiz-adv-x="1244" 
d="M623 247v139h228v353l-486 -175h-140v484h-215v139h215v247h168v-247h229v-139h-229v-307l486 175h140v-530h215v-139h-215v-247h-168v247h-228z" />
    <glyph glyph-name="uni16EB" unicode="&#x16eb;" horiz-adv-x="600" 
d="M75 728c0 31.333 5.83301 60.666 17.5 87.999s27.667 51.166 48 71.499s44.166 36.333 71.499 48s56.666 17.5 87.999 17.5s60.666 -5.83301 87.999 -17.5s51.166 -27.667 71.499 -48s36.333 -44.166 48 -71.499s17.5 -56.666 17.5 -87.999
s-5.83301 -60.666 -17.5 -87.999s-27.667 -51.166 -48 -71.499s-44.166 -36.333 -71.499 -48s-56.666 -17.5 -87.999 -17.5s-60.666 5.83301 -87.999 17.5s-51.166 27.667 -71.499 48s-36.333 44.166 -48 71.499s-17.5 56.666 -17.5 87.999z" />
    <glyph glyph-name="uni16EC" unicode="&#x16ec;" horiz-adv-x="444" 
d="M221 875c-32 0 -58.334 10.833 -79.001 32.5s-31 48.5 -31 80.5c0 14.667 2.83301 28.834 8.5 42.501s13.334 25.834 23.001 36.501s21.167 19 34.5 25s28 9 44 9s30.833 -3 44.5 -9s25.667 -14.333 36 -25s18.333 -22.834 24 -36.501s8.5 -27.834 8.5 -42.501
c0 -16 -2.83301 -30.833 -8.5 -44.5s-13.667 -25.5 -24 -35.5s-22.333 -18 -36 -24s-28.5 -9 -44.5 -9zM220.999 337c-32 0 -58.334 10.833 -79.001 32.5s-31 48.5 -31 80.5c0 14.667 2.83301 28.834 8.5 42.501s13.334 25.834 23.001 36.501s21.167 19 34.5 25s28 9 44 9
s30.833 -3 44.5 -9s25.667 -14.333 36 -25s18.333 -22.834 24 -36.501s8.5 -27.834 8.5 -42.501c0 -16 -2.83301 -30.833 -8.5 -44.5s-13.667 -25.5 -24 -35.5s-22.333 -18 -36 -24s-28.5 -9 -44.5 -9z" />
    <glyph glyph-name="uni16ED" unicode="&#x16ed;" horiz-adv-x="1316" 
d="M714 775l414 80v-254l-414 80l70 -423h-252l80 423l-424 -80v254l424 -80l-80 423h252z" />
    <glyph glyph-name="uni16EE" unicode="&#x16ee;" horiz-adv-x="976" 
d="M404 1434h123l367 -291v-189l-322 254v-1208h-168v627l-322 -116v165l322 116v642z" />
    <glyph glyph-name="uni16EF" unicode="&#x16ef;" horiz-adv-x="1154" 
d="M661 1434v-402c144.667 30.667 217 149.334 217 356.001v46h168v-46c0 -62.667 -7.5 -122.667 -22.5 -180s-38.167 -108.833 -69.5 -154.5s-71.166 -83.667 -119.499 -114s-106.166 -50.166 -173.499 -59.499v-326c67.333 -9.33301 125.166 -29.333 173.499 -60
s88.166 -68.834 119.499 -114.501s54.5 -97 69.5 -154s22.5 -116.833 22.5 -179.5v-46h-168v46c0 206 -72.333 324.333 -217 355v-401h-168v401c-144.667 -30.667 -217 -149 -217 -355v-46h-168v46c0 62.667 7.5 122.5 22.5 179.5s38.167 108.333 69.5 154
s71.166 83.834 119.499 114.501s106.166 50.667 173.499 60v326c-67.333 9.33301 -125.166 29.166 -173.499 59.499s-88.166 68.333 -119.499 114s-54.5 97.167 -69.5 154.5s-22.5 117.333 -22.5 180v46h168v-46c0 -206.667 72.333 -325.334 217 -356.001v402h168z" />
    <glyph glyph-name="uni16F0" unicode="&#x16f0;" horiz-adv-x="1166" 
d="M501 189c-67.333 7.33301 -126.333 25.335 -177 54.002s-93 65.667 -127 111s-59.667 98.166 -77 158.499s-26 126.166 -26 197.499c0 76.667 9.33301 146.167 28 208.5s45.5 116.666 80.5 162.999s77.667 83.833 128 112.5s107.166 48 170.499 58v182h164v-179
c64 -7.33301 121.333 -24.666 172 -51.999s93.334 -63.5 128.001 -108.5s61.167 -98.5 79.5 -160.5s27.5 -131.333 27.5 -208c0 -69.333 -8.83301 -134.333 -26.5 -195s-43.667 -114.5 -78 -161.5s-76.833 -85.833 -127.5 -116.5s-109 -51 -175 -61v-192h-164v189z
M896 720.002c0 110.667 -19.167 199.001 -57.5 265.001s-96.166 107.667 -173.499 125v-777c77.333 17.333 135.166 58.666 173.499 123.999s57.5 153 57.5 263zM270 716.003c0 -105.333 19.6689 -190.833 59.002 -256.5s96.666 -107.5 171.999 -125.5v775
c-76.667 -18 -134.334 -61 -173.001 -129s-58 -156 -58 -264z" />
    <glyph glyph-name="uni2000" unicode="&#x2000;" horiz-adv-x="1024" 
 />
    <glyph glyph-name="uni2001" unicode="&#x2001;" 
 />
    <glyph glyph-name="uni2002" unicode="&#x2002;" horiz-adv-x="1024" 
 />
    <glyph glyph-name="uni2003" unicode="&#x2003;" 
 />
    <glyph glyph-name="uni2004" unicode="&#x2004;" horiz-adv-x="687" 
 />
    <glyph glyph-name="uni2005" unicode="&#x2005;" horiz-adv-x="512" 
 />
    <glyph glyph-name="uni2006" unicode="&#x2006;" horiz-adv-x="341" 
 />
    <glyph glyph-name="uni2007" unicode="&#x2007;" horiz-adv-x="1104" 
 />
    <glyph glyph-name="uni2008" unicode="&#x2008;" horiz-adv-x="444" 
 />
    <glyph glyph-name="uni2009" unicode="&#x2009;" horiz-adv-x="410" 
 />
    <glyph glyph-name="uni200A" unicode="&#x200a;" horiz-adv-x="256" 
 />
    <glyph glyph-name="uni200B" unicode="&#x200b;" horiz-adv-x="0" 
 />
    <glyph glyph-name="uni200C" unicode="&#x200c;" horiz-adv-x="0" 
d="M36 1750v-2158h-72v2158h72z" />
    <glyph glyph-name="uni200D" unicode="&#x200d;" horiz-adv-x="0" 
d="M36 -408h-72v1859l-134 -136l-49 49l171 169l-171 168l49 49l170 -171l170 171l49 -49l-171 -168l171 -169l-49 -49l-134 136v-1859z" />
    <glyph glyph-name="uni200E" unicode="&#x200e;" horiz-adv-x="0" 
d="M431 1535l-217 -214l-49 49l137 130h-266v-1908h-72v1979h338l-137 130l49 49z" />
    <glyph glyph-name="uni200F" unicode="&#x200f;" horiz-adv-x="0" 
d="M36 -408h-72v1908h-266l137 -130l-49 -49l-217 214l217 215l49 -49l-137 -130h338v-1979z" />
    <glyph glyph-name="uni2010" unicode="&#x2010;" horiz-adv-x="819" 
d="M690 506h-546v129h546v-129z" />
    <glyph glyph-name="uni2011" unicode="&#x2011;" horiz-adv-x="819" 
d="M690 506h-546v129h546v-129z" />
    <glyph glyph-name="figuredash" unicode="&#x2012;" horiz-adv-x="1401" 
d="M1172 530h-940v134h940v-134z" />
    <glyph glyph-name="endash" unicode="&#x2013;" horiz-adv-x="1024" 
d="M1024 506h-1024v129h1024v-129z" />
    <glyph glyph-name="emdash" unicode="&#x2014;" 
d="M2048 506h-2048v129h2048v-129z" />
    <glyph glyph-name="afii00208" unicode="&#x2015;" 
d="M2048 506h-2048v129h2048v-129z" />
    <glyph glyph-name="uni2016" unicode="&#x2016;" horiz-adv-x="811" 
d="M320 -482h-148v2048h148v-2048zM639 -482h-148v2048h148v-2048z" />
    <glyph glyph-name="underscoredbl" unicode="&#x2017;" horiz-adv-x="850" 
d="M0 -277v119h850v-119h-850zM0 -514v119h850v-119h-850z" />
    <glyph glyph-name="quoteleft" unicode="&#x2018;" horiz-adv-x="469" 
d="M364 1458l-108 -446h-150l140 446h118z" />
    <glyph glyph-name="quoteright" unicode="&#x2019;" horiz-adv-x="469" 
d="M368 1458l-140 -446h-118l111 446h147z" />
    <glyph glyph-name="quotesinglbase" unicode="&#x201a;" horiz-adv-x="469" 
d="M346 217l-141 -445h-117l110 445h148z" />
    <glyph glyph-name="quotereversed" unicode="&#x201b;" horiz-adv-x="469" 
d="M368 1012h-116l-142 446h148z" />
    <glyph glyph-name="quotedblleft" unicode="&#x201c;" horiz-adv-x="772" 
d="M668 1458l-111 -446h-147l141 446h117zM364 1458l-108 -446h-150l140 446h118z" />
    <glyph glyph-name="quotedblright" unicode="&#x201d;" horiz-adv-x="772" 
d="M672 1458l-140 -446h-118l108 446h150zM368 1458l-140 -446h-118l111 446h147z" />
    <glyph glyph-name="quotedblbase" unicode="&#x201e;" horiz-adv-x="772" 
d="M649 217l-139 -445h-119l109 445h149zM346 217l-141 -445h-117l110 445h148z" />
    <glyph glyph-name="uni201F" unicode="&#x201f;" horiz-adv-x="772" 
d="M250 1458l108 -446h-118l-140 446h150zM551 1458l111 -446h-118l-140 446h147z" />
    <glyph glyph-name="dagger" unicode="&#x2020;" horiz-adv-x="768" 
d="M728 893l-262 30l-40 -694h-76l-40 694l-262 -30v150l302 -20l-40 410h156l-40 -410l302 20v-150z" />
    <glyph glyph-name="daggerdbl" unicode="&#x2021;" horiz-adv-x="768" 
d="M728 519l-302 20l40 -310h-156l40 310l-302 -20v150l262 -30l58 192l-58 192l-262 -30v150l302 -20l-40 310h156l-40 -310l302 20v-150l-262 30l-58 -192l58 -192l262 30v-150z" />
    <glyph glyph-name="bullet" unicode="&#x2022;" horiz-adv-x="832" 
d="M418 408c-69.333 0 -129 24.333 -179 73s-75 107.667 -75 177c0 68.667 25 128.167 75 178.5s109.667 75.5 179 75.5s128.333 -25 177 -75s73 -109.667 73 -179s-24.333 -128.333 -73 -177s-107.667 -73 -177 -73z" />
    <glyph glyph-name="uni2023" unicode="&#x2023;" horiz-adv-x="832" 
d="M164 408v504l504 -254z" />
    <glyph glyph-name="onedotenleader" unicode="&#x2024;" horiz-adv-x="498" 
d="M248 -18c-30.667 0 -56.334 10.667 -77.001 32s-31 47.333 -31 78s10.333 57.167 31 79.5s46.334 33.5 77.001 33.5c30 0 55.833 -11.167 77.5 -33.5s32.5 -48.833 32.5 -79.5s-10.667 -56.667 -32 -78s-47.333 -32 -78 -32z" />
    <glyph glyph-name="twodotenleader" unicode="&#x2025;" horiz-adv-x="1000" 
d="M750 -18c-30.667 0 -56.834 10.667 -78.501 32s-32.5 47.333 -32.5 78s10.833 57.167 32.5 79.5s47.834 33.5 78.501 33.5c30 0 55.833 -11.167 77.5 -33.5s32.5 -48.833 32.5 -79.5s-10.833 -56.667 -32.5 -78s-47.5 -32 -77.5 -32zM248 -18
c-30.667 0 -56.334 10.667 -77.001 32s-31 47.333 -31 78s10.333 57.167 31 79.5s46.334 33.5 77.001 33.5c30 0 55.833 -11.167 77.5 -33.5s32.5 -48.833 32.5 -79.5s-10.667 -56.667 -32 -78s-47.333 -32 -78 -32z" />
    <glyph glyph-name="ellipsis" unicode="&#x2026;" horiz-adv-x="1501" 
d="M1252 -18c-30.667 0 -56.5 10.667 -77.5 32s-31.5 47.333 -31.5 78s10.5 57.167 31.5 79.5s46.833 33.5 77.5 33.5c30 0 55.833 -11.167 77.5 -33.5s32.5 -48.833 32.5 -79.5s-10.833 -56.667 -32.5 -78s-47.5 -32 -77.5 -32zM750 -18
c-30.667 0 -56.834 10.667 -78.501 32s-32.5 47.333 -32.5 78s10.833 57.167 32.5 79.5s47.834 33.5 78.501 33.5c30 0 55.833 -11.167 77.5 -33.5s32.5 -48.833 32.5 -79.5s-10.833 -56.667 -32.5 -78s-47.5 -32 -77.5 -32zM248 -18c-30.667 0 -56.334 10.667 -77.001 32
s-31 47.333 -31 78s10.333 57.167 31 79.5s46.334 33.5 77.001 33.5c30 0 55.833 -11.167 77.5 -33.5s32.5 -48.833 32.5 -79.5s-10.667 -56.667 -32 -78s-47.333 -32 -78 -32z" />
    <glyph glyph-name="uni2027" unicode="&#x2027;" horiz-adv-x="444" 
d="M223 510c-30.667 0 -56.834 11 -78.501 33s-32.5 48.333 -32.5 79c0 31.333 10.833 58 32.5 80s47.834 33 78.501 33c31.333 0 58 -11 80 -33s33 -48.667 33 -80c0 -30.667 -11 -57 -33 -79s-48.667 -33 -80 -33z" />
    <glyph glyph-name="uni2028" unicode="&#x2028;" horiz-adv-x="2577" 
d="M100 1518v379h379v-138h-241v-241h-138zM2098 1759v138h379v-379h-138v241h-241zM100 -480v379h138v-241h241v-138h-379zM2098 -480v138h241v241h138v-379h-379zM1608 -480v138h339v-138h-339zM629 -480v138h339v-138h-339zM629 1759v138h339v-138h-339zM2477 49h-138
v339h138v-339zM2477 1028h-138v339h138v-339zM1119 -480v138h339v-138h-339zM238 49h-138v339h138v-339zM1119 1759v138h339v-138h-339zM1608 1759v138h339v-138h-339zM238 539h-138v339h138v-339zM238 1028h-138v339h138v-339zM2477 539h-138v339h138v-339zM1080 811v717
h119v-614h281v-103h-400zM1080 -75v717h388v-102h-269v-202h250v-102h-250v-208h286v-103h-405zM944 116c0 -26 -4.50098 -51.165 -13.501 -75.498s-23.667 -46 -44 -65s-46.833 -34.167 -79.5 -45.5s-72.334 -17 -119.001 -17c-15.333 0 -31.333 1.16699 -48 3.5
s-32.834 5.5 -48.501 9.5s-30 8.66699 -43 14s-23.5 10.666 -31.5 15.999v130c12 -11.333 25.5 -21.333 40.5 -30s30.667 -16 47 -22s32.666 -10.667 48.999 -14s32.166 -5 47.499 -5c22.667 0 41.5 2.66699 56.5 8s26.833 12.166 35.5 20.499s14.667 17.833 18 28.5
s5 21.334 5 32.001c0 14 -2.66699 26.833 -8 38.5s-13.666 23.167 -24.999 34.5s-26 22.666 -44 33.999s-39.667 23.666 -65 36.999c-30.667 16 -56.167 32 -76.5 48s-36.666 32.5 -48.999 49.5s-21.166 34.5 -26.499 52.5s-8 37 -8 57c0 28.667 5.83301 55.334 17.5 80.001
s28.167 45.834 49.5 63.501s46.833 31.5 76.5 41.5s62.834 15 99.501 15c16 0 32 -0.833008 48 -2.5s31 -3.83398 45 -6.50098s26.5 -5.66699 37.5 -9s19.5 -6.33301 25.5 -9v-125c-19.333 16 -43 28.5 -71 37.5s-56 13.5 -84 13.5c-37.333 0 -66.166 -8.5 -86.499 -25.5
s-30.5 -38.5 -30.5 -64.5c0 -14.667 2.16699 -27.667 6.5 -39s11.333 -22 21 -32s22.5 -20.167 38.5 -30.5s35.667 -21.5 59 -33.5c58 -30.667 102.167 -62.167 132.5 -94.5s45.5 -71.833 45.5 -118.5zM2112 420.002c0 -32.667 -6 -63.332 -18 -91.999
s-29.667 -53.834 -53 -75.501s-52 -38.667 -86 -51s-73 -18.5 -117 -18.5h-85v-258h-119v717h222c86 0 150.167 -20 192.5 -60s63.5 -94 63.5 -162zM1987 416.004c0 38.667 -12.5 69.333 -37.5 92s-63.167 34 -114.5 34h-82v-258h77c49.333 0 87.833 11 115.5 33
s41.5 55 41.5 99z" />
    <glyph glyph-name="uni2029" unicode="&#x2029;" horiz-adv-x="2577" 
d="M100 1518v379h379v-138h-241v-241h-138zM2098 1759v138h379v-379h-138v241h-241zM100 -480v379h138v-241h241v-138h-379zM2098 -480v138h241v241h138v-379h-379zM1608 -480v138h339v-138h-339zM629 -480v138h339v-138h-339zM629 1759v138h339v-138h-339zM2477 49h-138
v339h138v-339zM2477 1028h-138v339h138v-339zM1119 -480v138h339v-138h-339zM238 49h-138v339h138v-339zM1119 1759v138h339v-138h-339zM1608 1759v138h339v-138h-339zM238 539h-138v339h138v-339zM238 1028h-138v339h138v-339zM2477 539h-138v339h138v-339zM1080 -75v717
h388v-102h-269v-202h250v-102h-250v-208h286v-103h-405zM944 116c0 -26 -4.50098 -51.165 -13.501 -75.498s-23.667 -46 -44 -65s-46.833 -34.167 -79.5 -45.5s-72.334 -17 -119.001 -17c-15.333 0 -31.333 1.16699 -48 3.5s-32.834 5.5 -48.501 9.5s-30 8.66699 -43 14
s-23.5 10.666 -31.5 15.999v130c12 -11.333 25.5 -21.333 40.5 -30s30.667 -16 47 -22s32.666 -10.667 48.999 -14s32.166 -5 47.499 -5c22.667 0 41.5 2.66699 56.5 8s26.833 12.166 35.5 20.499s14.667 17.833 18 28.5s5 21.334 5 32.001c0 14 -2.66699 26.833 -8 38.5
s-13.666 23.167 -24.999 34.5s-26 22.666 -44 33.999s-39.667 23.666 -65 36.999c-30.667 16 -56.167 32 -76.5 48s-36.666 32.5 -48.999 49.5s-21.166 34.5 -26.499 52.5s-8 37 -8 57c0 28.667 5.83301 55.334 17.5 80.001s28.167 45.834 49.5 63.501
s46.833 31.5 76.5 41.5s62.834 15 99.501 15c16 0 32 -0.833008 48 -2.5s31 -3.83398 45 -6.50098s26.5 -5.66699 37.5 -9s19.5 -6.33301 25.5 -9v-125c-19.333 16 -43 28.5 -71 37.5s-56 13.5 -84 13.5c-37.333 0 -66.166 -8.5 -86.499 -25.5s-30.5 -38.5 -30.5 -64.5
c0 -14.667 2.16699 -27.667 6.5 -39s11.333 -22 21 -32s22.5 -20.167 38.5 -30.5s35.667 -21.5 59 -33.5c58 -30.667 102.167 -62.167 132.5 -94.5s45.5 -71.833 45.5 -118.5zM2112 420.002c0 -32.667 -6 -63.332 -18 -91.999s-29.667 -53.834 -53 -75.501
s-52 -38.667 -86 -51s-73 -18.5 -117 -18.5h-85v-258h-119v717h222c86 0 150.167 -20 192.5 -60s63.5 -94 63.5 -162zM1987 416.004c0 38.667 -12.5 69.333 -37.5 92s-63.167 34 -114.5 34h-82v-258h77c49.333 0 87.833 11 115.5 33s41.5 55 41.5 99zM1561 1306
c0 -32.667 -6 -63.332 -18 -91.999s-29.667 -53.834 -53 -75.501s-52 -38.667 -86 -51s-73 -18.5 -117 -18.5h-85v-258h-119v717h222c86 0 150.167 -20 192.5 -60s63.5 -94 63.5 -162zM1436 1302c0 38.667 -12.5 69.333 -37.5 92s-63.167 34 -114.5 34h-82v-258h77
c49.333 0 87.833 11 115.5 33s41.5 55 41.5 99z" />
    <glyph glyph-name="uni202A" unicode="&#x202a;" horiz-adv-x="2577" 
d="M100 1518v379h379v-138h-241v-241h-138zM2098 1759v138h379v-379h-138v241h-241zM100 -480v379h138v-241h241v-138h-379zM2098 -480v138h241v241h138v-379h-379zM1608 -480v138h339v-138h-339zM629 -480v138h339v-138h-339zM629 1759v138h339v-138h-339zM2477 49h-138
v339h138v-339zM2477 1028h-138v339h138v-339zM1119 -480v138h339v-138h-339zM238 49h-138v339h138v-339zM1119 1759v138h339v-138h-339zM1608 1759v138h339v-138h-339zM238 539h-138v339h138v-339zM238 1028h-138v339h138v-339zM2477 539h-138v339h138v-339zM520 358v717
h119v-614h281v-103h-400zM1659 358v717h388v-102h-269v-202h250v-102h-250v-208h286v-103h-405zM1399 358l-87.002 206.999c-13.333 30.667 -28.333 52.334 -45 65.001s-34.667 19 -54 19h-55v-291h-119v717h232c39.333 0 73.833 -4.66699 103.5 -14
s54.334 -22.5 74.001 -39.5s34.334 -37.333 44.001 -61s14.5 -49.834 14.5 -78.501c0 -52 -14.167 -95.167 -42.5 -129.5s-66.5 -57.166 -114.5 -68.499v-2c16.667 -5.33301 32 -17 46 -35s25.667 -36 35 -54l109 -235h-141zM1382 869.999c0 32 -10.667 57.666 -32 76.999
s-53.666 29 -96.999 29h-95v-227h93c20 0 38.167 3.16699 54.5 9.5s30.166 15 41.499 26s20 23.833 26 38.5s9 30.334 9 47.001z" />
    <glyph glyph-name="uni202B" unicode="&#x202b;" horiz-adv-x="2577" 
d="M100 1518v379h379v-138h-241v-241h-138zM2098 1759v138h379v-379h-138v241h-241zM100 -480v379h138v-241h241v-138h-379zM2098 -480v138h241v241h138v-379h-379zM1608 -480v138h339v-138h-339zM629 -480v138h339v-138h-339zM629 1759v138h339v-138h-339zM2477 49h-138
v339h138v-339zM2477 1028h-138v339h138v-339zM1119 -480v138h339v-138h-339zM238 49h-138v339h138v-339zM1119 1759v138h339v-138h-339zM1608 1759v138h339v-138h-339zM238 539h-138v339h138v-339zM238 1028h-138v339h138v-339zM2477 539h-138v339h138v-339zM1136 358v717
h119v-614h281v-103h-400zM1659 358v717h388v-102h-269v-202h250v-102h-250v-208h286v-103h-405zM880 358l-87.002 206.999c-13.333 30.667 -28.333 52.334 -45 65.001s-34.667 19 -54 19h-55v-291h-119v717h232c39.333 0 73.833 -4.66699 103.5 -14
s54.334 -22.5 74.001 -39.5s34.334 -37.333 44.001 -61s14.5 -49.834 14.5 -78.501c0 -52 -14.167 -95.167 -42.5 -129.5s-66.5 -57.166 -114.5 -68.499v-2c16.667 -5.33301 32 -17 46 -35s25.667 -36 35 -54l109 -235h-141zM862.998 869.999
c0 32 -10.667 57.666 -32 76.999s-53.666 29 -96.999 29h-95v-227h93c20 0 38.167 3.16699 54.5 9.5s30.166 15 41.499 26s20 23.833 26 38.5s9 30.334 9 47.001z" />
    <glyph glyph-name="afii61573" unicode="&#x202c;" horiz-adv-x="2577" 
d="M100 1518v379h379v-138h-241v-241h-138zM2098 1759v138h379v-379h-138v241h-241zM100 -480v379h138v-241h241v-138h-379zM2098 -480v138h241v241h138v-379h-379zM1608 -480v138h339v-138h-339zM629 -480v138h339v-138h-339zM629 1759v138h339v-138h-339zM2477 49h-138
v339h138v-339zM2477 1028h-138v339h138v-339zM1119 -480v138h339v-138h-339zM238 49h-138v339h138v-339zM1119 1759v138h339v-138h-339zM1608 1759v138h339v-138h-339zM238 539h-138v339h138v-339zM238 1028h-138v339h138v-339zM2477 539h-138v339h138v-339zM927 853
c0 -32.667 -6 -63.332 -18 -91.999s-29.667 -53.834 -53 -75.501s-52 -38.667 -86 -51s-73 -18.5 -117 -18.5h-85v-258h-119v717h222c86 0 150.167 -20 192.5 -60s63.5 -94 63.5 -162zM802 849.002c0 38.667 -12.5 69.333 -37.5 92s-63.167 34 -114.5 34h-82v-258h77
c49.333 0 87.833 11 115.5 33s41.5 55 41.5 99zM1645 726.001c0 -55.333 -9.16797 -105.667 -27.501 -151s-44.5 -84 -78.5 -116s-75 -56.833 -123 -74.5s-101.667 -26.5 -161 -26.5h-216v717h222c128.667 0 224.834 -29.5 288.501 -88.5s95.5 -145.833 95.5 -260.5z
M1519 724c0 79.333 -22.333 140.667 -67 184s-110 65 -196 65h-98v-512h96c42.667 0 80.5 6.16699 113.5 18.5s60.833 30 83.5 53s39.667 50.667 51 83s17 68.5 17 108.5zM1871 973.001v-212h249v-103h-249v-300h-119v717h388v-102h-269z" />
    <glyph glyph-name="afii61574" unicode="&#x202d;" horiz-adv-x="2577" 
d="M100 1518v379h379v-138h-241v-241h-138zM2098 1759v138h379v-379h-138v241h-241zM100 -480v379h138v-241h241v-138h-379zM2098 -480v138h241v241h138v-379h-379zM1608 -480v138h339v-138h-339zM629 -480v138h339v-138h-339zM629 1759v138h339v-138h-339zM2477 49h-138
v339h138v-339zM2477 1028h-138v339h138v-339zM1119 -480v138h339v-138h-339zM238 49h-138v339h138v-339zM1119 1759v138h339v-138h-339zM1608 1759v138h339v-138h-339zM238 539h-138v339h138v-339zM238 1028h-138v339h138v-339zM2477 539h-138v339h138v-339zM450 358v717
h119v-614h281v-103h-400zM1319 358l-87.002 206.999c-13.333 30.667 -28.333 52.334 -45 65.001s-34.667 19 -54 19h-55v-291h-119v717h232c39.333 0 73.833 -4.66699 103.5 -14s54.334 -22.5 74.001 -39.5s34.334 -37.333 44.001 -61s14.5 -49.834 14.5 -78.501
c0 -52 -14.167 -95.167 -42.5 -129.5s-66.5 -57.166 -114.5 -68.499v-2c16.667 -5.33301 32 -17 46 -35s25.667 -36 35 -54l109 -235h-141zM1302 869.999c0 32 -10.667 57.666 -32 76.999s-53.666 29 -96.999 29h-95v-227h93c20 0 38.167 3.16699 54.5 9.5
s30.166 15 41.499 26s20 23.833 26 38.5s9 30.334 9 47.001zM2195 724.998c0 -58 -8.33105 -110.332 -24.998 -156.999s-40.167 -86.5 -70.5 -119.5s-66.833 -58.333 -109.5 -76s-90.334 -26.5 -143.001 -26.5c-51.333 0 -97.833 8.83301 -139.5 26.5
s-77.334 42.5 -107.001 74.5s-52.667 70.167 -69 114.5s-24.5 93.166 -24.5 146.499c0 54.667 7.83301 105.334 23.5 152.001s38.5 86.834 68.5 120.501s66.833 60 110.5 79s93.5 28.5 149.5 28.5c50 0 95.5 -8.66699 136.5 -26s76.333 -41.833 106 -73.5
s52.667 -69.834 69 -114.501s24.5 -94.334 24.5 -149.001zM2069 713.999c0 44 -5.16602 82.832 -15.499 116.499s-24.833 61.834 -43.5 84.501s-41.167 39.667 -67.5 51s-55.833 17 -88.5 17c-34 0 -64.667 -6.5 -92 -19.5s-50.5 -31.333 -69.5 -55s-33.667 -51.667 -44 -84
s-15.5 -67.833 -15.5 -106.5c0 -42 5.5 -79.333 16.5 -112s26.167 -60.5 45.5 -83.5s42.166 -40.5 68.499 -52.5s54.833 -18 85.5 -18c32.667 0 62.5 5.5 89.5 16.5s50.167 27.5 69.5 49.5s34.333 49.333 45 82s16 70.667 16 114z" />
    <glyph glyph-name="afii61575" unicode="&#x202e;" horiz-adv-x="2577" 
d="M100 1518v379h379v-138h-241v-241h-138zM2098 1759v138h379v-379h-138v241h-241zM100 -480v379h138v-241h241v-138h-379zM2098 -480v138h241v241h138v-379h-379zM1608 -480v138h339v-138h-339zM629 -480v138h339v-138h-339zM629 1759v138h339v-138h-339zM2477 49h-138
v339h138v-339zM2477 1028h-138v339h138v-339zM1119 -480v138h339v-138h-339zM238 49h-138v339h138v-339zM1119 1759v138h339v-138h-339zM1608 1759v138h339v-138h-339zM238 539h-138v339h138v-339zM238 1028h-138v339h138v-339zM2477 539h-138v339h138v-339zM1056 358v717
h119v-614h281v-103h-400zM811 358l-87.002 207c-13.333 30.667 -28.333 52.334 -45 65.001s-34.667 19 -54 19h-55v-291h-119v717h232c39.333 0 73.833 -4.66699 103.5 -14s54.334 -22.5 74.001 -39.5s34.334 -37.333 44.001 -61s14.5 -49.834 14.5 -78.501
c0 -52 -14.167 -95.167 -42.5 -129.5s-66.5 -57.166 -114.5 -68.499v-2c16.667 -5.33301 32.167 -16.833 46.5 -34.5s25.833 -35.834 34.5 -54.501l109 -235h-141zM793.998 870c0 32 -10.667 57.666 -32 76.999s-53.666 29 -96.999 29h-95v-227h93
c20 0 38.167 3.16699 54.5 9.5s30.166 15 41.499 26s20 23.833 26 38.5s9 30.334 9 47.001zM2165 724.999c0 -58 -8.33105 -110.332 -24.998 -156.999s-40.167 -86.5 -70.5 -119.5s-66.833 -58.333 -109.5 -76s-90.334 -26.5 -143.001 -26.5
c-51.333 0 -97.833 8.83301 -139.5 26.5s-77.334 42.5 -107.001 74.5s-52.667 70.167 -69 114.5s-24.5 93.166 -24.5 146.499c0 54.667 7.83301 105.334 23.5 152.001s38.5 86.834 68.5 120.501s66.833 60 110.5 79s93.5 28.5 149.5 28.5c50 0 95.5 -8.66699 136.5 -26
s76.333 -41.833 106 -73.5s52.667 -69.834 69 -114.501s24.5 -94.334 24.5 -149.001zM2039 714c0 44 -5.16602 82.832 -15.499 116.499s-24.833 61.834 -43.5 84.501s-41.167 39.667 -67.5 51s-55.833 17 -88.5 17c-34 0 -64.667 -6.5 -92 -19.5s-50.5 -31.333 -69.5 -55
s-33.667 -51.667 -44 -84s-15.5 -67.833 -15.5 -106.5c0 -42 5.5 -79.333 16.5 -112s26.167 -60.5 45.5 -83.5s42.166 -40.5 68.499 -52.5s54.833 -18 85.5 -18c32.667 0 62.5 5.5 89.5 16.5s50.167 27.5 69.5 49.5s34.333 49.333 45 82s16 70.667 16 114z" />
    <glyph glyph-name="uni202F" unicode="&#x202f;" horiz-adv-x="561" 
 />
    <glyph glyph-name="perthousand" unicode="&#x2030;" horiz-adv-x="2478" 
d="M404 715c-98.667 0 -177.333 32.5 -236 97.5s-88 151.833 -88 260.5c0 118.667 31 212.167 93 280.5s145.667 102.5 251 102.5c102 0 181.167 -31.667 237.5 -95s84.5 -152.333 84.5 -267s-31.5 -206.5 -94.5 -275.5s-145.5 -103.5 -247.5 -103.5zM418.001 1346
c-63.333 0 -113.333 -23.501 -150 -70.501s-55 -111.5 -55 -193.5c0 -80.667 18 -143.5 54 -188.5s85 -67.5 147 -67.5c62.667 0 111.667 23.333 147 70s53 111.334 53 194.001c0 80.667 -17.5 143.5 -52.5 188.5s-82.833 67.5 -143.5 67.5zM1366 1434l-922 -1444h-143
l921 1444h144zM2056 -22.001c-98.667 0 -177.332 32.667 -235.999 98s-88 152 -88 260c0 118 31.5 211.667 94.5 281s146.167 104 249.5 104c102 0 181.167 -31.833 237.5 -95.5s84.5 -153.5 84.5 -269.5c0 -114 -31.333 -205.5 -94 -274.5s-145.334 -103.5 -248.001 -103.5
zM2070 607.999c-64 0 -113.999 -23.5 -149.999 -70.5s-54 -111.5 -54 -193.5c0 -80 17.833 -142.333 53.5 -187s84.5 -67 146.5 -67c63.333 0 112.666 23.5 147.999 70.5s53 111.5 53 193.5c0 80.667 -17.667 143.167 -53 187.5s-83.333 66.5 -144 66.5zM1258 -22.001
c-98.667 0 -177.333 32.667 -236 98s-88 152 -88 260c0 118.667 31.333 212.5 94 281.5s146 103.5 250 103.5c101.333 0 180.333 -32 237 -96s85 -153.667 85 -269c0 -114 -31.5 -205.5 -94.5 -274.5s-145.5 -103.5 -247.5 -103.5zM1272 607.999
c-64 0 -114.167 -23.332 -150.5 -69.999s-54.5 -111.334 -54.5 -194.001c0 -79.333 18 -141.5 54 -186.5s85 -67.5 147 -67.5c62.667 0 111.667 23.5 147 70.5s53 111.5 53 193.5c0 81.333 -17.5 144 -52.5 188s-82.833 66 -143.5 66z" />
    <glyph glyph-name="uni2031" unicode="&#x2031;" horiz-adv-x="3276" 
d="M404 715c-98.667 0 -177.333 32.5 -236 97.5s-88 151.833 -88 260.5c0 118.667 31 212.167 93 280.5s145.667 102.5 251 102.5c102 0 181.167 -31.667 237.5 -95s84.5 -152.333 84.5 -267s-31.5 -206.5 -94.5 -275.5s-145.5 -103.5 -247.5 -103.5zM418.001 1346
c-63.333 0 -113.333 -23.501 -150 -70.501s-55 -111.5 -55 -193.5c0 -80.667 18 -143.5 54 -188.5s85 -67.5 147 -67.5c62.667 0 111.667 23.333 147 70s53 111.334 53 194.001c0 80.667 -17.5 143.5 -52.5 188.5s-82.833 67.5 -143.5 67.5zM1366 1434l-922 -1444h-143
l921 1444h144zM2056 -22.001c-98.667 0 -177.332 32.667 -235.999 98s-88 152 -88 260c0 118 31.5 211.667 94.5 281s146.167 104 249.5 104c102 0 181.167 -31.833 237.5 -95.5s84.5 -153.5 84.5 -269.5c0 -114 -31.333 -205.5 -94 -274.5s-145.334 -103.5 -248.001 -103.5
zM2070 607.999c-64 0 -113.999 -23.5 -149.999 -70.5s-54 -111.5 -54 -193.5c0 -80 17.833 -142.333 53.5 -187s84.5 -67 146.5 -67c63.333 0 112.666 23.5 147.999 70.5s53 111.5 53 193.5c0 80.667 -17.667 143.167 -53 187.5s-83.333 66.5 -144 66.5zM1258 -22.001
c-98.667 0 -177.333 32.667 -236 98s-88 152 -88 260c0 118.667 31.333 212.5 94 281.5s146 103.5 250 103.5c101.333 0 180.333 -32 237 -96s85 -153.667 85 -269c0 -114 -31.5 -205.5 -94.5 -274.5s-145.5 -103.5 -247.5 -103.5zM1272 607.999
c-64 0 -114.167 -23.332 -150.5 -69.999s-54.5 -111.334 -54.5 -194.001c0 -79.333 18 -141.5 54 -186.5s85 -67.5 147 -67.5c62.667 0 111.667 23.5 147 70.5s53 111.5 53 193.5c0 81.333 -17.5 144 -52.5 188s-82.833 66 -143.5 66zM2854 -22
c-98.667 0 -177.333 32.667 -235.999 98c-58.667 65.333 -88 152 -88 260c0 118 31.5 211.667 94.5 281s146.167 104 249.5 104c102 0 181.167 -31.833 237.5 -95.5s84.5 -153.5 84.5 -269.5c0 -114 -31.333 -205.5 -94 -274.5s-145.334 -103.5 -248.001 -103.5z
M2868.01 608c-64 0 -114 -23.5 -150 -70.5s-54 -111.5 -54 -193.5c0 -80 17.833 -142.333 53.5 -187s84.5 -67 146.5 -67c63.333 0 112.666 23.5 148 70.5c35.333 47 53 111.5 53 193.5c0 80.667 -17.667 143.167 -53 187.5s-83.333 66.5 -144 66.5z" />
    <glyph glyph-name="minute" unicode="&#x2032;" horiz-adv-x="469" 
d="M350 1434l-104 -447h-116l86 447h134z" />
    <glyph glyph-name="second" unicode="&#x2033;" horiz-adv-x="772" 
d="M644 1434l-106 -447h-116l86 447h136zM361 1434l-105 -447h-115l85 447h135z" />
    <glyph glyph-name="uni2034" unicode="&#x2034;" horiz-adv-x="1054" 
d="M361 1434l-105 -447h-115l85 447h135zM926 1434l-106 -447h-116l86 447h136zM643 1434l-105 -447h-115l85 447h135z" />
    <glyph glyph-name="uni2035" unicode="&#x2035;" horiz-adv-x="469" 
d="M253 1434l86 -447h-116l-104 447h134z" />
    <glyph glyph-name="uni2036" unicode="&#x2036;" horiz-adv-x="772" 
d="M264 1434l86 -447h-116l-106 447h136zM546 1434l85 -447h-115l-105 447h135z" />
    <glyph glyph-name="uni2037" unicode="&#x2037;" horiz-adv-x="1054" 
d="M828 1434l85 -447h-115l-105 447h135zM264 1434l86 -447h-116l-106 447h136zM546 1434l85 -447h-115l-105 447h135z" />
    <glyph glyph-name="uni2038" unicode="&#x2038;" horiz-adv-x="648" 
d="M486 0l-164 229l-164 -229h-115l216 330h132l214 -330h-119z" />
    <glyph glyph-name="guilsinglleft" unicode="&#x2039;" horiz-adv-x="647" 
d="M557 200h-166l-299 336l299 344h168l-305 -344z" />
    <glyph glyph-name="guilsinglright" unicode="&#x203a;" horiz-adv-x="647" 
d="M559 538l-301 -338h-166l304 338l-304 342h166z" />
    <glyph glyph-name="uni203B" unicode="&#x203b;" 
d="M1653 1156l-534 -533l536 -535l-101 -88l-530 528l-530 -528l-96 93l531 530l-534 532l96 94l533 -531l533 532zM507 514c-15.333 0 -29.501 2.83496 -42.501 8.50195s-24.333 13.5 -34 23.5s-17.334 21.667 -23.001 35s-8.5 27.666 -8.5 42.999s2.83301 29.833 8.5 43.5
s13.334 25.667 23.001 36s21 18.5 34 24.5s27.167 9 42.5 9c14.667 0 28.667 -3 42 -9s25 -14.333 35 -25s18 -22.834 24 -36.501s9 -27.834 9 -42.501c0 -15.333 -2.83301 -29.666 -8.5 -42.999s-13.5 -25 -23.5 -35s-21.667 -17.833 -35 -23.5s-27.666 -8.5 -42.999 -8.5z
M1539 514.002c-15.333 0 -29.501 2.83496 -42.501 8.50195s-24.333 13.5 -34 23.5s-17.334 21.667 -23.001 35s-8.5 27.666 -8.5 42.999s2.83301 29.833 8.5 43.5s13.334 25.667 23.001 36s21 18.5 34 24.5s27.167 9 42.5 9c14.667 0 28.667 -3 42 -9s25 -14.333 35 -25
s18 -22.834 24 -36.501s9 -27.834 9 -42.501c0 -15.333 -2.83301 -29.666 -8.5 -42.999s-13.5 -25 -23.5 -35s-21.667 -17.833 -35 -23.5s-27.666 -8.5 -42.999 -8.5zM1135 108.004c0 -15.333 -2.83203 -29.501 -8.49902 -42.501s-13.5 -24.333 -23.5 -34
s-21.667 -17.334 -35 -23.001s-27.666 -8.5 -42.999 -8.5s-29.833 2.83301 -43.5 8.5s-25.667 13.334 -36 23.001s-18.5 21 -24.5 34s-9 27.167 -9 42.5c0 14.667 3 28.667 9 42s14.333 25 25 35s22.667 18 36 24s27.666 9 42.999 9s29.666 -2.83301 42.999 -8.5
s25 -13.5 35 -23.5s17.833 -21.667 23.5 -35s8.5 -27.666 8.5 -42.999zM1135 1140c0 -15.333 -2.83203 -29.501 -8.49902 -42.501s-13.5 -24.333 -23.5 -34s-21.667 -17.334 -35 -23.001s-27.666 -8.5 -42.999 -8.5s-29.833 2.83301 -43.5 8.5s-25.667 13.334 -36 23.001
s-18.5 21 -24.5 34s-9 27.167 -9 42.5c0 14.667 3 28.667 9 42s14.333 25 25 35s22.667 18 36 24s27.666 9 42.999 9s29.666 -2.83301 42.999 -8.5s25 -13.5 35 -23.5s17.833 -21.667 23.5 -35s8.5 -27.666 8.5 -42.999z" />
    <glyph glyph-name="exclamdbl" unicode="&#x203c;" horiz-adv-x="983" 
d="M375 1434l-19 -1030h-135l-18 1030h172zM291 -18c-30.667 0 -56.834 10.667 -78.501 32s-32.5 47.333 -32.5 78s10.833 56.834 32.5 78.501s47.834 32.5 78.501 32.5c30 0 56 -10.833 78 -32.5s33 -47.834 33 -78.501s-11 -56.667 -33 -78s-48 -32 -78 -32zM776 1434
l-19 -1030h-135l-18 1030h172zM692 -18c-30.667 0 -56.834 10.667 -78.501 32s-32.5 47.333 -32.5 78s10.833 56.834 32.5 78.501s47.834 32.5 78.501 32.5c30 0 56 -10.833 78 -32.5s33 -47.834 33 -78.501s-11 -56.667 -33 -78s-48 -32 -78 -32z" />
    <glyph glyph-name="uni203d" unicode="&#x203d;" horiz-adv-x="918" 
d="M103 1186v175.998c25.333 16 51 30 77 42s53 22 81 30s57.333 14 88 18s63.667 6 99 6c50.667 0 98.834 -6.66699 144.501 -20s85.834 -33.166 120.501 -59.499s62.167 -59.166 82.5 -98.499s30.5 -85 30.5 -137c0 -49.333 -8.5 -93 -25.5 -131
s-38.333 -72.833 -64 -104.5s-53.5 -61.167 -83.5 -88.5s-57.833 -55 -83.5 -83s-47.334 -57.5 -65.001 -88.5s-26.834 -65.833 -27.501 -104.5l-3 -139h-135l-16 900c-40 -11.333 -78.667 -27.5 -116 -48.5s-72 -44.167 -104 -69.5zM665 1133
c0 48 -15.5 87.668 -46.5 119.001s-73.5 51.666 -127.5 60.999l-9 -496l74 77.5c22.667 23.667 42 47.5 58 71.5s28.5 49.333 37.5 76s13.5 57 13.5 91zM425 -18.001c-28.667 0 -54.667 10.667 -78 32c-22 20.667 -33 46.667 -33 78c0 30.667 11 56.667 33 78
c22 22 48 33 78 33s56 -11 78 -33c22 -21.333 33 -47.333 33 -78c0 -31.333 -11 -57.333 -33 -78c-23.333 -21.333 -49.333 -32 -78 -32z" />
    <glyph glyph-name="radicalex" unicode="&#x203e;" horiz-adv-x="850" 
d="M850 1396h-850v120h850v-120z" />
    <glyph glyph-name="uni203F" unicode="&#x203f;" horiz-adv-x="1630" 
d="M815 -295c296.667 0 507.667 86 633 258h162c-159.333 -253.333 -424.333 -380 -795 -380s-635.667 126.667 -795 380h162c124.667 -172 335.667 -258 633 -258z" />
    <glyph glyph-name="uni2040" unicode="&#x2040;" horiz-adv-x="1630" 
d="M1448 1471c-125.333 172 -336.333 258 -633 258c-297.333 0 -508.333 -86 -633 -258h-162c159.333 253.333 424.333 380 795 380s635.667 -126.667 795 -380h-162z" />
    <glyph glyph-name="uni2041" unicode="&#x2041;" horiz-adv-x="1310" 
d="M969 1184l105 -71l-385 -579l410 -472l-100 -86l-386 444l-291 -444l-111 64z" />
    <glyph glyph-name="uni2042" unicode="&#x2042;" horiz-adv-x="1834" 
d="M1274 1186l-274 -56l190 -243l-110 -76l-156 265l-158 -265l-110 76l190 243l-276 56l45 125l262 -99l-23 304h138l-23 -304l263 99zM1744 373l-274 -56l190 -243l-110 -76l-156 265l-158 -265l-110 76l190 243l-276 56l45 125l262 -99l-23 304h138l-23 -304l263 99z
M795 373l-274 -56l190 -243l-110 -76l-156 265l-158 -265l-110 76l190 243l-276 56l45 125l262 -99l-23 304h138l-23 -304l263 99z" />
    <glyph glyph-name="uni2043" unicode="&#x2043;" horiz-adv-x="819" 
d="M690 446h-546v249h546v-249z" />
    <glyph glyph-name="uni2044" unicode="&#x2044;" horiz-adv-x="354" 
d="M690 1434l-858 -1434h-144l859 1434h143z" />
    <glyph glyph-name="uni2045" unicode="&#x2045;" horiz-adv-x="618" 
d="M568 -326h-368v1760h368v-119h-222v-701h222v-119h-222v-702h222v-119z" />
    <glyph glyph-name="uni2046" unicode="&#x2046;" horiz-adv-x="618" 
d="M274 495h-222v119h222v701h-221v119h367v-1760h-367v119h221v702z" />
    <glyph glyph-name="uni2047" unicode="&#x2047;" horiz-adv-x="1705" 
d="M335 398c-6 17.333 -11.3359 39.8301 -16.0029 67.4971s-7 55.167 -7 82.5c0 42.667 8.5 81.167 25.5 115.5s38.167 66.5 63.5 96.5s53 58.833 83 86.5s57.667 55.667 83 84s46.5 58 63.5 89s25.5 65.167 25.5 102.5c0 32 -6.16699 60.333 -18.5 85
s-29.166 45.334 -50.499 62.001s-46 29.167 -74 37.5s-57.667 12.5 -89 12.5c-112.667 0 -210.334 -44.333 -293.001 -133v176c102 64 207.667 96 317 96c50.667 0 98.334 -6.66699 143.001 -20s83.834 -33.166 117.501 -59.499s60.167 -59.166 79.5 -98.499s29 -85 29 -137
c0 -49.333 -8.66699 -93.333 -26 -132s-39.166 -74.167 -65.499 -106.5s-54.833 -62.5 -85.5 -90.5s-59.167 -55.833 -85.5 -83.5s-48.166 -56.5 -65.499 -86.5s-26 -63 -26 -99c0 -30.667 3.66699 -58.5 11 -83.5s14.666 -46.167 21.999 -63.5h-161zM424.997 -18.0029
c-29.333 0 -55.333 10.667 -78 32c-22 21.333 -33 47.333 -33 78c0 31.333 11 57.333 33 78c22 22 48 33 78 33s56 -11 78 -33c22 -20.667 33 -46.667 33 -78c0 -30.667 -11 -56.667 -33 -78c-22.667 -21.333 -48.667 -32 -78 -32zM1122 397.997
c-6 17.333 -11.3359 39.8301 -16.0029 67.4971s-7 55.167 -7 82.5c0 42.667 8.5 81.167 25.5 115.5s38.167 66.5 63.5 96.5s53 58.833 83 86.5s57.667 55.667 83 84s46.5 58 63.5 89s25.5 65.167 25.5 102.5c0 32 -6.16699 60.333 -18.5 85s-29.166 45.334 -50.499 62.001
s-46 29.167 -74 37.5s-57.667 12.5 -89 12.5c-112.667 0 -210.334 -44.333 -293.001 -133v176c102 64 207.667 96 317 96c50.667 0 98.334 -6.66699 143.001 -20s83.834 -33.166 117.501 -59.499s60.167 -59.166 79.5 -98.499s29 -85 29 -137
c0 -49.333 -8.66699 -93.333 -26 -132s-39.166 -74.167 -65.499 -106.5s-54.833 -62.5 -85.5 -90.5s-59.167 -55.833 -85.5 -83.5s-48.166 -56.5 -65.499 -86.5s-26 -63 -26 -99c0 -30.667 3.66699 -58.5 11 -83.5s14.666 -46.167 21.999 -63.5h-161zM1211.99 -18.0059
c-29.333 0 -55.333 10.667 -78 32c-22 21.333 -33 47.333 -33 78c0 31.333 11 57.333 33 78c22 22 48 33 78 33s56 -11 78 -33c22 -20.667 33 -46.667 33 -78c0 -30.667 -11 -56.667 -33 -78c-22.667 -21.333 -48.667 -32 -78 -32z" />
    <glyph glyph-name="uni2048" unicode="&#x2048;" horiz-adv-x="1377" 
d="M335 398c-6 17.333 -11.3359 39.8301 -16.0029 67.4971s-7 55.167 -7 82.5c0 42.667 8.5 81.167 25.5 115.5s38.167 66.5 63.5 96.5s53 58.833 83 86.5s57.667 55.667 83 84s46.5 58 63.5 89s25.5 65.167 25.5 102.5c0 32 -6.16699 60.333 -18.5 85
s-29.166 45.334 -50.499 62.001s-46 29.167 -74 37.5s-57.667 12.5 -89 12.5c-112.667 0 -210.334 -44.333 -293.001 -133v176c102 64 207.667 96 317 96c50.667 0 98.334 -6.66699 143.001 -20s83.834 -33.166 117.501 -59.499s60.167 -59.166 79.5 -98.499s29 -85 29 -137
c0 -49.333 -8.66699 -93.333 -26 -132s-39.166 -74.167 -65.499 -106.5s-54.833 -62.5 -85.5 -90.5s-59.167 -55.833 -85.5 -83.5s-48.166 -56.5 -65.499 -86.5s-26 -63 -26 -99c0 -30.667 3.66699 -58.5 11 -83.5s14.666 -46.167 21.999 -63.5h-161zM424.997 -18.0029
c-29.333 0 -55.333 10.667 -78 32c-22 21.333 -33 47.333 -33 78c0 31.333 11 57.333 33 78c22 22 48 33 78 33s56 -11 78 -33c22 -20.667 33 -46.667 33 -78c0 -30.667 -11 -56.667 -33 -78c-22.667 -21.333 -48.667 -32 -78 -32zM1170 1434l-19 -1030h-135l-18 1030h172z
M1086 -18.0029c-30.667 0 -56.834 10.667 -78.501 32s-32.5 47.333 -32.5 78s10.833 56.834 32.5 78.501s47.834 32.5 78.501 32.5c30 0 56 -10.833 78 -32.5s33 -47.834 33 -78.501s-11 -56.667 -33 -78s-48 -32 -78 -32z" />
    <glyph glyph-name="uni2049" unicode="&#x2049;" horiz-adv-x="1339" 
d="M375 1434l-19 -1030h-135l-18 1030h172zM291 -18c-30.667 0 -56.834 10.667 -78.501 32s-32.5 47.333 -32.5 78s10.833 56.834 32.5 78.501s47.834 32.5 78.501 32.5c30 0 56 -10.833 78 -32.5s33 -47.834 33 -78.501s-11 -56.667 -33 -78s-48 -32 -78 -32zM756 398
c-6 17.333 -11.3359 39.8301 -16.0029 67.4971s-7 55.167 -7 82.5c0 42.667 8.5 81.167 25.5 115.5s38.167 66.5 63.5 96.5s53 58.833 83 86.5s57.667 55.667 83 84s46.5 58 63.5 89s25.5 65.167 25.5 102.5c0 32 -6.16699 60.333 -18.5 85s-29.166 45.334 -50.499 62.001
s-46 29.167 -74 37.5s-57.667 12.5 -89 12.5c-112.667 0 -210.334 -44.333 -293.001 -133v176c102 64 207.667 96 317 96c50.667 0 98.334 -6.66699 143.001 -20s83.834 -33.166 117.501 -59.499s60.167 -59.166 79.5 -98.499s29 -85 29 -137
c0 -49.333 -8.66699 -93.333 -26 -132s-39.166 -74.167 -65.499 -106.5s-54.833 -62.5 -85.5 -90.5s-59.167 -55.833 -85.5 -83.5s-48.166 -56.5 -65.499 -86.5s-26 -63 -26 -99c0 -30.667 3.66699 -58.5 11 -83.5s14.666 -46.167 21.999 -63.5h-161zM845.997 -18.0029
c-29.333 0 -55.333 10.667 -78 32c-22 21.333 -33 47.333 -33 78c0 31.333 11 57.333 33 78c22 22 48 33 78 33s56 -11 78 -33c22 -20.667 33 -46.667 33 -78c0 -30.667 -11 -56.667 -33 -78c-22.667 -21.333 -48.667 -32 -78 -32z" />
    <glyph glyph-name="uni204A" unicode="&#x204a;" horiz-adv-x="1029" 
d="M959 1015l-237 -1015h-157l242 975c-36 -8 -73.5 -15.333 -112.5 -22s-78.333 -12.167 -118 -16.5s-78.667 -7.83301 -117 -10.5s-74.833 -4 -109.5 -4c-32 0 -60.667 0.666992 -86 2s-48.833 3.16602 -70.5 5.49902s-42 5.5 -61 9.5s-37.5 8.66699 -55.5 14v203
c37.333 -14 79.5 -25.5 126.5 -34.5s99.5 -13.5 157.5 -13.5c32 0 66.333 1 103 3s74.667 4.66699 114 8s79.333 7.33301 120 12s80.667 10 120 16h141v-132z" />
    <glyph glyph-name="uni204b" unicode="&#x204b;" horiz-adv-x="938" 
d="M104 1434l494 0.000976562c71.333 0 131.833 -24.5 181.5 -73.5s74.5 -112.5 74.5 -190.5c0 -76.667 -23.667 -140.334 -71 -191.001s-107 -76 -179 -76v-903h-108v1331h-158v-1331h-106v1331h-128v103z" />
    <glyph glyph-name="uni204C" unicode="&#x204c;" horiz-adv-x="851" 
d="M458 368c-39.333 0 -76.666 6.83203 -111.999 20.499s-66.5 33 -93.5 58s-48.5 55.333 -64.5 91s-24 75.834 -24 120.501c0 44 8 84.167 24 120.5s37.5 67.333 64.5 93s58.167 45.5 93.5 59.5s72.666 21 111.999 21h229v-584h-229zM576 848.999h-118v-378h118v378z" />
    <glyph glyph-name="uni204D" unicode="&#x204d;" horiz-adv-x="851" 
d="M164 368l-0.00195312 584.001h229c38.667 0 75.834 -7 111.501 -21s67 -33.833 94 -59.5s48.5 -56.667 64.5 -93s24 -76.5 24 -120.5c0 -44.667 -8 -84.834 -24 -120.501s-37.5 -66 -64.5 -91s-58.167 -44.333 -93.5 -58s-72.666 -20.5 -111.999 -20.5h-229z
M274.998 471.001h118v378h-118v-378z" />
    <glyph glyph-name="uni204E" unicode="&#x204e;" horiz-adv-x="854" 
d="M780 681l-274 -56l190 -243l-110 -76l-156 265l-158 -265l-110 76l190 243l-276 56l45 125l262 -99l-23 304h138l-23 -304l263 99z" />
    <glyph glyph-name="uni204f" unicode="&#x204f;" horiz-adv-x="436" 
d="M218 824c-30.667 0 -57 11 -79 33s-33 48.333 -33 79s11 56.667 33 78s48.333 32 79 32c31.333 0 57.833 -10.667 79.5 -32s32.5 -47.333 32.5 -78s-10.833 -57 -32.5 -79s-48.167 -33 -79.5 -33zM288 228l117 -492h-117l-160 492h160z" />
    <glyph glyph-name="uni2050" unicode="&#x2050;" horiz-adv-x="1630" 
d="M815 -295c296.667 0 507.667 86 633 258h162c-159.333 -253.333 -424.333 -380 -795 -380s-635.667 126.667 -795 380h162c124.667 -172 335.667 -258 633 -258zM1448 1471c-125.333 172 -336.333 258 -633 258c-297.333 0 -508.333 -86 -633 -258h-162
c159.333 253.333 424.333 380 795 380s635.667 -126.667 795 -380h-162z" />
    <glyph glyph-name="uni2051" unicode="&#x2051;" horiz-adv-x="854" 
d="M780 1186l-274 -56l190 -243l-110 -76l-156 265l-158 -265l-110 76l190 243l-276 56l45 125l262 -99l-23 304h138l-23 -304l263 99zM780 373l-274 -56l190 -243l-110 -76l-156 265l-158 -265l-110 76l190 243l-276 56l45 125l262 -99l-23 304h138l-23 -304l263 99z" />
    <glyph glyph-name="uni2052" unicode="&#x2052;" horiz-adv-x="1243" 
d="M1103 1434l-820 -1444h-143l819 1444h144zM316 1186c-36.667 0 -68 13.333 -94 40s-39 58.334 -39 95.001c0 37.333 13 69.166 39 95.499s57.333 39.5 94 39.5c37.333 0 69.166 -13.167 95.499 -39.5s39.5 -58.166 39.5 -95.499c0 -36.667 -13.167 -68.334 -39.5 -95.001
s-58.166 -40 -95.499 -40zM933 -22c-36.667 0 -68 13.333 -94 40s-39 58.334 -39 95.001c0 37.333 13 69.166 39 95.499s57.333 39.5 94 39.5c37.333 0 69.166 -13.167 95.499 -39.5s39.5 -58.166 39.5 -95.499c0 -36.667 -13.167 -68.334 -39.5 -95.001
s-58.166 -40 -95.499 -40z" />
    <glyph glyph-name="uni2053" unicode="&#x2053;" horiz-adv-x="1643" 
d="M1434 750c-6 -98.667 -37.001 -175 -93.001 -229s-137.667 -81 -245 -81c-47.333 0 -100 9 -158 27s-120.333 45.333 -187 82c-82.667 44.667 -156 67 -220 67c-119.333 0 -181.666 -58.667 -186.999 -176h-135c2 48 11 91 27 129s38.667 70.5 68 97.5s65 47.667 107 62
s90 21.5 144 21.5c90 0 190.333 -29.333 301 -88c56.667 -30 106.5 -52.5 149.5 -67.5s82.167 -22.5 117.5 -22.5c26 0 49.667 4.33301 71 13s39.5 20.667 54.5 36s26.833 34 35.5 56s13.667 46.333 15 73h135z" />
    <glyph glyph-name="uni2054" unicode="&#x2054;" horiz-adv-x="1630" 
d="M815 -159c-297.333 0 -508.333 -86 -633 -258h-162c159.333 253.333 424.333 380 795 380s635.667 -126.667 795 -380h-162c-125.333 172 -336.333 258 -633 258z" />
    <glyph glyph-name="uni2055" unicode="&#x2055;" horiz-adv-x="1393" 
d="M633 159l33 479l-319 -354l-88 86l364 320l-503 -30v122l511 -35l-378 338l79 84l334 -379l-33 487h128l-34 -477l323 358l85 -90l-364 -321l502 35v-122l-506 34l379 -337l-79 -83l-340 370l34 -485h-128z" />
    <glyph glyph-name="uni2056" unicode="&#x2056;" horiz-adv-x="949" 
d="M726 1036c-30.667 0 -56.834 11 -78.501 33s-32.5 48.333 -32.5 79c0 31.333 10.833 58 32.5 80s47.834 33 78.501 33c31.333 0 58 -11 80 -33s33 -48.667 33 -80c0 -30.667 -11 -57 -33 -79s-48.667 -33 -80 -33zM726 215c-30.667 0 -56.834 11 -78.501 33
s-32.5 48.333 -32.5 79c0 31.333 10.833 58 32.5 80s47.834 33 78.501 33c31.333 0 58 -11 80 -33s33 -48.667 33 -80c0 -30.667 -11 -57 -33 -79s-48.667 -33 -80 -33zM221 626c-30.667 0 -56.834 11 -78.501 33s-32.5 48.333 -32.5 79c0 31.333 10.833 58 32.5 80
s47.834 33 78.501 33c31.333 0 58 -11 80 -33s33 -48.667 33 -80c0 -30.667 -11 -57 -33 -79s-48.667 -33 -80 -33z" />
    <glyph glyph-name="uni2057" unicode="&#x2057;" horiz-adv-x="1336" 
d="M361 1434l-105 -447h-115l85 447h135zM643 1434l-105 -447h-115l85 447h135zM1208 1434l-106 -447h-116l86 447h136zM925 1434l-105 -447h-115l85 447h135z" />
    <glyph glyph-name="uni2058" unicode="&#x2058;" horiz-adv-x="1313" 
d="M657 1036c-30.667 0 -56.834 11 -78.501 33s-32.5 48.333 -32.5 79c0 31.333 10.833 58 32.5 80s47.834 33 78.501 33c31.333 0 58 -11 80 -33s33 -48.667 33 -80c0 -30.667 -11 -57 -33 -79s-48.667 -33 -80 -33zM657 215c-30.667 0 -56.834 11 -78.501 33
s-32.5 48.333 -32.5 79c0 31.333 10.833 58 32.5 80s47.834 33 78.501 33c31.333 0 58 -11 80 -33s33 -48.667 33 -80c0 -30.667 -11 -57 -33 -79s-48.667 -33 -80 -33zM231 626c-30.667 0 -56.834 11 -78.501 33s-32.5 48.333 -32.5 79c0 31.333 10.833 58 32.5 80
s47.834 33 78.501 33c31.333 0 58 -11 80 -33s33 -48.667 33 -80c0 -30.667 -11 -57 -33 -79s-48.667 -33 -80 -33zM1080 626c-30.667 0 -56.834 11 -78.501 33s-32.5 48.333 -32.5 79c0 31.333 10.833 58 32.5 80s47.834 33 78.501 33c31.333 0 58 -11 80 -33
s33 -48.667 33 -80c0 -30.667 -11 -57 -33 -79s-48.667 -33 -80 -33z" />
    <glyph glyph-name="uni2059" unicode="&#x2059;" horiz-adv-x="1065" 
d="M356 1029c0 -15.333 -2.83398 -29.833 -8.50098 -43.5s-13.5 -25.5 -23.5 -35.5s-21.833 -18 -35.5 -24s-28.5 -9 -44.5 -9c-15.333 0 -29.833 3 -43.5 9s-25.5 14 -35.5 24s-18 21.833 -24 35.5s-9 28.167 -9 43.5c0 16 3 30.833 9 44.5s14 25.5 24 35.5
s21.833 17.833 35.5 23.5s28.167 8.5 43.5 8.5c14.667 0 28.834 -2.83301 42.501 -8.5s25.667 -13.5 36 -23.5s18.5 -21.833 24.5 -35.5s9 -28.5 9 -44.5zM936.999 448c0 -15.333 -2.99707 -29.667 -8.99707 -43s-14.167 -25.166 -24.5 -35.499s-22.333 -18.5 -36 -24.5
s-27.834 -9 -42.501 -9c-15.333 0 -29.833 3 -43.5 9s-25.667 14.333 -36 25s-18.5 22.667 -24.5 36s-9 27.666 -9 42.999s3 29.833 9 43.5s14.167 25.5 24.5 35.5s22.166 18 35.499 24s27.666 9 42.999 9s29.833 -3 43.5 -9s25.667 -14.167 36 -24.5s18.5 -22.333 24.5 -36
s9 -28.167 9 -43.5zM345.002 437.999c0 -16 -2.99707 -30.832 -8.99707 -44.499s-14.167 -25.5 -24.5 -35.5s-22.166 -18 -35.499 -24s-27.333 -9 -42 -9s-28.834 3 -42.501 9s-25.834 14 -36.501 24s-19.167 21.833 -25.5 35.5s-9.5 28.5 -9.5 44.5
s3.16699 30.833 9.5 44.5s14.666 25.5 24.999 35.5s22.166 17.833 35.499 23.5s27.333 8.5 42 8.5s28.667 -2.66699 42 -8s25.333 -13 36 -23s19.167 -21.833 25.5 -35.5s9.5 -28.834 9.5 -45.501zM945.005 1038c0 -15.333 -2.83203 -29.833 -8.49902 -43.5
s-13.5 -25.5 -23.5 -35.5s-21.833 -18 -35.5 -24s-28.5 -9 -44.5 -9c-15.333 0 -29.833 3 -43.5 9s-25.5 14 -35.5 24s-18 21.833 -24 35.5s-9 28.167 -9 43.5c0 16 3 30.833 9 44.5s14.167 25.667 24.5 36s22.166 18.333 35.499 24s27.666 8.5 42.999 8.5
c14.667 0 28.834 -2.83301 42.501 -8.5s25.667 -13.667 36 -24s18.5 -22.333 24.5 -36s9 -28.5 9 -44.5zM646.006 739c0 -15.333 -2.83496 -29.833 -8.50195 -43.5s-13.5 -25.5 -23.5 -35.5s-21.833 -18 -35.5 -24s-28.5 -9 -44.5 -9c-15.333 0 -29.666 3 -42.999 9
s-25.333 14 -36 24s-19 21.833 -25 35.5s-9 28.167 -9 43.5c0 16 3 30.833 9 44.5s14.167 25.5 24.5 35.5s22.333 17.833 36 23.5s28.167 8.5 43.5 8.5c14.667 0 28.834 -2.83301 42.501 -8.5s25.667 -13.5 36 -23.5s18.5 -21.833 24.5 -35.5s9 -28.5 9 -44.5z" />
    <glyph glyph-name="uni205A" unicode="&#x205a;" horiz-adv-x="464" 
d="M231 1260c-30.667 0 -56.834 11 -78.501 33s-32.5 48.333 -32.5 79c0 31.333 10.833 58 32.5 80s47.834 33 78.501 33c31.333 0 58 -11 80 -33s33 -48.667 33 -80c0 -30.667 -11 -57 -33 -79s-48.667 -33 -80 -33zM231 -9c-30.667 0 -56.834 11 -78.501 33
s-32.5 48.333 -32.5 79c0 31.333 10.833 58 32.5 80s47.834 33 78.501 33c31.333 0 58 -11 80 -33s33 -48.667 33 -80c0 -30.667 -11 -57 -33 -79s-48.667 -33 -80 -33z" />
    <glyph glyph-name="uni205B" unicode="&#x205b;" horiz-adv-x="1313" 
d="M657 1260c-30.667 0 -56.834 11 -78.501 33s-32.5 48.333 -32.5 79c0 31.333 10.833 58 32.5 80s47.834 33 78.501 33c31.333 0 58 -11 80 -33s33 -48.667 33 -80c0 -30.667 -11 -57 -33 -79s-48.667 -33 -80 -33zM657 -10c-30.667 0 -56.834 11 -78.501 33
s-32.5 48.333 -32.5 79c0 31.333 10.833 58 32.5 80s47.834 33 78.501 33c31.333 0 58 -11 80 -33s33 -48.667 33 -80c0 -30.667 -11 -57 -33 -79s-48.667 -33 -80 -33zM231 626c-30.667 0 -56.834 11 -78.501 33s-32.5 48.333 -32.5 79c0 31.333 10.833 58 32.5 80
s47.834 33 78.501 33c31.333 0 58 -11 80 -33s33 -48.667 33 -80c0 -30.667 -11 -57 -33 -79s-48.667 -33 -80 -33zM1080 626c-30.667 0 -56.834 11 -78.501 33s-32.5 48.333 -32.5 79c0 31.333 10.833 58 32.5 80s47.834 33 78.501 33c31.333 0 58 -11 80 -33
s33 -48.667 33 -80c0 -30.667 -11 -57 -33 -79s-48.667 -33 -80 -33z" />
    <glyph glyph-name="uni205C" unicode="&#x205c;" 
d="M1093 1445v-754h757l-9 -135h-750v-751h-132v749h-753v136h753v753zM550 989c0 15.333 2.83301 29.666 8.5 42.999s13.5 25 23.5 35s21.667 17.833 35 23.5s27.666 8.5 42.999 8.5s29.666 -2.83301 42.999 -8.5s25 -13.5 35 -23.5s17.833 -21.667 23.5 -35
s8.5 -27.666 8.5 -42.999s-2.83301 -29.666 -8.5 -42.999s-13.5 -25 -23.5 -35s-21.667 -17.833 -35 -23.5s-27.666 -8.5 -42.999 -8.5s-29.666 2.83301 -42.999 8.5s-25 13.5 -35 23.5s-17.833 21.667 -23.5 35s-8.5 27.666 -8.5 42.999zM1278 987
c0 15.333 2.83301 29.666 8.5 42.999s13.5 25 23.5 35s21.667 17.833 35 23.5s27.666 8.5 42.999 8.5s29.666 -2.83301 42.999 -8.5s25 -13.5 35 -23.5s17.833 -21.667 23.5 -35s8.5 -27.666 8.5 -42.999s-2.83301 -29.666 -8.5 -42.999s-13.5 -25 -23.5 -35
s-21.667 -17.833 -35 -23.5s-27.666 -8.5 -42.999 -8.5s-29.666 2.83301 -42.999 8.5s-25 13.5 -35 23.5s-17.833 21.667 -23.5 35s-8.5 27.666 -8.5 42.999zM1278 259c0 15.333 2.83301 29.666 8.5 42.999s13.5 25 23.5 35s21.667 17.833 35 23.5s27.666 8.5 42.999 8.5
s29.666 -2.83301 42.999 -8.5s25 -13.5 35 -23.5s17.833 -21.667 23.5 -35s8.5 -27.666 8.5 -42.999s-2.83301 -29.666 -8.5 -42.999s-13.5 -25 -23.5 -35s-21.667 -17.833 -35 -23.5s-27.666 -8.5 -42.999 -8.5s-29.666 2.83301 -42.999 8.5s-25 13.5 -35 23.5
s-17.833 21.667 -23.5 35s-8.5 27.666 -8.5 42.999zM550 259c0 15.333 2.83301 29.666 8.5 42.999s13.5 25 23.5 35s21.667 17.833 35 23.5s27.666 8.5 42.999 8.5s29.666 -2.83301 42.999 -8.5s25 -13.5 35 -23.5s17.833 -21.667 23.5 -35s8.5 -27.666 8.5 -42.999
s-2.83301 -29.666 -8.5 -42.999s-13.5 -25 -23.5 -35s-21.667 -17.833 -35 -23.5s-27.666 -8.5 -42.999 -8.5s-29.666 2.83301 -42.999 8.5s-25 13.5 -35 23.5s-17.833 21.667 -23.5 35s-8.5 27.666 -8.5 42.999z" />
    <glyph glyph-name="uni205D" unicode="&#x205d;" horiz-adv-x="464" 
d="M231 1260c-30.667 0 -56.834 11 -78.501 33s-32.5 48.333 -32.5 79c0 31.333 10.833 58 32.5 80s47.834 33 78.501 33c31.333 0 58 -11 80 -33s33 -48.667 33 -80c0 -30.667 -11 -57 -33 -79s-48.667 -33 -80 -33zM231 -9c-30.667 0 -56.834 11 -78.501 33
s-32.5 48.333 -32.5 79c0 31.333 10.833 58 32.5 80s47.834 33 78.501 33c31.333 0 58 -11 80 -33s33 -48.667 33 -80c0 -30.667 -11 -57 -33 -79s-48.667 -33 -80 -33zM231 626c-30.667 0 -56.834 11 -78.501 33s-32.5 48.333 -32.5 79c0 31.333 10.833 58 32.5 80
s47.834 33 78.501 33c31.333 0 58 -11 80 -33s33 -48.667 33 -80c0 -30.667 -11 -57 -33 -79s-48.667 -33 -80 -33z" />
    <glyph glyph-name="uni205E" unicode="&#x205e;" horiz-adv-x="464" 
d="M231 1260c-30.667 0 -56.834 11 -78.501 33s-32.5 48.333 -32.5 79c0 31.333 10.833 58 32.5 80s47.834 33 78.501 33c31.333 0 58 -11 80 -33s33 -48.667 33 -80c0 -30.667 -11 -57 -33 -79s-48.667 -33 -80 -33zM231 -9c-30.667 0 -56.834 11 -78.501 33
s-32.5 48.333 -32.5 79c0 31.333 10.833 58 32.5 80s47.834 33 78.501 33c31.333 0 58 -11 80 -33s33 -48.667 33 -80c0 -30.667 -11 -57 -33 -79s-48.667 -33 -80 -33zM231 414c-30.667 0 -56.834 11 -78.501 33s-32.5 48.333 -32.5 79c0 31.333 10.833 58 32.5 80
s47.834 33 78.501 33c31.333 0 58 -11 80 -33s33 -48.667 33 -80c0 -30.667 -11 -57 -33 -79s-48.667 -33 -80 -33zM231 837c-30.667 0 -56.834 11 -78.501 33s-32.5 48.333 -32.5 79c0 31.333 10.833 58 32.5 80s47.834 33 78.501 33c31.333 0 58 -11 80 -33
s33 -48.667 33 -80c0 -30.667 -11 -57 -33 -79s-48.667 -33 -80 -33z" />
    <glyph glyph-name="uni205F" unicode="&#x205f;" horiz-adv-x="450" 
 />
    <glyph glyph-name="uni2060" unicode="&#x2060;" horiz-adv-x="0" 
 />
    <glyph glyph-name="uni2061" unicode="&#x2061;" horiz-adv-x="2577" 
d="M100 1518v379h379v-138h-241v-241h-138zM2098 1759v138h379v-379h-138v241h-241zM100 -480v379h138v-241h241v-138h-379zM2098 -480v138h241v241h138v-379h-379zM1608 -480v138h339v-138h-339zM629 -480v138h339v-138h-339zM629 1759v138h339v-138h-339zM2477 49h-138
v339h138v-339zM2477 1028h-138v339h138v-339zM1119 -480v138h339v-138h-339zM238 49h-138v339h138v-339zM1119 1759v138h339v-138h-339zM1608 1759v138h339v-138h-339zM238 539h-138v339h138v-339zM238 1028h-138v339h138v-339zM2477 539h-138v339h138v-339zM1224 1455
c-97.333 0 -154 -53.332 -170 -159.999l-31 -208h166v-138h-187l-90 -648c-38.667 -278.667 -154.667 -418 -348 -418c-22 0 -52 5.33301 -90 16v143c24 -14 52.667 -21 86 -21c50.667 0 91.5 24.167 122.5 72.5s53.5 121.5 67.5 219.5l91 636h-103v138h124l28 219
c5.33301 44 17 83.667 35 119s41.167 65.666 69.5 90.999s61.333 44.833 99 58.5s78.5 20.5 122.5 20.5c43.333 0 82 -6.33301 116 -19v-149c-31.333 18.667 -67.333 28 -108 28zM1277 508.001c0 90 13.1689 170.5 39.502 241.5s66.166 137.833 119.499 200.5h108
c-55.333 -69.333 -95 -139.333 -119 -210s-36 -148 -36 -232c0 -78.667 12.333 -154.667 37 -228s64 -143.333 118 -210h-108c-56.667 63.333 -97.334 132.333 -122.001 207s-37 151.667 -37 231zM1911 508.001c0 42 -2.99805 82.166 -8.99805 120.499
s-15.167 75.5 -27.5 111.5s-28.333 71.333 -48 106s-43.167 69.334 -70.5 104.001h108c53.333 -62.667 93.166 -129.5 119.499 -200.5s39.5 -151.5 39.5 -241.5c0 -79.333 -12.333 -156.333 -37 -231s-65.334 -143.667 -122.001 -207h-108c54 66.667 93.333 136.667 118 210
s37 149.333 37 228z" />
    <glyph glyph-name="uni2062" unicode="&#x2062;" horiz-adv-x="2577" 
d="M100 1518v379h379v-138h-241v-241h-138zM2098 1759v138h379v-379h-138v241h-241zM100 -480v379h138v-241h241v-138h-379zM2098 -480v138h241v241h138v-379h-379zM1608 -480v138h339v-138h-339zM629 -480v138h339v-138h-339zM629 1759v138h339v-138h-339zM2477 49h-138
v339h138v-339zM2477 1028h-138v339h138v-339zM1119 -480v138h339v-138h-339zM238 49h-138v339h138v-339zM1119 1759v138h339v-138h-339zM1608 1759v138h339v-138h-339zM238 539h-138v339h138v-339zM238 1028h-138v339h138v-339zM2477 539h-138v339h138v-339zM1629 256
l-340 340l-342 -340l-121 121l342 338l-342 342l119 121l344 -340l342 340l117 -123l-340 -340l342 -338z" />
    <glyph glyph-name="uni2063" unicode="&#x2063;" horiz-adv-x="2577" 
d="M100 1518v379h379v-138h-241v-241h-138zM2098 1759v138h379v-379h-138v241h-241zM100 -480v379h138v-241h241v-138h-379zM2098 -480v138h241v241h138v-379h-379zM1608 -480v138h339v-138h-339zM629 -480v138h339v-138h-339zM629 1759v138h339v-138h-339zM2477 49h-138
v339h138v-339zM2477 1028h-138v339h138v-339zM1119 -480v138h339v-138h-339zM238 49h-138v339h138v-339zM1119 1759v138h339v-138h-339zM1608 1759v138h339v-138h-339zM238 539h-138v339h138v-339zM238 1028h-138v339h138v-339zM2477 539h-138v339h138v-339zM1271 95h-168
l102 502h217z" />
    <glyph glyph-name="uni206a" unicode="&#x206a;" horiz-adv-x="2577" 
d="M100 1518v379h379v-138h-241v-241h-138zM2098 1759v138h379v-379h-138v241h-241zM100 -480v379h138v-241h241v-138h-379zM2098 -480v138h241v241h138v-379h-379zM1608 -480v138h339v-138h-339zM629 -480v138h339v-138h-339zM629 1759v138h339v-138h-339zM2477 49h-138
v339h138v-339zM2477 1028h-138v339h138v-339zM1119 -480v138h339v-138h-339zM238 49h-138v339h138v-339zM1119 1759v138h339v-138h-339zM1608 1759v138h339v-138h-339zM238 539h-138v339h138v-339zM238 1028h-138v339h138v-339zM2477 539h-138v339h138v-339zM1186 116
c0 -26 -4.50098 -51.165 -13.501 -75.498s-23.667 -46 -44 -65s-46.833 -34.167 -79.5 -45.5s-72.334 -17 -119.001 -17c-15.333 0 -31.333 1.16699 -48 3.5s-32.834 5.5 -48.501 9.5s-30 8.66699 -43 14s-23.5 10.666 -31.5 15.999v130c12 -11.333 25.5 -21.333 40.5 -30
s30.667 -16 47 -22s32.666 -10.667 48.999 -14s32.166 -5 47.499 -5c22.667 0 41.5 2.66699 56.5 8s26.833 12.166 35.5 20.499s14.667 17.833 18 28.5s5 21.334 5 32.001c0 14 -2.66699 26.833 -8 38.5s-13.666 23.167 -24.999 34.5s-26 22.666 -44 33.999
s-39.667 23.666 -65 36.999c-30.667 16 -56.167 32 -76.5 48s-36.666 32.5 -48.999 49.5s-21.166 34.5 -26.499 52.5s-8 37 -8 57c0 28.667 5.83301 55.334 17.5 80.001s28.167 45.834 49.5 63.501s46.833 31.5 76.5 41.5s62.834 15 99.501 15c16 0 32 -0.833008 48 -2.5
s31 -3.83398 45 -6.50098s26.5 -5.66699 37.5 -9s19.5 -6.33301 25.5 -9v-125c-19.333 16 -43 28.5 -71 37.5s-56 13.5 -84 13.5c-37.333 0 -66.166 -8.5 -86.499 -25.5s-30.5 -38.5 -30.5 -64.5c0 -14.667 2.16699 -27.667 6.5 -39s11.333 -22 21 -32
s22.5 -20.167 38.5 -30.5s35.667 -21.5 59 -33.5c58 -30.667 102.167 -62.167 132.5 -94.5s45.5 -71.833 45.5 -118.5zM1420 1528v-102h-70v-513h70v-102h-259v102h70v513h-70v102h259zM1768 116.002c0 -26 -4.50098 -51.165 -13.501 -75.498s-23.667 -46 -44 -65
s-46.833 -34.167 -79.5 -45.5s-72.334 -17 -119.001 -17c-15.333 0 -31.333 1.16699 -48 3.5s-32.834 5.5 -48.501 9.5s-30 8.66699 -43 14s-23.5 10.666 -31.5 15.999v130c12 -11.333 25.5 -21.333 40.5 -30s30.667 -16 47 -22s32.666 -10.667 48.999 -14
s32.166 -5 47.499 -5c22.667 0 41.5 2.66699 56.5 8s26.833 12.166 35.5 20.499s14.667 17.833 18 28.5s5 21.334 5 32.001c0 14 -2.66699 26.833 -8 38.5s-13.666 23.167 -24.999 34.5s-26 22.666 -44 33.999s-39.667 23.666 -65 36.999c-30.667 16 -56.167 32 -76.5 48
s-36.666 32.5 -48.999 49.5s-21.166 34.5 -26.499 52.5s-8 37 -8 57c0 28.667 5.83301 55.334 17.5 80.001s28.167 45.834 49.5 63.501s46.833 31.5 76.5 41.5s62.834 15 99.501 15c16 0 32 -0.833008 48 -2.5s31 -3.83398 45 -6.50098s26.5 -5.66699 37.5 -9
s19.5 -6.33301 25.5 -9v-125c-19.333 16 -43 28.5 -71 37.5s-56 13.5 -84 13.5c-37.333 0 -66.166 -8.5 -86.499 -25.5s-30.5 -38.5 -30.5 -64.5c0 -14.667 2.16699 -27.667 6.5 -39s11.333 -22 21 -32s22.5 -20.167 38.5 -30.5s35.667 -21.5 59 -33.5
c58 -30.667 102.167 -62.167 132.5 -94.5s45.5 -71.833 45.5 -118.5z" />
    <glyph glyph-name="uni206b" unicode="&#x206b;" horiz-adv-x="2577" 
d="M100 1518v379h379v-138h-241v-241h-138zM2098 1759v138h379v-379h-138v241h-241zM100 -480v379h138v-241h241v-138h-379zM2098 -480v138h241v241h138v-379h-379zM1608 -480v138h339v-138h-339zM629 -480v138h339v-138h-339zM629 1759v138h339v-138h-339zM2477 49h-138
v339h138v-339zM2477 1028h-138v339h138v-339zM1119 -480v138h339v-138h-339zM238 49h-138v339h138v-339zM1119 1759v138h339v-138h-339zM1608 1759v138h339v-138h-339zM238 539h-138v339h138v-339zM238 1028h-138v339h138v-339zM2477 539h-138v339h138v-339zM1186 116
c0 -26 -4.50098 -51.165 -13.501 -75.498s-23.667 -46 -44 -65s-46.833 -34.167 -79.5 -45.5s-72.334 -17 -119.001 -17c-15.333 0 -31.333 1.16699 -48 3.5s-32.834 5.5 -48.501 9.5s-30 8.66699 -43 14s-23.5 10.666 -31.5 15.999v130c12 -11.333 25.5 -21.333 40.5 -30
s30.667 -16 47 -22s32.666 -10.667 48.999 -14s32.166 -5 47.499 -5c22.667 0 41.5 2.66699 56.5 8s26.833 12.166 35.5 20.499s14.667 17.833 18 28.5s5 21.334 5 32.001c0 14 -2.66699 26.833 -8 38.5s-13.666 23.167 -24.999 34.5s-26 22.666 -44 33.999
s-39.667 23.666 -65 36.999c-30.667 16 -56.167 32 -76.5 48s-36.666 32.5 -48.999 49.5s-21.166 34.5 -26.499 52.5s-8 37 -8 57c0 28.667 5.83301 55.334 17.5 80.001s28.167 45.834 49.5 63.501s46.833 31.5 76.5 41.5s62.834 15 99.501 15c16 0 32 -0.833008 48 -2.5
s31 -3.83398 45 -6.50098s26.5 -5.66699 37.5 -9s19.5 -6.33301 25.5 -9v-125c-19.333 16 -43 28.5 -71 37.5s-56 13.5 -84 13.5c-37.333 0 -66.166 -8.5 -86.499 -25.5s-30.5 -38.5 -30.5 -64.5c0 -14.667 2.16699 -27.667 6.5 -39s11.333 -22 21 -32
s22.5 -20.167 38.5 -30.5s35.667 -21.5 59 -33.5c58 -30.667 102.167 -62.167 132.5 -94.5s45.5 -71.833 45.5 -118.5zM1768 116.002c0 -26 -4.50098 -51.165 -13.501 -75.498s-23.667 -46 -44 -65s-46.833 -34.167 -79.5 -45.5s-72.334 -17 -119.001 -17
c-15.333 0 -31.333 1.16699 -48 3.5s-32.834 5.5 -48.501 9.5s-30 8.66699 -43 14s-23.5 10.666 -31.5 15.999v130c12 -11.333 25.5 -21.333 40.5 -30s30.667 -16 47 -22s32.666 -10.667 48.999 -14s32.166 -5 47.499 -5c22.667 0 41.5 2.66699 56.5 8
s26.833 12.166 35.5 20.499s14.667 17.833 18 28.5s5 21.334 5 32.001c0 14 -2.66699 26.833 -8 38.5s-13.666 23.167 -24.999 34.5s-26 22.666 -44 33.999s-39.667 23.666 -65 36.999c-30.667 16 -56.167 32 -76.5 48s-36.666 32.5 -48.999 49.5s-21.166 34.5 -26.499 52.5
s-8 37 -8 57c0 28.667 5.83301 55.334 17.5 80.001s28.167 45.834 49.5 63.501s46.833 31.5 76.5 41.5s62.834 15 99.501 15c16 0 32 -0.833008 48 -2.5s31 -3.83398 45 -6.50098s26.5 -5.66699 37.5 -9s19.5 -6.33301 25.5 -9v-125c-19.333 16 -43 28.5 -71 37.5
s-56 13.5 -84 13.5c-37.333 0 -66.166 -8.5 -86.499 -25.5s-30.5 -38.5 -30.5 -64.5c0 -14.667 2.16699 -27.667 6.5 -39s11.333 -22 21 -32s22.5 -20.167 38.5 -30.5s35.667 -21.5 59 -33.5c58 -30.667 102.167 -62.167 132.5 -94.5s45.5 -71.833 45.5 -118.5z
M1500 810.004l-65 181h-287l-63 -181h-130l272 717h132l272 -717h-131zM1302 1368c-2.66699 7.33301 -4.83008 16.5 -6.49707 27.5s-2.83398 19.167 -3.50098 24.5h-3c-0.666992 -6 -1.83398 -14.167 -3.50098 -24.5s-3.83398 -19.5 -6.50098 -27.5l-98 -276h220z" />
    <glyph glyph-name="uni206c" unicode="&#x206c;" horiz-adv-x="2577" 
d="M100 1518v379h379v-138h-241v-241h-138zM2098 1759v138h379v-379h-138v241h-241zM100 -480v379h138v-241h241v-138h-379zM2098 -480v138h241v241h138v-379h-379zM1608 -480v138h339v-138h-339zM629 -480v138h339v-138h-339zM629 1759v138h339v-138h-339zM2477 49h-138
v339h138v-339zM2477 1028h-138v339h138v-339zM1119 -480v138h339v-138h-339zM238 49h-138v339h138v-339zM1119 1759v138h339v-138h-339zM1608 1759v138h339v-138h-339zM238 539h-138v339h138v-339zM238 1028h-138v339h138v-339zM2477 539h-138v339h138v-339zM1420 1528v-102
h-70v-513h70v-102h-259v102h70v513h-70v102h259zM2064 116c0 -26 -4.50098 -51.165 -13.501 -75.498s-23.667 -46 -44 -65s-46.833 -34.167 -79.5 -45.5s-72.334 -17 -119.001 -17c-15.333 0 -31.333 1.16699 -48 3.5s-32.834 5.5 -48.501 9.5s-30 8.66699 -43 14
s-23.5 10.666 -31.5 15.999v130c12 -11.333 25.5 -21.333 40.5 -30s30.667 -16 47 -22s32.666 -10.667 48.999 -14s32.166 -5 47.499 -5c22.667 0 41.5 2.66699 56.5 8s26.833 12.166 35.5 20.499s14.667 17.833 18 28.5s5 21.334 5 32.001c0 14 -2.66699 26.833 -8 38.5
s-13.666 23.167 -24.999 34.5s-26 22.666 -44 33.999s-39.667 23.666 -65 36.999c-30.667 16 -56.167 32 -76.5 48s-36.666 32.5 -48.999 49.5s-21.166 34.5 -26.499 52.5s-8 37 -8 57c0 28.667 5.83301 55.334 17.5 80.001s28.167 45.834 49.5 63.501
s46.833 31.5 76.5 41.5s62.834 15 99.501 15c16 0 32 -0.833008 48 -2.5s31 -3.83398 45 -6.50098s26.5 -5.66699 37.5 -9s19.5 -6.33301 25.5 -9v-125c-19.333 16 -43 28.5 -71 37.5s-56 13.5 -84 13.5c-37.333 0 -66.166 -8.5 -86.499 -25.5s-30.5 -38.5 -30.5 -64.5
c0 -14.667 2.16699 -27.667 6.5 -39s11.333 -22 21 -32s22.5 -20.167 38.5 -30.5s35.667 -21.5 59 -33.5c58 -30.667 102.167 -62.167 132.5 -94.5s45.5 -71.833 45.5 -118.5zM963.999 -72.998l-65 181h-287l-63 -181h-130l272 717h132l272 -717h-131zM765.999 485.002
c-2.66699 7.33301 -4.83008 16.5 -6.49707 27.5s-2.83398 19.167 -3.50098 24.5h-3c-0.666992 -6 -1.83398 -14.167 -3.50098 -24.5s-3.83398 -19.5 -6.50098 -27.5l-98 -276h220zM1284 542.002v-212h249v-103h-249v-300h-119v717h388v-102h-269z" />
    <glyph glyph-name="uni206D" unicode="&#x206d;" horiz-adv-x="2577" 
d="M100 1518v379h379v-138h-241v-241h-138zM2098 1759v138h379v-379h-138v241h-241zM100 -480v379h138v-241h241v-138h-379zM2098 -480v138h241v241h138v-379h-379zM1608 -480v138h339v-138h-339zM629 -480v138h339v-138h-339zM629 1759v138h339v-138h-339zM2477 49h-138
v339h138v-339zM2477 1028h-138v339h138v-339zM1119 -480v138h339v-138h-339zM238 49h-138v339h138v-339zM1119 1759v138h339v-138h-339zM1608 1759v138h339v-138h-339zM238 539h-138v339h138v-339zM238 1028h-138v339h138v-339zM2477 539h-138v339h138v-339zM2064 116
c0 -26 -4.50098 -51.165 -13.501 -75.498s-23.667 -46 -44 -65s-46.833 -34.167 -79.5 -45.5s-72.334 -17 -119.001 -17c-15.333 0 -31.333 1.16699 -48 3.5s-32.834 5.5 -48.501 9.5s-30 8.66699 -43 14s-23.5 10.666 -31.5 15.999v130c12 -11.333 25.5 -21.333 40.5 -30
s30.667 -16 47 -22s32.666 -10.667 48.999 -14s32.166 -5 47.499 -5c22.667 0 41.5 2.66699 56.5 8s26.833 12.166 35.5 20.499s14.667 17.833 18 28.5s5 21.334 5 32.001c0 14 -2.66699 26.833 -8 38.5s-13.666 23.167 -24.999 34.5s-26 22.666 -44 33.999
s-39.667 23.666 -65 36.999c-30.667 16 -56.167 32 -76.5 48s-36.666 32.5 -48.999 49.5s-21.166 34.5 -26.499 52.5s-8 37 -8 57c0 28.667 5.83301 55.334 17.5 80.001s28.167 45.834 49.5 63.501s46.833 31.5 76.5 41.5s62.834 15 99.501 15c16 0 32 -0.833008 48 -2.5
s31 -3.83398 45 -6.50098s26.5 -5.66699 37.5 -9s19.5 -6.33301 25.5 -9v-125c-19.333 16 -43 28.5 -71 37.5s-56 13.5 -84 13.5c-37.333 0 -66.166 -8.5 -86.499 -25.5s-30.5 -38.5 -30.5 -64.5c0 -14.667 2.16699 -27.667 6.5 -39s11.333 -22 21 -32
s22.5 -20.167 38.5 -30.5s35.667 -21.5 59 -33.5c58 -30.667 102.167 -62.167 132.5 -94.5s45.5 -71.833 45.5 -118.5zM963.999 -72.998l-65 181h-287l-63 -181h-130l272 717h132l272 -717h-131zM765.999 485.002c-2.66699 7.33301 -4.83008 16.5 -6.49707 27.5
s-2.83398 19.167 -3.50098 24.5h-3c-0.666992 -6 -1.83398 -14.167 -3.50098 -24.5s-3.83398 -19.5 -6.50098 -27.5l-98 -276h220zM1284 542.002v-212h249v-103h-249v-300h-119v717h388v-102h-269zM1501 810.002l-65 181h-287l-63 -181h-130l272 717h132l272 -717h-131z
M1303 1368c-2.66699 7.33301 -4.83008 16.5 -6.49707 27.5s-2.83398 19.167 -3.50098 24.5h-3c-0.666992 -6 -1.83398 -14.167 -3.50098 -24.5s-3.83398 -19.5 -6.50098 -27.5l-98 -276h220z" />
    <glyph glyph-name="uni206e" unicode="&#x206e;" horiz-adv-x="2577" 
d="M100 1518v379h379v-138h-241v-241h-138zM2098 1759v138h379v-379h-138v241h-241zM100 -480v379h138v-241h241v-138h-379zM2098 -480v138h241v241h138v-379h-379zM1608 -480v138h339v-138h-339zM629 -480v138h339v-138h-339zM629 1759v138h339v-138h-339zM2477 49h-138
v339h138v-339zM2477 1028h-138v339h138v-339zM1119 -480v138h339v-138h-339zM238 49h-138v339h138v-339zM1119 1759v138h339v-138h-339zM1608 1759v138h339v-138h-339zM238 539h-138v339h138v-339zM238 1028h-138v339h138v-339zM2477 539h-138v339h138v-339zM1888 116
c0 -26 -4.50098 -51.165 -13.501 -75.498s-23.667 -46 -44 -65s-46.833 -34.167 -79.5 -45.5s-72.334 -17 -119.001 -17c-15.333 0 -31.333 1.16699 -48 3.5s-32.834 5.5 -48.501 9.5s-30 8.66699 -43 14s-23.5 10.666 -31.5 15.999v130c12 -11.333 25.5 -21.333 40.5 -30
s30.667 -16 47 -22s32.666 -10.667 48.999 -14s32.166 -5 47.499 -5c22.667 0 41.5 2.66699 56.5 8s26.833 12.166 35.5 20.499s14.667 17.833 18 28.5s5 21.334 5 32.001c0 14 -2.66699 26.833 -8 38.5s-13.666 23.167 -24.999 34.5s-26 22.666 -44 33.999
s-39.667 23.666 -65 36.999c-30.667 16 -56.167 32 -76.5 48s-36.666 32.5 -48.999 49.5s-21.166 34.5 -26.499 52.5s-8 37 -8 57c0 28.667 5.83301 55.334 17.5 80.001s28.167 45.834 49.5 63.501s46.833 31.5 76.5 41.5s62.834 15 99.501 15c16 0 32 -0.833008 48 -2.5
s31 -3.83398 45 -6.50098s26.5 -5.66699 37.5 -9s19.5 -6.33301 25.5 -9v-125c-19.333 16 -43 28.5 -71 37.5s-56 13.5 -84 13.5c-37.333 0 -66.166 -8.5 -86.499 -25.5s-30.5 -38.5 -30.5 -64.5c0 -14.667 2.16699 -27.667 6.5 -39s11.333 -22 21 -32
s22.5 -20.167 38.5 -30.5s35.667 -21.5 59 -33.5c58 -30.667 102.167 -62.167 132.5 -94.5s45.5 -71.833 45.5 -118.5zM1903 810.002l-65 181h-287l-63 -181h-130l272 717h132l272 -717h-131zM1705 1368c-2.66699 7.33301 -4.83008 16.5 -6.49707 27.5
s-2.83398 19.167 -3.50098 24.5h-3c-0.666992 -6 -1.83398 -14.167 -3.50098 -24.5s-3.83398 -19.5 -6.50098 -27.5l-98 -276h220zM1070 810.002l-328.001 531.001c-5.33301 6.66699 -10.5 15 -15.5 25s-8.5 18 -10.5 24h-3c0.666992 -4 1.33398 -11.333 2.00098 -22
s1.33398 -22 2.00098 -34s1.16699 -23.5 1.5 -34.5s0.5 -18.833 0.5 -23.5v-466h-117v717h151l316 -518c4.66699 -6.66699 10 -15.334 16 -26.001l14 -25h2c-0.666992 3.33301 -1.33398 10.5 -2.00098 21.5s-1.16699 22.667 -1.5 35l-1 35.5
c-0.333008 11.333 -0.5 19 -0.5 23v454h117v-717h-143zM1315 295.003c0 -55.333 -9.16797 -105.667 -27.501 -151s-44.5 -84 -78.5 -116s-75 -56.833 -123 -74.5s-101.667 -26.5 -161 -26.5h-216v717h222c128.667 0 224.834 -29.5 288.501 -88.5s95.5 -145.833 95.5 -260.5z
M1189 293.002c0 79.333 -22.333 140.667 -67 184s-110 65 -196 65h-98v-512h96c42.667 0 80.5 6.16699 113.5 18.5s60.833 30 83.5 53s39.667 50.667 51 83s17 68.5 17 108.5z" />
    <glyph glyph-name="uni206f" unicode="&#x206f;" horiz-adv-x="2577" 
d="M100 1518v379h379v-138h-241v-241h-138zM2098 1759v138h379v-379h-138v241h-241zM100 -480v379h138v-241h241v-138h-379zM2098 -480v138h241v241h138v-379h-379zM1608 -480v138h339v-138h-339zM629 -480v138h339v-138h-339zM629 1759v138h339v-138h-339zM2477 49h-138
v339h138v-339zM2477 1028h-138v339h138v-339zM1119 -480v138h339v-138h-339zM238 49h-138v339h138v-339zM1119 1759v138h339v-138h-339zM1608 1759v138h339v-138h-339zM238 539h-138v339h138v-339zM238 1028h-138v339h138v-339zM2477 539h-138v339h138v-339zM1888 116
c0 -26 -4.50098 -51.165 -13.501 -75.498s-23.667 -46 -44 -65s-46.833 -34.167 -79.5 -45.5s-72.334 -17 -119.001 -17c-15.333 0 -31.333 1.16699 -48 3.5s-32.834 5.5 -48.501 9.5s-30 8.66699 -43 14s-23.5 10.666 -31.5 15.999v130c12 -11.333 25.5 -21.333 40.5 -30
s30.667 -16 47 -22s32.666 -10.667 48.999 -14s32.166 -5 47.499 -5c22.667 0 41.5 2.66699 56.5 8s26.833 12.166 35.5 20.499s14.667 17.833 18 28.5s5 21.334 5 32.001c0 14 -2.66699 26.833 -8 38.5s-13.666 23.167 -24.999 34.5s-26 22.666 -44 33.999
s-39.667 23.666 -65 36.999c-30.667 16 -56.167 32 -76.5 48s-36.666 32.5 -48.999 49.5s-21.166 34.5 -26.499 52.5s-8 37 -8 57c0 28.667 5.83301 55.334 17.5 80.001s28.167 45.834 49.5 63.501s46.833 31.5 76.5 41.5s62.834 15 99.501 15c16 0 32 -0.833008 48 -2.5
s31 -3.83398 45 -6.50098s26.5 -5.66699 37.5 -9s19.5 -6.33301 25.5 -9v-125c-19.333 16 -43 28.5 -71 37.5s-56 13.5 -84 13.5c-37.333 0 -66.166 -8.5 -86.499 -25.5s-30.5 -38.5 -30.5 -64.5c0 -14.667 2.16699 -27.667 6.5 -39s11.333 -22 21 -32
s22.5 -20.167 38.5 -30.5s35.667 -21.5 59 -33.5c58 -30.667 102.167 -62.167 132.5 -94.5s45.5 -71.833 45.5 -118.5zM1070 810.002l-328.001 531.001c-5.33301 6.66699 -10.5 15 -15.5 25s-8.5 18 -10.5 24h-3c0.666992 -4 1.33398 -11.333 2.00098 -22
s1.33398 -22 2.00098 -34s1.16699 -23.5 1.5 -34.5s0.5 -18.833 0.5 -23.5v-466h-117v717h151l316 -518c4.66699 -6.66699 10 -15.334 16 -26.001l14 -25h2c-0.666992 3.33301 -1.33398 10.5 -2.00098 21.5s-1.16699 22.667 -1.5 35l-1 35.5
c-0.333008 11.333 -0.5 19 -0.5 23v454h117v-717h-143zM1315 295.003c0 -55.333 -9.16797 -105.667 -27.501 -151s-44.5 -84 -78.5 -116s-75 -56.833 -123 -74.5s-101.667 -26.5 -161 -26.5h-216v717h222c128.667 0 224.834 -29.5 288.501 -88.5s95.5 -145.833 95.5 -260.5z
M1189 293.002c0 79.333 -22.333 140.667 -67 184s-110 65 -196 65h-98v-512h96c42.667 0 80.5 6.16699 113.5 18.5s60.833 30 83.5 53s39.667 50.667 51 83s17 68.5 17 108.5zM2035 1178c0 -58 -8.33105 -110.332 -24.998 -156.999s-40.167 -86.5 -70.5 -119.5
s-66.833 -58.333 -109.5 -76s-90.334 -26.5 -143.001 -26.5c-51.333 0 -97.833 8.83301 -139.5 26.5s-77.334 42.5 -107.001 74.5s-52.667 70.167 -69 114.5s-24.5 93.166 -24.5 146.499c0 54.667 7.83301 105.334 23.5 152.001s38.5 86.834 68.5 120.501
s66.833 60 110.5 79s93.5 28.5 149.5 28.5c50 0 95.5 -8.66699 136.5 -26s76.333 -41.833 106 -73.5s52.667 -69.834 69 -114.501s24.5 -94.334 24.5 -149.001zM1909 1167c0 44 -5.16602 82.832 -15.499 116.499s-24.833 61.834 -43.5 84.501s-41.167 39.667 -67.5 51
s-55.833 17 -88.5 17c-34 0 -64.667 -6.5 -92 -19.5s-50.5 -31.333 -69.5 -55s-33.667 -51.667 -44 -84s-15.5 -67.833 -15.5 -106.5c0 -42 5.5 -79.333 16.5 -112s26.167 -60.5 45.5 -83.5s42.166 -40.5 68.499 -52.5s54.833 -18 85.5 -18c32.667 0 62.5 5.5 89.5 16.5
s50.167 27.5 69.5 49.5s34.333 49.333 45 82s16 70.667 16 114z" />
    <glyph glyph-name="uni2070" unicode="&#x2070;" horiz-adv-x="750" 
d="M365 864c-93.333 0 -165.5 36.667 -216.5 110s-76.5 179.333 -76.5 318c0 152.667 26.667 267.667 80 345s131 116 233 116c195.333 0 293 -146.667 293 -440c0 -72 -7.16699 -136 -21.5 -192s-34.833 -103 -61.5 -141s-59.5 -66.833 -98.5 -86.5
s-82.833 -29.5 -131.5 -29.5zM379 1634c-56.667 0 -98.834 -27.499 -126.501 -82.499s-41.5 -139.5 -41.5 -253.5c0 -104.667 13.5 -183.334 40.5 -236.001s68.833 -79 125.5 -79c109.333 0 164 107.333 164 322c0 111.333 -13.667 194 -41 248s-67.666 81 -120.999 81z" />
    <glyph glyph-name="uni2071" unicode="&#x2071;" horiz-adv-x="352" 
d="M174 1620c-24.667 0 -44.834 7.16699 -60.501 21.5s-23.5 32.5 -23.5 54.5c0 20 7.83301 37.667 23.5 53s35.834 23 60.501 23c26 0 46.833 -7.66699 62.5 -23s23.5 -33 23.5 -53c0 -22 -7.83301 -40.167 -23.5 -54.5s-36.5 -21.5 -62.5 -21.5zM238 717h-127v719h127
v-719z" />
    <glyph glyph-name="uni2074" unicode="&#x2074;" horiz-adv-x="750" 
d="M682 1087h-111v-202h-131v202h-393v93l369 555h155v-539h111v-109zM444 1608l-4 0.000976562c-8 -20.667 -21 -44.667 -39 -72l-217 -340h256v324c0 21.333 1.33301 50.666 4 87.999z" />
    <glyph glyph-name="uni2075" unicode="&#x2075;" horiz-adv-x="750" 
d="M127 905l0.00195312 148c75.333 -48 141.666 -72 198.999 -72s102.666 15 135.999 45s50 69 50 117c0 100.667 -68.333 151 -205 151l-153 -8v453h456v-125h-329v-201c121.333 9.33301 213 -11.167 275 -61.5s93 -117.833 93 -202.5s-29 -153.667 -87 -207
s-137.333 -80 -238 -80c-82 0 -147.667 14.333 -197 43z" />
    <glyph glyph-name="uni2076" unicode="&#x2076;" horiz-adv-x="750" 
d="M610 1718v-129.001c-9.33301 6.66699 -20.5 12.834 -33.5 18.501s-26.5 10.5 -40.5 14.5s-28.333 7 -43 9s-28 3 -40 3c-38 0 -71.167 -6 -99.5 -18s-54.166 -29.667 -77.499 -53c-20 -22.667 -37.5 -55.334 -52.5 -98.001s-22.5 -96 -22.5 -160h4
c19.333 32.667 47.166 59.834 83.499 81.501s80.833 32.5 133.5 32.5c40 0 75.833 -6.5 107.5 -19.5s58.5 -31.333 80.5 -55s38.833 -52 50.5 -85s17.5 -69.833 17.5 -110.5c0 -41.333 -7.5 -79.333 -22.5 -114s-35.833 -64.667 -62.5 -90s-57.834 -45.166 -93.501 -59.499
s-73.834 -21.5 -114.501 -21.5c-42 0 -81.833 8 -119.5 24s-70.667 40.667 -99 74s-50.833 75.333 -67.5 126s-25 110.667 -25 180c0 78 9.33301 147 28 207s44.834 110.667 78.501 152s73.834 72.666 120.501 93.999s98 32 154 32c28.667 0 56.5 -2.66699 83.5 -8
s50.833 -14.333 71.5 -27zM385 1313c-22.667 0 -43.833 -3.49902 -63.5 -10.499s-37 -17.167 -52 -30.5s-26.833 -29.5 -35.5 -48.5s-13 -40.5 -13 -64.5c0 -22.667 3.66699 -44.667 11 -66s17.833 -40.333 31.5 -57s30.167 -30 49.5 -40s41.333 -15 66 -15
c50 0 89.167 15.333 117.5 46s42.5 70 42.5 118c0 51.333 -12.833 92.166 -38.5 122.499s-64.167 45.5 -115.5 45.5z" />
    <glyph glyph-name="uni2077" unicode="&#x2077;" horiz-adv-x="750" 
d="M326 885h-148l322 741h-422v119h594v-53z" />
    <glyph glyph-name="uni2078" unicode="&#x2078;" horiz-adv-x="750" 
d="M514 1331c109.333 -47.333 164.001 -121.667 164.001 -223c0 -76.667 -27.667 -136.5 -83 -179.5s-132 -64.5 -230 -64.5c-83.333 0 -153 21.5 -209 64.5s-84 100.167 -84 171.5c0 100.667 53.667 177.667 161 231c-87.333 50.667 -131 117.667 -131 201
c0 66.667 25.667 120.167 77 160.5s120.666 60.5 207.999 60.5c78 0 141.167 -19.167 189.5 -57.5s72.5 -88.833 72.5 -151.5c0 -90 -45 -161 -135 -213zM375.001 1393c91.333 38 137 84.333 137 139c0 68 -44.333 102 -133 102c-41.333 0 -74.5 -9.16699 -99.5 -27.5
s-37.5 -42.5 -37.5 -72.5c0 -56 44.333 -103 133 -141zM369.001 1274c-105.333 -36.667 -158 -93.332 -158 -169.999c0 -34 15.333 -62.667 46 -86s70.667 -35 120 -35c48 0 87.333 11.667 118 35s46 50.666 46 81.999c0 76 -57.333 134 -172 174z" />
    <glyph glyph-name="uni2079" unicode="&#x2079;" horiz-adv-x="750" 
d="M311 981c44.667 0 82.6621 8.66504 113.995 25.998s57 41.166 77 71.499s34.5 66.5 43.5 108.5s13.5 88 13.5 138h-4c-8.66699 -18.667 -20.167 -35.667 -34.5 -51s-30.666 -28.666 -48.999 -39.999s-38.5 -20.166 -60.5 -26.499s-45 -9.5 -69 -9.5
c-40 0 -76.333 6.5 -109 19.5s-60.5 31.333 -83.5 55s-40.667 51.834 -53 84.501s-18.5 69 -18.5 109c0 42.667 7 81.5 21 116.5s33.667 65.167 59 90.5s56 45 92 59s75.667 21 119 21c42.667 0 82.834 -8.5 120.501 -25.5s70.834 -42.167 99.501 -75.5
s51.334 -75 68.001 -125s25 -108.333 25 -175c0 -70 -7.83301 -135 -23.5 -195s-39.167 -111.833 -70.5 -155.5s-70.166 -77.834 -116.499 -102.501s-99.833 -37 -160.5 -37c-32 0 -64.167 4 -96.5 12s-60.833 19 -85.5 33v127c12.667 -7.33301 26.667 -14.166 42 -20.499
s31 -11.833 47 -16.5s32 -8.5 48 -11.5s31 -4.5 45 -4.5zM372.995 1636c-22.667 0 -43.666 -3.83008 -62.999 -11.4971s-36 -18.834 -50 -33.501s-25 -32.5 -33 -53.5s-12 -44.833 -12 -71.5c0 -50 13.667 -89.333 41 -118s64.333 -43 111 -43
c21.333 0 42.166 3.66699 62.499 11s38.5 17.166 54.5 29.499s28.833 27.166 38.5 44.499s14.5 36 14.5 56c0 28 -4.16699 53.667 -12.5 77s-19.833 43.333 -34.5 60s-32 29.667 -52 39s-41.667 14 -65 14z" />
    <glyph glyph-name="uni207A" unicode="&#x207a;" horiz-adv-x="750" 
d="M657 1247h-231v-231h-100v231h-234v101h234v231h100v-231h231v-101z" />
    <glyph glyph-name="uni207B" unicode="&#x207b;" horiz-adv-x="750" 
d="M92 1348h565v-101h-565v101z" />
    <glyph glyph-name="uni207C" unicode="&#x207c;" horiz-adv-x="750" 
d="M92 1202h565v-100h-565v100zM92 1493h565v-100h-565v100z" />
    <glyph glyph-name="uni207D" unicode="&#x207d;" horiz-adv-x="618" 
d="M516 762l-127 0.000976562c-122.667 142 -184 316.667 -184 524s61.333 385 184 533h129c-125.333 -153.333 -188 -331 -188 -533c0 -200.667 62 -375.334 186 -524.001z" />
    <glyph glyph-name="uni207E" unicode="&#x207e;" horiz-adv-x="618" 
d="M100 762c126 148.667 189 323.333 189 524c0 202 -63 379.667 -189 533h127c124.667 -148 187 -325.667 187 -533s-62.333 -382 -187 -524h-127z" />
    <glyph glyph-name="uni207F" unicode="&#x207f;" horiz-adv-x="803" 
d="M238 717h-127v719h127v-115h4c44.667 90 115 135 211 135c78.667 0 140.667 -24.5 186 -73.5s68 -117.833 68 -206.5v-459h-132v450c0 117.333 -49.667 176 -149 176c-50.667 0 -94.667 -20 -132 -60s-56 -88 -56 -144v-422z" />
    <glyph glyph-name="uni2080" unicode="&#x2080;" horiz-adv-x="750" 
d="M365 -262c-92.667 0 -164.667 36.501 -216 109.501s-77 179.167 -77 318.5c0 152.667 26.667 267.667 80 345s131 116 233 116c195.333 0 293 -147 293 -441c0 -72.667 -7.16699 -136.834 -21.5 -192.501s-34.833 -102.5 -61.5 -140.5s-59.5 -66.667 -98.5 -86
s-82.833 -29 -131.5 -29zM379 508.001c-112 0 -168.001 -112.667 -168.001 -338c0 -105.333 13.5 -183.833 40.5 -235.5s68.833 -77.5 125.5 -77.5c109.333 0 164 106.333 164 319c0 111.333 -13.667 194.5 -41 249.5s-67.666 82.5 -120.999 82.5z" />
    <glyph glyph-name="uni2081" unicode="&#x2081;" horiz-adv-x="750" 
d="M668 -244h-504v113h184v594l-192 -55v124l323 97v-760h189v-113z" />
    <glyph glyph-name="uni2082" unicode="&#x2082;" horiz-adv-x="750" 
d="M657 -244l-553 0.000976562v115l240 235c70 68.667 114.167 121 132.5 157s27.5 72.667 27.5 110c0 38 -12.667 69.333 -38 94s-58.333 37 -99 37c-79.333 0 -151.666 -34.333 -216.999 -103v150c55.333 50.667 133.666 76 234.999 76
c79.333 0 141.833 -21.833 187.5 -65.5s68.5 -101.834 68.5 -174.501c0 -102.667 -68.333 -218.667 -205 -348l-164 -156v-4h385v-123z" />
    <glyph glyph-name="uni2083" unicode="&#x2083;" horiz-adv-x="750" 
d="M129 -211v140.999c68 -50 140.333 -75 217 -75c53.333 0 95.333 12.5 126 37.5s46 58.833 46 101.5c0 94 -73 141 -219 141h-84v119h80c131.333 0 197 44.333 197 133c0 79.333 -48 119 -144 119c-62.667 0 -124.667 -23.333 -186 -70v139
c58.667 34.667 129.667 52 213 52c74.667 0 134.667 -19.833 180 -59.5s68 -91.5 68 -155.5c0 -101.333 -48.667 -169.666 -146 -204.999v-4c117.333 -27.333 176 -95 176 -203c0 -78 -28.333 -141.5 -85 -190.5s-132 -73.5 -226 -73.5c-91.333 0 -162.333 17.667 -213 53z
" />
    <glyph glyph-name="uni2084" unicode="&#x2084;" horiz-adv-x="750" 
d="M682 -33h-111v-205h-131v205h-393v92l369 553h155v-536h111v-109zM444 487h-4c-8 -20 -21 -44.333 -39 -73l-217 -338h256v323c0 20.667 1.33301 50 4 88z" />
    <glyph glyph-name="uni2085" unicode="&#x2085;" horiz-adv-x="750" 
d="M127 -221l0.00195312 145.001c75.333 -46 141.666 -69 198.999 -69s102.666 15 135.999 45s50 68 50 114c0 102.667 -68.333 154 -205 154l-153 -8v450h456v-123h-329v-200c121.333 8 213 -12.833 275 -62.5s93 -117.834 93 -204.501c0 -82.667 -29 -150.667 -87 -204
s-137.333 -80 -238 -80c-82 0 -147.667 14.333 -197 43z" />
    <glyph glyph-name="uni2086" unicode="&#x2086;" horiz-adv-x="750" 
d="M610 592v-128.995c-9.33301 6 -20.5 11.667 -33.5 17s-26.5 10.166 -40.5 14.499s-28.333 7.66602 -43 9.99902s-28 3.5 -40 3.5c-38 0 -71.167 -6.16699 -99.5 -18.5s-54.166 -30.833 -77.499 -55.5c-20 -22.667 -37.5 -55.167 -52.5 -97.5s-22.5 -95.833 -22.5 -160.5
h4c19.333 34 47.166 62 83.499 84s80.833 33 133.5 33c40 0 75.833 -6.5 107.5 -19.5s58.5 -31.333 80.5 -55s38.833 -52.167 50.5 -85.5s17.5 -70 17.5 -110c0 -41.333 -7.5 -79.333 -22.5 -114s-35.833 -64.667 -62.5 -90s-57.834 -45.166 -93.501 -59.499
s-73.834 -21.5 -114.501 -21.5c-42 0 -81.833 8 -119.5 24s-70.667 40.667 -99 74s-50.833 75.166 -67.5 125.499s-25 110.166 -25 179.499c0 78 9.33301 147.167 28 207.5s44.834 111.166 78.501 152.499s73.834 72.666 120.501 93.999s98 32 154 32
c28.667 0 56.5 -3 83.5 -9s50.833 -14.667 71.5 -26zM385 186.005c-22.667 0 -43.833 -3.5 -63.5 -10.5s-37 -17.167 -52 -30.5s-26.833 -29.5 -35.5 -48.5s-13 -40.167 -13 -63.5c0 -22.667 3.66699 -44.667 11 -66s17.833 -40.333 31.5 -57s30.167 -30 49.5 -40
s41.333 -15 66 -15c50 0 89.167 14.833 117.5 44.5s42.5 69.167 42.5 118.5c0 52 -12.833 93 -38.5 123s-64.167 45 -115.5 45z" />
    <glyph glyph-name="uni2087" unicode="&#x2087;" horiz-adv-x="750" 
d="M326 -244h-148l322 744h-422v116h594v-53z" />
    <glyph glyph-name="uni2088" unicode="&#x2088;" horiz-adv-x="750" 
d="M514 205c109.333 -48 164.001 -123 164.001 -225c0 -75.333 -27.667 -134.5 -83 -177.5s-132 -64.5 -230 -64.5c-83.333 0 -153 21.5 -209 64.5s-84 99.167 -84 168.5c0 102.667 53.667 180.667 161 234c-87.333 49.333 -131 116.333 -131 201
c0 66.667 25.667 120.167 77 160.5s120.666 60.5 207.999 60.5c78 0 141.167 -19.167 189.5 -57.5s72.5 -88.833 72.5 -151.5c0 -90 -45 -161 -135 -213zM375.001 266c91.333 38.667 137 85.332 137 139.999c0 68 -44.333 102 -133 102c-41.333 0 -74.5 -9.5 -99.5 -28.5
s-37.5 -42.833 -37.5 -71.5c0 -57.333 44.333 -104.666 133 -141.999zM369.001 144.998c-105.333 -35.333 -158 -91.332 -158 -167.999c0 -34 15.333 -62.5 46 -85.5s70.667 -34.5 120 -34.5c48 0 87.333 11.167 118 33.5s46 49.833 46 82.5
c0 75.333 -57.333 132.666 -172 171.999z" />
    </font>
</defs>
</svg>
